P3
# CREATOR: GIMP PNM Filter Version 1.1
24 186
255
85
255
255
85
255
255
85
255
255
85
255
255
85
255
255
53
53
53
53
53
53
53
53
53
53
53
53
53
53
53
53
53
53
53
53
53
53
53
53
53
53
53
53
53
53
53
53
53
53
53
53
53
53
53
85
255
255
85
255
255
85
255
255
85
255
255
85
255
255
85
255
255
85
255
255
85
255
255
85
255
255
85
255
255
53
53
53
170
85
0
170
85
0
170
85
0
170
85
0
170
85
0
255
130
0
170
85
0
255
130
0
255
130
0
255
130
0
255
130
0
255
130
0
255
130
0
170
85
0
170
85
0
53
53
53
85
255
255
85
255
255
85
255
255
85
255
255
85
255
255
85
255
255
53
53
53
170
85
0
170
85
0
170
85
0
170
85
0
170
85
0
170
85
0
170
85
0
170
85
0
170
85
0
170
85
0
170
85
0
255
130
0
255
130
0
255
130
0
255
130
0
170
85
0
170
85
0
53
53
53
85
255
255
85
255
255
85
255
255
85
255
255
85
255
255
65
57
32
170
85
0
170
85
0
170
85
0
170
85
0
170
85
0
170
85
0
170
85
0
170
85
0
170
85
0
170
85
0
170
85
0
170
85
0
255
130
0
255
130
0
255
130
0
255
130
0
170
85
0
113
69
57
85
255
255
85
255
255
85
255
255
85
255
255
53
53
53
170
85
0
170
85
0
170
85
0
170
85
0
65
57
32
113
69
57
113
69
57
113
69
57
170
85
0
113
69
57
113
69
57
113
85
57
113
85
57
170
85
0
255
130
0
255
130
0
255
130
0
255
130
0
113
85
57
53
53
53
85
255
255
85
255
255
85
255
255
53
53
53
170
85
0
170
85
0
170
85
0
65
57
32
113
69
57
65
57
32
65
57
32
113
69
57
113
69
57
170
85
0
65
65
32
65
57
32
113
69
57
170
85
0
255
130
0
255
130
0
170
85
0
113
69
57
170
85
0
53
53
53
85
255
255
85
255
255
85
255
255
53
53
53
170
85
0
170
85
0
113
69
57
113
97
57
255
130
130
255
130
130
255
130
130
113
113
57
113
97
57
113
69
57
65
65
32
65
40
32
65
57
32
113
69
57
255
130
0
170
85
0
113
97
57
113
69
57
170
85
0
53
53
53
85
255
255
85
255
255
85
255
255
53
53
53
65
57
32
113
97
57
113
97
57
255
158
130
255
190
130
255
190
130
255
158
130
255
158
130
255
130
130
255
130
130
255
85
85
113
97
57
113
97
57
113
97
57
170
85
0
255
190
130
255
130
130
113
97
57
113
69
57
53
53
53
85
255
255
85
255
255
85
255
255
53
53
53
65
57
32
113
97
57
255
130
130
255
202
186
255
202
186
255
202
186
255
202
186
255
202
186
255
202
186
255
190
130
255
130
130
255
130
130
113
97
57
255
158
130
170
85
0
255
190
130
255
202
186
113
113
57
65
57
32
53
53
53
85
255
255
85
255
255
85
255
255
53
53
53
65
57
32
113
97
57
255
190
130
255
158
130
255
158
130
255
190
130
255
202
186
255
202
186
255
202
186
255
202
186
255
190
130
255
130
130
255
85
85
255
158
130
255
190
130
255
202
186
255
202
186
255
130
130
65
57
32
53
53
53
85
255
255
85
255
255
85
255
255
53
53
53
65
49
32
113
113
57
255
130
130
255
190
130
255
202
186
255
223
186
239
239
239
255
223
186
255
202
186
255
202
186
255
202
186
255
130
130
255
85
85
255
190
130
255
202
186
239
239
239
255
190
130
255
130
130
65
57
32
53
53
53
85
255
255
85
255
255
85
255
255
53
53
53
65
49
32
113
113
57
255
190
130
53
53
53
53
53
53
113
97
57
255
130
130
255
190
130
255
190
130
255
190
130
255
190
130
255
158
130
255
130
130
113
97
57
69
69
69
85
85
85
255
223
186
255
130
130
65
49
32
53
53
53
85
255
255
85
255
255
53
53
53
255
158
130
32
32
32
255
130
130
85
85
85
117
117
117
0
0
113
0
0
0
0
0
0
0
0
0
113
97
57
113
97
57
113
97
57
0
0
0
0
0
0
53
53
53
0
0
113
117
117
117
85
85
85
255
190
130
32
32
32
255
158
130
53
53
53
85
255
255
53
53
53
255
130
130
32
32
32
255
130
130
255
130
130
202
202
202
0
0
170
0
0
255
170
170
170
170
0
0
113
113
81
255
158
130
113
97
57
170
0
0
170
170
170
0
0
170
0
0
255
255
255
255
255
130
130
255
130
130
32
32
32
255
158
130
53
53
53
85
255
255
53
53
53
113
113
57
113
97
57
255
130
130
255
190
130
255
158
130
255
158
130
255
158
130
255
158
130
255
190
130
255
190
130
255
202
186
255
158
130
255
202
186
255
158
130
255
158
130
255
158
130
255
158
130
255
190
130
255
130
130
113
97
57
113
113
57
53
53
53
85
255
255
53
53
53
255
130
130
255
158
130
255
158
130
255
202
186
255
202
186
239
239
239
239
239
239
255
202
186
255
190
130
255
158
130
255
223
186
255
202
186
255
202
186
255
202
186
255
202
186
239
239
239
239
239
239
255
202
186
255
158
130
255
190
130
255
130
130
53
53
53
85
255
255
53
53
53
255
158
130
113
113
81
255
158
130
255
202
186
255
202
186
255
202
186
255
202
186
255
202
186
255
85
85
255
190
130
255
202
186
255
202
186
255
158
130
255
202
186
255
202
186
255
202
186
255
202
186
255
202
186
255
158
130
255
130
130
255
158
130
53
53
53
85
255
255
85
255
255
113
97
57
113
85
57
113
113
81
255
190
130
255
202
186
255
202
186
255
202
186
255
158
130
113
97
57
113
85
57
113
85
57
113
85
57
113
97
57
255
158
130
255
202
186
255
202
186
255
202
186
255
190
130
113
113
81
113
85
57
113
97
57
85
255
255
85
255
255
85
255
255
53
53
53
113
85
57
255
158
130
255
130
130
255
158
130
255
202
186
255
190
130
255
158
130
255
158
130
255
158
130
255
85
85
255
158
130
255
190
130
255
190
130
255
202
186
255
202
186
255
158
130
255
130
130
255
158
130
113
85
57
53
53
53
85
255
255
85
255
255
85
255
255
53
53
53
113
85
57
255
190
130
255
158
130
255
190
130
255
202
186
255
158
130
255
190
130
255
190
130
255
190
130
255
158
130
255
190
130
255
202
186
255
190
130
255
158
130
255
202
186
255
190
130
255
158
130
255
158
130
113
85
57
53
53
53
85
255
255
85
255
255
85
255
255
85
255
255
53
53
53
255
190
130
255
158
130
255
190
130
255
202
186
113
113
81
113
97
57
113
113
81
255
85
85
255
85
85
255
85
85
113
113
81
113
97
57
113
113
81
255
202
186
255
190
130
255
158
130
255
190
130
53
53
53
85
255
255
85
255
255
85
255
255
85
255
255
85
255
255
53
53
53
255
190
130
255
190
130
255
190
130
255
202
186
255
190
130
255
158
130
255
190
130
255
202
186
255
202
186
255
223
186
255
202
186
255
158
130
255
190
130
255
202
186
255
190
130
255
190
130
255
190
130
32
32
32
85
255
255
85
255
255
85
255
255
85
255
255
85
255
255
53
53
53
255
130
130
255
190
130
255
190
130
255
202
186
255
202
186
255
190
130
255
158
130
255
158
130
255
130
130
255
158
130
255
158
130
255
190
130
255
202
186
255
202
186
255
190
130
255
190
130
255
190
130
32
32
32
85
255
255
85
255
255
85
255
255
85
255
255
85
255
255
53
53
53
113
97
57
255
130
130
255
190
130
255
202
186
255
202
186
239
239
239
255
202
186
255
202
186
255
202
186
255
202
186
255
202
186
255
202
186
239
239
239
255
202
186
255
190
130
255
158
130
255
202
186
32
32
32
85
255
255
85
255
255
85
255
255
85
255
255
85
255
255
53
53
53
113
97
57
113
97
57
255
130
130
255
158
130
255
202
186
255
202
186
255
202
186
255
190
130
255
130
130
255
190
130
255
202
186
255
202
186
255
202
186
255
158
130
255
158
130
255
158
130
255
202
186
53
53
53
85
255
255
85
255
255
85
255
255
85
255
255
85
255
255
53
53
53
113
97
57
113
69
57
113
97
57
113
113
81
255
130
130
255
130
130
255
130
130
255
85
85
113
97
57
255
85
85
255
130
130
255
130
130
255
130
130
113
113
81
113
97
57
255
202
186
255
202
186
53
53
53
85
255
255
85
255
255
85
255
255
85
255
255
85
255
255
53
53
53
113
97
57
65
65
32
113
69
57
65
57
32
65
57
32
65
57
32
65
57
32
65
57
32
65
65
32
113
69
57
113
69
57
113
69
57
113
97
57
113
97
57
255
85
85
255
202
186
255
202
186
53
53
53
85
255
255
85
255
255
85
255
255
85
255
255
85
255
255
53
53
53
113
97
57
65
65
32
113
85
57
113
69
57
113
69
57
113
85
57
113
97
57
113
97
57
113
97
57
113
97
57
113
97
57
113
97
57
255
85
85
255
202
186
255
202
186
255
85
85
255
158
130
85
255
255
85
255
255
85
255
255
85
255
255
85
255
255
85
255
255
85
255
255
113
69
57
65
65
32
113
69
57
113
85
57
113
97
57
113
97
57
255
130
130
113
113
57
255
85
85
255
85
85
255
85
85
113
97
57
255
190
130
255
190
130
255
202
186
255
202
186
255
85
85
85
255
255
85
255
255
85
255
255
85
255
255
85
255
255
85
255
255
85
255
255
113
69
57
113
69
57
113
85
57
113
97
57
255
85
85
255
130
130
255
190
130
255
130
130
255
202
186
255
202
186
255
158
130
255
85
85
255
130
130
255
202
186
255
158
130
255
158
130
113
97
57
85
255
255
85
255
255
85
255
255
85
255
255
85
255
255
85
255
255
85
255
255
113
69
57
113
69
57
113
97
57
113
97
57
113
97
57
255
158
130
255
190
130
255
130
130
255
158
130
255
202
186
255
190
130
255
158
130
255
85
85
255
190
130
255
158
130
113
97
57
113
97
57
85
255
255
85
255
255
85
255
255
85
255
255
85
255
255
85
255
255
85
255
255
85
255
255
53
53
53
53
53
53
53
53
53
53
53
53
53
53
53
53
53
53
53
53
53
53
53
53
53
53
53
53
53
53
53
53
53
53
53
53
53
53
53
85
255
255
85
255
255
85
255
255
85
255
255
85
255
255
85
255
255
85
255
255
85
255
255
85
255
255
85
255
255
53
53
53
170
85
0
170
85
0
170
85
0
170
85
0
170
85
0
255
130
0
170
85
0
255
130
0
255
130
0
255
130
0
255
130
0
255
130
0
255
130
0
170
85
0
170
85
0
53
53
53
85
255
255
85
255
255
85
255
255
85
255
255
85
255
255
85
255
255
53
53
53
170
85
0
170
85
0
170
85
0
170
85
0
170
85
0
170
85
0
170
85
0
170
85
0
170
85
0
170
85
0
170
85
0
255
130
0
255
130
0
255
130
0
255
130
0
170
85
0
170
85
0
53
53
53
85
255
255
85
255
255
85
255
255
85
255
255
85
255
255
65
57
32
170
85
0
170
85
0
170
85
0
170
85
0
170
85
0
170
85
0
170
85
0
170
85
0
170
85
0
170
85
0
170
85
0
170
85
0
255
130
0
255
130
0
255
130
0
255
130
0
170
85
0
113
69
57
85
255
255
85
255
255
85
255
255
85
255
255
53
53
53
170
85
0
170
85
0
170
85
0
170
85
0
65
57
32
113
69
57
113
69
57
113
69
57
170
85
0
113
69
57
113
69
57
113
85
57
113
85
57
170
85
0
255
130
0
255
130
0
255
130
0
255
130
0
113
85
57
53
53
53
85
255
255
85
255
255
85
255
255
53
53
53
170
85
0
170
85
0
170
85
0
65
57
32
113
69
57
65
57
32
65
57
32
113
69
57
113
69
57
170
85
0
65
65
32
65
57
32
113
69
57
170
85
0
255
130
0
255
130
0
170
85
0
113
69
57
170
85
0
53
53
53
85
255
255
85
255
255
85
255
255
53
53
53
170
85
0
170
85
0
113
69
57
113
97
57
255
130
130
255
130
130
255
130
130
113
113
57
113
97
57
113
69
57
65
65
32
65
40
32
65
57
32
113
69
57
255
130
0
170
85
0
113
97
57
113
69
57
170
85
0
53
53
53
85
255
255
85
255
255
85
255
255
53
53
53
65
57
32
113
97
57
113
97
57
255
158
130
255
190
130
255
190
130
255
158
130
255
158
130
255
130
130
255
130
130
255
85
85
113
97
57
113
97
57
113
97
57
170
85
0
255
190
130
255
130
130
113
97
57
113
69
57
53
53
53
85
255
255
85
255
255
85
255
255
53
53
53
65
57
32
113
97
57
255
130
130
255
202
186
255
202
186
255
202
186
255
202
186
255
202
186
255
202
186
255
190
130
255
130
130
255
130
130
113
97
57
255
158
130
170
85
0
255
190
130
255
202
186
113
113
57
65
57
32
53
53
53
85
255
255
85
255
255
85
255
255
53
53
53
65
57
32
113
97
57
255
190
130
255
158
130
255
158
130
255
190
130
255
202
186
255
202
186
255
202
186
255
202
186
255
190
130
255
130
130
255
85
85
255
158
130
255
190
130
255
202
186
255
202
186
255
130
130
65
57
32
53
53
53
85
255
255
85
255
255
85
255
255
53
53
53
65
49
32
113
113
57
255
130
130
255
190
130
255
202
186
255
223
186
239
239
239
255
223
186
255
202
186
255
202
186
255
202
186
255
130
130
255
85
85
255
190
130
255
202
186
239
239
239
255
190
130
255
130
130
65
57
32
53
53
53
85
255
255
85
255
255
85
255
255
53
53
53
65
49
32
113
113
57
255
190
130
53
53
53
53
53
53
113
97
57
255
130
130
255
190
130
255
190
130
255
190
130
255
190
130
255
158
130
255
130
130
113
97
57
69
69
69
85
85
85
255
223
186
255
130
130
65
49
32
53
53
53
85
255
255
85
255
255
53
53
53
255
158
130
32
32
32
255
130
130
69
69
69
117
117
117
0
0
113
0
0
0
0
0
0
0
0
0
113
97
57
113
97
57
113
97
57
0
0
0
0
0
0
53
53
53
0
0
113
117
117
117
85
85
85
255
190
130
32
32
32
255
158
130
53
53
53
85
255
255
53
53
53
255
130
130
32
32
32
255
130
130
255
130
130
202
202
202
0
0
170
0
0
255
186
186
186
170
0
0
113
113
81
255
158
130
113
97
57
170
0
0
186
186
186
0
0
170
0
0
255
255
255
255
255
130
130
255
130
130
32
32
32
255
158
130
53
53
53
85
255
255
53
53
53
113
113
57
113
97
57
255
130
130
255
190
130
255
158
130
255
158
130
255
158
130
255
158
130
255
190
130
255
190
130
255
202
186
255
158
130
255
202
186
255
158
130
255
158
130
255
158
130
255
158
130
255
190
130
255
130
130
113
97
57
113
113
57
53
53
53
85
255
255
53
53
53
255
130
130
255
158
130
255
158
130
255
202
186
255
202
186
239
239
239
239
239
239
255
202
186
255
190
130
255
158
130
255
223
186
255
202
186
255
202
186
255
202
186
255
202
186
239
239
239
239
239
239
255
202
186
255
158
130
255
190
130
255
130
130
53
53
53
85
255
255
53
53
53
255
158
130
113
113
81
255
158
130
255
202
186
255
202
186
255
202
186
255
202
186
255
202
186
255
85
85
255
190
130
255
202
186
255
202
186
255
158
130
255
202
186
255
202
186
255
202
186
255
202
186
255
202
186
255
158
130
255
130
130
255
158
130
53
53
53
85
255
255
85
255
255
113
97
57
113
85
57
113
113
81
255
190
130
255
202
186
255
202
186
255
202
186
255
158
130
113
97
57
113
85
57
113
85
57
113
85
57
113
97
57
255
158
130
255
202
186
255
202
186
255
202
186
255
190
130
113
113
81
113
85
57
113
97
57
85
255
255
85
255
255
85
255
255
53
53
53
113
85
57
255
158
130
255
130
130
255
158
130
255
202
186
255
190
130
255
158
130
255
158
130
255
158
130
255
85
85
255
158
130
255
190
130
255
190
130
255
202
186
255
202
186
255
158
130
255
130
130
255
158
130
113
85
57
53
53
53
85
255
255
85
255
255
85
255
255
53
53
53
113
85
57
255
190
130
255
158
130
255
190
130
255
202
186
255
158
130
255
190
130
255
190
130
255
190
130
255
158
130
255
190
130
255
202
186
255
190
130
255
158
130
255
202
186
255
190
130
255
158
130
255
158
130
113
85
57
53
53
53
85
255
255
85
255
255
85
255
255
85
255
255
53
53
53
255
190
130
255
158
130
255
190
130
255
202
186
113
113
81
113
97
57
113
113
81
255
85
85
255
85
85
255
85
85
170
0
0
113
97
57
113
113
81
255
202
186
255
190
130
255
158
130
255
190
130
53
53
53
85
255
255
85
255
255
85
255
255
85
255
255
85
255
255
53
53
53
255
190
130
255
190
130
255
190
130
255
202
186
255
190
130
255
158
130
255
190
130
255
202
186
255
202
186
255
223
186
255
85
85
255
158
130
255
190
130
255
202
186
255
190
130
255
190
130
255
190
130
32
32
32
85
255
255
85
255
255
85
255
255
85
255
255
85
255
255
53
53
53
255
130
130
255
190
130
255
190
130
255
202
186
255
202
186
255
190
130
255
158
130
255
158
130
255
130
130
255
158
130
255
158
130
255
190
130
255
202
186
255
202
186
255
190
130
255
190
130
255
190
130
32
32
32
85
255
255
85
255
255
85
255
255
85
255
255
85
255
255
53
53
53
113
97
57
255
130
130
255
190
130
255
202
186
255
202
186
239
239
239
255
202
186
255
202
186
255
202
186
255
202
186
255
202
186
255
202
186
239
239
239
255
202
186
255
190
130
255
158
130
255
202
186
32
32
32
85
255
255
85
255
255
85
255
255
85
255
255
85
255
255
53
53
53
113
97
57
113
97
57
255
130
130
255
158
130
255
202
186
255
202
186
255
202
186
255
190
130
255
130
130
255
190
130
255
202
186
255
202
186
255
202
186
255
158
130
255
158
130
255
158
130
255
202
186
53
53
53
85
255
255
85
255
255
85
255
255
85
255
255
85
255
255
53
53
53
113
97
57
113
69
57
113
97
57
113
113
81
255
130
130
255
130
130
255
130
130
255
85
85
113
97
57
255
85
85
255
130
130
255
130
130
255
130
130
113
113
81
113
97
57
255
202
186
255
202
186
53
53
53
85
255
255
85
255
255
85
255
255
85
255
255
85
255
255
53
53
53
113
97
57
65
65
32
113
69
57
65
57
32
65
57
32
65
57
32
65
57
32
65
57
32
65
65
32
113
69
57
113
69
57
113
69
57
113
97
57
113
97
57
255
85
85
255
202
186
255
202
186
53
53
53
85
255
255
85
255
255
85
255
255
85
255
255
85
255
255
53
53
53
113
97
57
65
65
32
113
85
57
113
69
57
113
69
57
113
85
57
113
97
57
113
97
57
113
97
57
113
97
57
113
97
57
113
97
57
255
85
85
255
202
186
255
202
186
255
85
85
255
158
130
85
255
255
85
255
255
85
255
255
85
255
255
85
255
255
85
255
255
85
255
255
113
69
57
65
65
32
113
69
57
113
85
57
113
97
57
113
97
57
255
130
130
113
113
57
255
85
85
255
85
85
255
85
85
113
97
57
255
190
130
255
190
130
255
202
186
255
202
186
255
85
85
85
255
255
85
255
255
85
255
255
85
255
255
85
255
255
85
255
255
85
255
255
113
69
57
113
69
57
113
85
57
113
97
57
255
85
85
255
130
130
255
190
130
255
130
130
255
202
186
255
202
186
255
158
130
255
85
85
255
130
130
255
202
186
255
158
130
255
158
130
113
97
57
85
255
255
85
255
255
85
255
255
85
255
255
85
255
255
85
255
255
85
255
255
113
69
57
113
69
57
113
97
57
113
97
57
113
97
57
255
158
130
255
190
130
255
130
130
255
158
130
255
202
186
255
190
130
255
158
130
255
85
85
255
190
130
255
158
130
113
97
57
113
97
57
85
255
255
85
255
255
85
255
255
85
255
255
85
255
255
85
255
255
85
255
255
85
255
255
53
53
53
53
53
53
53
53
53
53
53
53
53
53
53
53
53
53
53
53
53
53
53
53
53
53
53
53
53
53
53
53
53
53
53
53
53
53
53
85
255
255
85
255
255
85
255
255
85
255
255
85
255
255
85
255
255
85
255
255
85
255
255
85
255
255
85
255
255
53
53
53
170
85
0
170
85
0
170
85
0
170
85
0
170
85
0
255
130
0
170
85
0
255
130
0
255
130
0
255
130
0
255
130
0
255
130
0
255
130
0
170
85
0
170
85
0
53
53
53
85
255
255
85
255
255
85
255
255
85
255
255
85
255
255
85
255
255
53
53
53
170
85
0
170
85
0
170
85
0
170
85
0
170
85
0
170
85
0
170
85
0
170
85
0
170
85
0
170
85
0
170
85
0
255
130
0
255
130
0
255
130
0
255
130
0
170
85
0
170
85
0
53
53
53
85
255
255
85
255
255
85
255
255
85
255
255
85
255
255
65
57
32
170
85
0
170
85
0
170
85
0
170
85
0
170
85
0
170
85
0
170
85
0
170
85
0
170
85
0
170
85
0
170
85
0
170
85
0
255
130
0
255
130
0
255
130
0
255
130
0
170
85
0
113
69
57
85
255
255
85
255
255
85
255
255
85
255
255
53
53
53
170
85
0
170
85
0
170
85
0
170
85
0
65
57
32
113
69
57
113
69
57
113
69
57
170
85
0
113
69
57
113
69
57
113
85
57
113
85
57
170
85
0
255
130
0
255
130
0
255
130
0
255
130
0
113
85
57
53
53
53
85
255
255
85
255
255
85
255
255
53
53
53
170
85
0
170
85
0
170
85
0
65
57
32
113
69
57
65
57
32
65
57
32
113
69
57
113
69
57
170
85
0
65
65
32
65
57
32
113
69
57
170
85
0
255
130
0
255
130
0
170
85
0
113
69
57
170
85
0
53
53
53
85
255
255
85
255
255
85
255
255
53
53
53
170
85
0
170
85
0
113
69
57
113
97
57
255
130
130
255
130
130
255
130
130
113
113
57
113
97
57
113
69
57
65
65
32
65
40
32
65
57
32
113
69
57
255
130
0
170
85
0
113
97
57
113
69
57
170
85
0
53
53
53
85
255
255
85
255
255
85
255
255
53
53
53
65
57
32
113
97
57
113
97
57
255
158
130
255
190
130
255
190
130
255
158
130
255
158
130
255
130
130
255
130
130
255
85
85
113
97
57
113
97
57
113
97
57
170
85
0
255
190
130
255
130
130
113
97
57
113
69
57
53
53
53
85
255
255
85
255
255
85
255
255
53
53
53
65
57
32
113
97
57
255
130
130
255
202
186
255
202
186
255
202
186
255
202
186
255
202
186
255
202
186
255
190
130
255
130
130
255
130
130
113
97
57
255
158
130
170
85
0
255
190
130
255
202
186
113
113
57
65
57
32
53
53
53
85
255
255
85
255
255
85
255
255
53
53
53
65
57
32
113
97
57
255
190
130
255
158
130
255
158
130
255
190
130
255
202
186
255
202
186
255
202
186
255
202
186
255
190
130
255
130
130
255
85
85
255
158
130
255
190
130
255
202
186
255
202
186
255
130
130
65
57
32
53
53
53
85
255
255
85
255
255
85
255
255
53
53
53
65
49
32
113
113
57
255
130
130
255
190
130
255
202
186
255
223
186
239
239
239
255
223
186
255
202
186
255
202
186
255
202
186
255
130
130
255
85
85
255
190
130
255
202
186
239
239
239
255
190
130
255
130
130
65
57
32
53
53
53
85
255
255
85
255
255
85
255
255
53
53
53
65
49
32
113
113
57
255
190
130
53
53
53
53
53
53
113
97
57
255
130
130
255
190
130
255
190
130
255
190
130
255
190
130
255
158
130
255
130
130
69
69
69
53
53
53
53
53
53
255
223
186
255
130
130
65
49
32
53
53
53
85
255
255
85
255
255
53
53
53
255
158
130
32
32
32
255
130
130
85
85
85
117
117
117
0
0
113
0
0
0
0
0
0
0
0
0
113
97
57
113
97
57
113
97
57
32
32
32
32
32
32
32
32
32
0
0
113
117
117
117
69
69
69
255
190
130
32
32
32
255
158
130
53
53
53
85
255
255
53
53
53
255
130
130
32
32
32
255
130
130
255
130
130
202
202
202
0
0
170
0
0
255
186
186
186
170
0
0
113
113
81
255
158
130
113
97
57
170
0
0
255
130
130
0
0
170
0
0
255
255
255
255
255
130
130
255
130
130
32
32
32
255
158
130
53
53
53
85
255
255
53
53
53
113
113
57
113
97
57
255
130
130
255
190
130
255
158
130
255
158
130
255
158
130
255
158
130
255
190
130
255
190
130
255
202
186
255
158
130
255
202
186
255
158
130
255
158
130
255
158
130
255
158
130
255
190
130
255
130
130
113
97
57
113
113
57
53
53
53
85
255
255
53
53
53
255
130
130
255
158
130
255
158
130
255
202
186
255
202
186
239
239
239
239
239
239
255
202
186
255
190
130
255
158
130
255
223
186
255
202
186
255
202
186
255
202
186
255
202
186
239
239
239
239
239
239
255
202
186
255
158
130
255
190
130
255
130
130
53
53
53
85
255
255
53
53
53
255
158
130
113
113
81
255
158
130
255
202
186
255
202
186
255
202
186
255
202
186
255
202
186
255
85
85
255
190
130
255
202
186
255
202
186
255
158
130
255
202
186
255
202
186
255
202
186
255
202
186
255
202
186
255
158
130
255
130
130
255
158
130
53
53
53
85
255
255
85
255
255
113
97
57
113
85
57
113
113
81
255
190
130
255
202
186
255
202
186
255
202
186
255
158
130
113
97
57
113
85
57
113
85
57
113
85
57
113
97
57
255
158
130
255
202
186
255
202
186
255
202
186
255
190
130
113
113
81
113
85
57
113
97
57
85
255
255
85
255
255
85
255
255
53
53
53
113
85
57
255
158
130
255
130
130
255
158
130
255
202
186
255
190
130
255
158
130
255
158
130
255
158
130
255
85
85
255
0
0
255
190
130
255
190
130
255
202
186
255
202
186
255
158
130
255
130
130
255
158
130
113
85
57
53
53
53
85
255
255
85
255
255
85
255
255
53
53
53
113
85
57
255
190
130
255
158
130
255
190
130
255
202
186
255
158
130
255
190
130
255
190
130
255
190
130
255
158
130
255
85
85
255
202
186
255
190
130
255
158
130
255
202
186
255
190
130
255
158
130
255
158
130
113
85
57
53
53
53
85
255
255
85
255
255
85
255
255
85
255
255
53
53
53
255
190
130
255
158
130
255
190
130
255
202
186
113
113
81
113
97
57
113
113
81
255
85
85
255
85
85
255
85
85
170
0
0
113
97
57
113
113
81
255
202
186
255
190
130
255
158
130
255
190
130
53
53
53
85
255
255
85
255
255
85
255
255
85
255
255
85
255
255
53
53
53
255
190
130
255
190
130
255
190
130
255
202
186
255
190
130
255
158
130
255
190
130
255
202
186
255
202
186
255
130
130
255
85
85
255
0
0
255
190
130
255
202
186
255
190
130
255
190
130
255
190
130
32
32
32
85
255
255
85
255
255
85
255
255
85
255
255
85
255
255
53
53
53
255
130
130
255
190
130
255
190
130
255
202
186
255
202
186
255
190
130
255
158
130
255
158
130
255
130
130
255
158
130
255
158
130
255
190
130
255
202
186
255
202
186
255
190
130
255
190
130
255
190
130
32
32
32
85
255
255
85
255
255
85
255
255
85
255
255
85
255
255
53
53
53
113
97
57
255
130
130
255
190
130
255
202
186
255
202
186
239
239
239
255
202
186
255
202
186
255
202
186
255
202
186
255
202
186
255
202
186
239
239
239
255
202
186
255
190
130
255
158
130
255
202
186
32
32
32
85
255
255
85
255
255
85
255
255
85
255
255
85
255
255
53
53
53
113
97
57
113
97
57
255
130
130
255
158
130
255
202
186
255
202
186
255
202
186
255
190
130
255
130
130
255
190
130
255
202
186
255
202
186
255
202
186
255
158
130
255
158
130
255
158
130
255
202
186
53
53
53
85
255
255
85
255
255
85
255
255
85
255
255
85
255
255
53
53
53
113
97
57
113
69
57
113
97
57
113
113
81
255
130
130
255
130
130
255
130
130
255
85
85
113
97
57
255
85
85
255
130
130
255
130
130
255
130
130
113
113
81
113
97
57
255
202
186
255
202
186
53
53
53
85
255
255
85
255
255
85
255
255
85
255
255
85
255
255
53
53
53
113
97
57
65
65
32
113
69
57
65
57
32
65
57
32
65
57
32
65
57
32
65
57
32
65
65
32
113
69
57
113
69
57
113
69
57
113
97
57
113
97
57
255
85
85
255
202
186
255
202
186
53
53
53
85
255
255
85
255
255
85
255
255
85
255
255
85
255
255
53
53
53
113
97
57
65
65
32
113
85
57
113
69
57
113
69
57
113
85
57
113
97
57
113
97
57
113
97
57
113
97
57
113
97
57
113
97
57
255
85
85
255
202
186
255
202
186
255
85
85
255
158
130
85
255
255
85
255
255
85
255
255
85
255
255
85
255
255
85
255
255
85
255
255
113
69
57
65
65
32
113
69
57
113
85
57
113
97
57
113
97
57
255
130
130
113
113
57
255
85
85
255
85
85
255
85
85
113
97
57
255
190
130
255
190
130
255
202
186
255
202
186
255
85
85
85
255
255
85
255
255
85
255
255
85
255
255
85
255
255
85
255
255
85
255
255
113
69
57
113
69
57
113
85
57
113
97
57
255
85
85
255
130
130
255
190
130
255
130
130
255
202
186
255
202
186
255
158
130
255
85
85
255
130
130
255
202
186
255
158
130
255
158
130
113
97
57
85
255
255
85
255
255
85
255
255
85
255
255
85
255
255
85
255
255
85
255
255
113
69
57
113
69
57
113
97
57
113
97
57
113
97
57
255
158
130
255
190
130
255
130
130
255
158
130
255
202
186
255
190
130
255
158
130
255
85
85
255
190
130
255
158
130
113
97
57
113
97
57
85
255
255
85
255
255
85
255
255
85
255
255
85
255
255
85
255
255
85
255
255
85
255
255
53
53
53
53
53
53
53
53
53
53
53
53
53
53
53
53
53
53
53
53
53
53
53
53
53
53
53
53
53
53
53
53
53
53
53
53
53
53
53
85
255
255
85
255
255
85
255
255
85
255
255
85
255
255
85
255
255
85
255
255
85
255
255
85
255
255
85
255
255
53
53
53
170
85
0
170
85
0
170
85
0
170
85
0
170
85
0
255
130
0
170
85
0
255
130
0
255
130
0
255
130
0
255
130
0
255
130
0
255
130
0
170
85
0
170
85
0
53
53
53
85
255
255
85
255
255
85
255
255
85
255
255
85
255
255
85
255
255
53
53
53
170
85
0
170
85
0
170
85
0
170
85
0
170
85
0
170
85
0
170
85
0
170
85
0
170
85
0
170
85
0
170
85
0
255
130
0
255
130
0
255
130
0
255
130
0
170
85
0
170
85
0
53
53
53
85
255
255
85
255
255
85
255
255
85
255
255
85
255
255
65
57
32
170
85
0
170
85
0
170
85
0
170
85
0
170
85
0
170
85
0
170
85
0
170
85
0
170
85
0
170
85
0
170
85
0
170
85
0
255
130
0
255
130
0
255
130
0
255
130
0
170
85
0
113
69
57
85
255
255
85
255
255
85
255
255
85
255
255
53
53
53
170
85
0
170
85
0
170
85
0
170
85
0
65
57
32
113
69
57
113
69
57
113
69
57
170
85
0
113
69
57
113
69
57
113
85
57
113
85
57
170
85
0
255
130
0
255
130
0
255
130
0
255
130
0
113
85
57
53
53
53
85
255
255
85
255
255
85
255
255
53
53
53
170
85
0
170
85
0
170
85
0
65
57
32
113
69
57
65
57
32
65
57
32
113
69
57
113
69
57
170
85
0
65
65
32
65
57
32
113
69
57
170
85
0
255
130
0
255
130
0
170
85
0
113
69
57
170
85
0
53
53
53
85
255
255
85
255
255
85
255
255
53
53
53
170
85
0
170
85
0
113
69
57
113
97
57
255
130
130
255
130
130
255
130
130
113
113
57
113
97
57
113
69
57
65
65
32
65
40
32
65
57
32
113
69
57
255
130
0
170
85
0
113
97
57
113
69
57
170
85
0
53
53
53
85
255
255
85
255
255
85
255
255
53
53
53
65
57
32
113
97
57
113
97
57
255
158
130
255
190
130
255
190
130
255
158
130
255
158
130
255
130
130
255
130
130
255
85
85
113
97
57
113
97
57
113
97
57
170
85
0
255
190
130
255
130
130
113
97
57
113
69
57
53
53
53
85
255
255
85
255
255
85
255
255
53
53
53
65
57
32
113
97
57
255
130
130
255
202
186
255
202
186
255
202
186
255
202
186
255
202
186
255
202
186
255
190
130
255
130
130
255
130
130
113
97
57
255
158
130
170
85
0
255
190
130
255
202
186
113
113
57
65
57
32
53
53
53
85
255
255
85
255
255
85
255
255
53
53
53
65
57
32
113
97
57
255
190
130
255
158
130
255
158
130
255
190
130
255
202
186
255
202
186
255
202
186
255
202
186
255
190
130
255
130
130
255
85
85
255
158
130
255
190
130
255
202
186
255
202
186
255
130
130
65
57
32
53
53
53
85
255
255
85
255
255
85
255
255
53
53
53
65
49
32
113
113
57
255
130
130
255
190
130
255
202
186
255
223
186
239
239
239
255
223
186
255
202
186
255
202
186
255
202
186
255
130
130
255
85
85
255
190
130
255
202
186
239
239
239
255
190
130
255
130
130
65
57
32
53
53
53
85
255
255
85
255
255
85
255
255
53
53
53
65
49
32
113
113
57
255
190
130
53
53
53
53
53
53
113
97
57
255
130
130
255
190
130
255
190
130
255
190
130
255
190
130
255
158
130
255
130
130
69
69
69
53
53
53
69
69
69
255
223
186
255
130
130
65
49
32
53
53
53
85
255
255
85
255
255
53
53
53
255
158
130
32
32
32
255
130
130
85
85
85
117
117
117
0
0
113
0
0
0
0
0
0
0
0
0
113
97
57
113
97
57
113
97
57
32
32
32
32
32
32
32
32
32
0
0
113
117
117
117
85
85
85
255
190
130
32
32
32
255
158
130
53
53
53
85
255
255
53
53
53
255
130
130
32
32
32
255
130
130
255
130
130
202
202
202
0
0
170
0
0
255
186
186
186
170
0
0
113
113
81
255
158
130
113
97
57
170
0
0
255
130
130
0
0
170
0
0
255
255
130
130
255
130
130
255
130
130
32
32
32
255
158
130
53
53
53
85
255
255
53
53
53
113
113
57
113
97
57
255
130
130
255
190
130
255
158
130
255
158
130
255
158
130
255
158
130
255
190
130
255
190
130
255
202
186
255
158
130
255
202
186
255
158
130
255
190
130
255
202
186
255
202
186
255
202
186
255
130
130
113
97
57
113
113
57
53
53
53
85
255
255
53
53
53
255
130
130
255
158
130
255
158
130
255
202
186
255
202
186
239
239
239
239
239
239
255
202
186
255
190
130
255
158
130
255
223
186
255
202
186
255
202
186
255
202
186
255
223
186
239
239
239
239
239
239
239
239
239
255
223
186
255
190
130
255
130
130
53
53
53
85
255
255
53
53
53
255
158
130
113
113
81
255
158
130
255
202
186
255
202
186
255
202
186
255
202
186
255
202
186
255
85
85
255
190
130
255
202
186
255
202
186
255
158
130
255
202
186
255
202
186
239
239
239
239
239
239
255
223
186
255
223
186
255
130
130
255
158
130
53
53
53
85
255
255
85
255
255
113
97
57
113
85
57
113
113
81
255
190
130
255
202
186
255
202
186
255
202
186
255
158
130
113
97
57
113
85
57
113
85
57
113
85
57
113
97
57
255
190
130
255
202
186
255
223
186
255
223
186
255
223
186
255
190
130
255
85
85
113
97
57
85
255
255
85
255
255
85
255
255
53
53
53
113
85
57
255
158
130
255
130
130
255
158
130
255
190
130
255
190
130
255
158
130
255
158
130
255
0
0
255
85
85
255
0
0
255
190
130
255
190
130
255
202
186
255
202
186
255
202
186
255
190
130
255
158
130
255
85
85
53
53
53
85
255
255
85
255
255
85
255
255
53
53
53
113
85
57
255
190
130
255
158
130
255
190
130
255
190
130
255
158
130
255
190
130
255
190
130
255
190
130
255
158
130
255
85
85
255
202
186
255
190
130
255
158
130
255
190
130
255
158
130
255
158
130
255
158
130
113
97
57
53
53
53
85
255
255
85
255
255
85
255
255
85
255
255
53
53
53
255
190
130
255
158
130
255
190
130
255
202
186
113
113
81
113
97
57
113
113
81
255
85
85
255
85
85
170
0
0
170
0
0
113
97
57
113
113
81
255
202
186
255
202
186
255
158
130
255
190
130
113
97
57
85
255
255
85
255
255
85
255
255
85
255
255
85
255
255
53
53
53
255
190
130
255
190
130
255
202
186
255
158
130
255
190
130
255
158
130
255
190
130
255
202
186
255
85
85
255
85
85
255
85
85
255
0
0
255
85
85
255
158
130
255
202
186
255
190
130
255
190
130
113
85
57
85
255
255
85
255
255
85
255
255
85
255
255
85
255
255
53
53
53
255
130
130
255
190
130
255
202
186
255
202
186
255
202
186
255
190
130
255
158
130
255
158
130
255
130
130
255
158
130
255
158
130
255
0
0
255
202
186
255
202
186
255
202
186
255
190
130
255
190
130
65
57
32
85
255
255
85
255
255
85
255
255
85
255
255
85
255
255
53
53
53
113
97
57
255
130
130
255
190
130
255
202
186
255
202
186
239
239
239
255
202
186
255
202
186
255
202
186
255
202
186
255
202
186
255
130
130
239
239
239
255
202
186
255
190
130
255
158
130
255
202
186
32
32
32
85
255
255
85
255
255
85
255
255
85
255
255
85
255
255
53
53
53
113
97
57
113
97
57
255
130
130
255
158
130
255
202
186
255
202
186
255
202
186
255
190
130
255
130
130
255
190
130
255
202
186
255
202
186
255
202
186
255
158
130
255
158
130
255
158
130
255
202
186
53
53
53
85
255
255
85
255
255
85
255
255
85
255
255
85
255
255
53
53
53
113
97
57
113
69
57
113
97
57
113
113
81
255
130
130
255
130
130
255
130
130
255
85
85
113
97
57
255
85
85
255
130
130
255
130
130
255
130
130
113
113
81
113
97
57
255
202
186
255
202
186
53
53
53
85
255
255
85
255
255
85
255
255
85
255
255
85
255
255
53
53
53
113
97
57
65
65
32
113
69
57
65
57
32
65
57
32
65
57
32
65
57
32
65
57
32
65
65
32
113
69
57
113
69
57
113
69
57
113
97
57
113
97
57
255
85
85
255
202
186
255
202
186
53
53
53
85
255
255
85
255
255
85
255
255
85
255
255
85
255
255
53
53
53
113
97
57
65
65
32
113
85
57
113
69
57
113
69
57
113
85
57
113
97
57
113
97
57
113
97
57
113
97
57
113
97
57
113
97
57
255
85
85
255
202
186
255
202
186
255
85
85
255
158
130
85
255
255
85
255
255
85
255
255
85
255
255
85
255
255
85
255
255
85
255
255
113
69
57
65
65
32
113
69
57
113
85
57
113
97
57
113
97
57
255
130
130
113
113
57
255
85
85
255
85
85
255
85
85
113
97
57
255
190
130
255
190
130
255
202
186
255
202
186
255
85
85
85
255
255
85
255
255
85
255
255
85
255
255
85
255
255
85
255
255
85
255
255
113
69
57
113
69
57
113
85
57
113
97
57
255
85
85
255
130
130
255
190
130
255
130
130
255
202
186
255
202
186
255
158
130
255
85
85
255
130
130
255
202
186
255
158
130
255
158
130
113
97
57
85
255
255
85
255
255
85
255
255
85
255
255
85
255
255
85
255
255
85
255
255
113
69
57
113
69
57
113
97
57
113
97
57
113
97
57
255
158
130
255
190
130
255
130
130
255
158
130
255
202
186
255
190
130
255
158
130
255
85
85
255
190
130
255
158
130
113
97
57
113
97
57
85
255
255
85
255
255
85
255
255
85
255
255
85
255
255
85
255
255
85
255
255
85
255
255
53
53
53
53
53
53
53
53
53
53
53
53
53
53
53
53
53
53
53
53
53
53
53
53
53
53
53
53
53
53
53
53
53
53
53
53
53
53
53
85
255
255
85
255
255
85
255
255
85
255
255
85
255
255
85
255
255
85
255
255
85
255
255
85
255
255
85
255
255
53
53
53
170
85
0
255
130
0
255
130
0
255
130
0
255
130
0
255
130
0
255
130
0
255
130
0
255
130
0
255
130
0
255
130
0
255
130
0
255
130
0
255
130
0
255
130
0
53
53
53
85
255
255
85
255
255
85
255
255
85
255
255
85
255
255
85
255
255
53
53
53
170
85
0
170
85
0
255
130
0
255
130
0
255
130
0
255
130
0
255
130
0
255
130
0
255
130
0
255
130
0
255
130
0
255
130
0
255
130
0
255
130
0
255
130
0
170
85
0
170
85
0
53
53
53
85
255
255
85
255
255
85
255
255
85
255
255
85
255
255
170
85
0
170
85
0
170
85
0
255
130
0
255
130
0
255
130
0
255
130
0
255
130
0
255
130
0
255
130
0
255
130
0
255
130
0
255
130
0
255
130
0
255
130
0
255
130
0
255
130
0
255
130
0
170
85
0
85
255
255
85
255
255
85
255
255
85
255
255
53
53
53
113
97
57
170
85
0
170
85
0
255
130
0
255
130
0
255
130
0
255
130
0
255
130
0
255
130
0
255
130
0
255
130
0
255
130
0
255
130
0
255
130
0
255
130
0
255
130
0
255
130
0
255
130
0
170
85
0
53
53
53
85
255
255
85
255
255
85
255
255
53
53
53
113
85
57
170
85
0
170
85
0
170
85
0
255
130
0
255
130
0
255
130
0
255
130
0
255
130
0
255
130
0
255
130
0
255
130
0
255
130
0
255
130
0
255
130
0
255
130
0
255
130
0
255
130
0
170
85
0
53
53
53
85
255
255
85
255
255
85
255
255
53
53
53
113
69
57
170
85
0
170
85
0
170
85
0
170
85
0
170
85
0
170
85
0
170
85
0
170
85
0
170
85
0
170
85
0
170
85
0
170
85
0
255
130
0
255
130
0
255
130
0
255
130
0
255
130
0
170
85
0
53
53
53
85
255
255
85
255
255
85
255
255
53
53
53
113
69
57
170
85
0
170
85
0
113
69
57
65
65
32
170
85
0
170
85
0
170
85
0
170
85
0
113
69
57
113
85
57
170
85
0
170
85
0
170
85
0
170
85
0
255
130
0
170
85
0
170
85
0
170
85
0
53
53
53
85
255
255
85
255
255
85
255
255
53
53
53
65
65
32
170
85
0
113
69
57
65
57
32
65
57
32
65
57
32
170
85
0
170
85
0
170
85
0
65
57
32
113
69
57
170
85
0
170
85
0
170
85
0
170
85
0
255
130
0
170
85
0
170
85
0
65
65
32
53
53
53
85
255
255
85
255
255
85
255
255
53
53
53
65
65
32
170
85
0
65
65
32
65
65
32
113
97
57
113
69
57
170
85
0
65
65
32
170
85
0
65
57
32
65
57
32
170
85
0
65
57
32
170
85
0
170
85
0
170
85
0
170
85
0
170
85
0
65
65
32
53
53
53
85
255
255
85
255
255
85
255
255
53
53
53
65
65
32
65
65
32
65
65
32
113
97
57
113
113
57
170
85
0
170
85
0
113
97
57
170
85
0
113
97
57
113
97
57
65
65
32
65
65
32
170
85
0
170
85
0
170
85
0
255
85
85
65
65
32
65
65
32
53
53
53
85
255
255
85
255
255
85
255
255
53
53
53
65
65
32
65
65
32
113
97
57
255
130
130
170
85
0
255
85
85
255
85
85
113
113
81
255
85
85
255
85
85
113
113
57
113
97
57
65
65
32
170
85
0
170
85
0
170
85
0
255
190
130
255
85
85
65
65
32
53
53
53
85
255
255
85
255
255
53
53
53
255
158
130
65
65
32
113
97
57
255
130
130
255
158
130
255
85
85
255
158
130
255
190
130
255
190
130
255
158
130
255
158
130
255
85
85
113
97
57
65
65
32
170
85
0
170
85
0
255
202
186
255
190
130
255
190
130
65
65
32
255
158
130
53
53
53
85
255
255
53
53
53
113
113
57
65
65
32
113
113
57
255
158
130
69
69
69
53
53
53
69
69
69
113
113
57
255
190
130
255
190
130
255
190
130
255
85
85
113
97
57
170
85
0
65
65
32
53
53
53
53
53
53
255
202
186
255
190
130
65
65
32
113
113
57
53
53
53
85
255
255
53
53
53
113
97
57
65
65
32
255
130
130
69
69
69
113
113
57
113
0
0
32
32
32
32
32
32
32
32
32
255
130
130
255
158
130
113
97
57
32
32
32
32
32
32
32
32
32
32
32
32
69
69
69
69
69
69
255
190
130
113
113
57
113
97
57
53
53
53
85
255
255
53
53
53
113
69
57
255
85
85
255
190
130
255
158
130
255
130
130
0
0
170
0
0
170
255
130
130
170
0
0
113
85
57
113
97
57
113
85
57
113
0
0
170
0
0
255
85
85
255
85
85
170
0
0
170
170
170
255
223
186
255
190
130
113
69
57
53
53
53
85
255
255
53
53
53
113
113
57
255
130
130
255
202
186
255
202
186
255
190
130
255
85
255
255
0
255
255
85
255
255
158
130
255
85
85
113
97
57
113
113
57
255
0
255
255
0
255
170
0
170
255
0
255
255
85
85
255
130
130
255
223
186
255
190
130
113
113
57
53
53
53
85
255
255
85
255
255
53
53
53
255
130
130
255
202
186
255
202
186
255
223
186
255
202
186
255
202
186
255
202
186
255
190
130
255
158
130
255
190
130
255
202
186
255
202
186
255
202
186
170
170
170
170
170
170
255
223
186
255
223
186
239
239
239
255
130
130
53
53
53
85
255
255
85
255
255
85
255
255
53
53
53
255
85
85
255
190
130
255
202
186
255
223
186
255
223
186
255
223
186
255
223
186
255
158
130
255
190
130
255
223
186
255
223
186
255
158
130
255
202
186
255
223
186
255
223
186
239
239
239
239
239
239
255
223
186
255
0
0
53
53
53
85
255
255
85
255
255
85
255
255
85
255
255
113
113
57
255
190
130
255
190
130
255
202
186
255
202
186
255
202
186
255
202
186
255
85
85
255
190
130
255
190
130
255
190
130
255
85
85
255
190
130
255
202
186
255
223
186
255
223
186
255
223
186
255
202
186
255
130
130
85
255
255
85
255
255
85
255
255
85
255
255
85
255
255
113
85
57
255
85
85
255
190
130
255
190
130
255
190
130
255
190
130
255
158
130
255
158
130
113
113
81
113
113
81
113
113
81
255
158
130
255
158
130
255
190
130
255
202
186
255
202
186
255
202
186
255
202
186
255
130
130
85
255
255
85
255
255
85
255
255
85
255
255
85
255
255
32
32
32
113
113
57
255
85
85
255
158
130
255
158
130
255
158
130
255
158
130
255
158
130
255
0
0
113
97
57
255
0
0
255
158
130
255
158
130
255
158
130
255
190
130
255
202
186
255
202
186
255
190
130
113
113
81
85
255
255
85
255
255
85
255
255
85
255
255
85
255
255
32
32
32
113
97
57
113
113
57
113
113
57
113
113
57
113
113
57
65
57
32
113
97
57
170
0
0
113
69
57
170
0
0
113
97
57
65
57
32
255
158
130
255
85
85
255
158
130
255
190
130
255
190
130
113
97
57
85
255
255
85
255
255
85
255
255
85
255
255
85
255
255
53
53
53
113
69
57
113
97
57
113
113
57
255
130
130
170
0
0
255
0
0
255
190
130
255
190
130
255
85
85
113
0
0
255
0
0
255
0
0
255
85
85
255
158
130
255
190
130
255
190
130
255
190
130
113
97
57
85
255
255
85
255
255
85
255
255
85
255
255
85
255
255
53
53
53
113
69
57
65
65
32
113
97
57
255
158
130
113
0
0
170
0
0
113
113
57
113
113
57
113
97
57
113
113
57
113
113
57
113
0
0
255
158
130
255
158
130
255
130
130
255
85
85
255
202
186
113
97
57
85
255
255
85
255
255
85
255
255
85
255
255
85
255
255
53
53
53
113
69
57
65
49
32
65
65
32
113
97
57
113
113
57
255
85
85
255
190
130
255
190
130
255
85
85
255
190
130
255
190
130
255
0
0
255
130
130
113
113
57
113
97
57
255
202
186
255
223
186
53
53
53
85
255
255
85
255
255
85
255
255
85
255
255
85
255
255
53
53
53
113
69
57
65
49
32
65
49
32
65
65
32
113
97
57
113
97
57
113
97
57
113
97
57
65
49
32
113
69
57
113
85
57
113
85
57
113
85
57
113
97
57
113
113
57
255
190
130
255
223
186
53
53
53
85
255
255
85
255
255
85
255
255
85
255
255
85
255
255
53
53
53
113
69
57
65
65
32
113
85
57
65
49
32
65
49
32
65
49
32
65
49
32
65
57
32
113
97
57
65
57
32
65
49
32
65
65
32
65
65
32
255
158
130
113
113
81
255
158
130
255
158
130
85
255
255
85
255
255
85
255
255
85
255
255
85
255
255
85
255
255
85
255
255
113
69
57
65
65
32
113
69
57
113
85
57
113
97
57
113
97
57
255
85
85
113
113
57
255
85
85
255
85
85
255
85
85
113
113
81
255
190
130
255
190
130
255
202
186
113
113
81
255
158
130
85
255
255
85
255
255
85
255
255
85
255
255
85
255
255
85
255
255
85
255
255
113
69
57
113
69
57
113
85
57
113
97
57
255
85
85
255
130
130
255
190
130
255
130
130
255
202
186
255
223
186
255
158
130
255
85
85
255
158
130
255
202
186
255
158
130
255
158
130
113
113
81
85
255
255
85
255
255
85
255
255
85
255
255
85
255
255
85
255
255
85
255
255
113
69
57
113
69
57
113
97
57
113
97
57
113
97
57
255
158
130
255
190
130
255
158
130
255
158
130
255
202
186
255
190
130
255
158
130
255
85
85
113
97
57
255
158
130
113
113
81
113
97
57
85
255
255
85
255
255
85
255
255
85
255
255
85
255
255
85
255
255
85
255
255
85
255
255
85
255
255
85
255
255
85
255
255
85
255
255
85
255
255
85
255
255
85
255
255
85
255
255
85
255
255
85
255
255
85
255
255
85
255
255
85
255
255
85
255
255
85
255
255
85
255
255
85
255
255
85
255
255
85
255
255
85
255
255
85
255
255
85
255
255
85
255
255
85
255
255
85
255
255
85
255
255
85
255
255
85
255
255
85
255
255
85
255
255
85
255
255
85
255
255
85
255
255
85
255
255
85
255
255
85
255
255
85
255
255
85
255
255
85
255
255
85
255
255
85
255
255
85
255
255
85
255
255
85
255
255
85
255
255
85
255
255
85
255
255
85
255
255
85
255
255
85
255
255
85
255
255
85
255
255
85
255
255
85
255
255
85
255
255
85
255
255
85
255
255
85
255
255
85
255
255
85
255
255
85
255
255
85
255
255
85
255
255
85
255
255
85
255
255
85
255
255
85
255
255
85
255
255
85
255
255
85
255
255
85
255
255
85
255
255
53
53
53
53
53
53
53
53
53
53
53
53
53
53
53
53
53
53
53
53
53
53
53
53
53
53
53
53
53
53
53
53
53
53
53
53
53
53
53
85
255
255
85
255
255
85
255
255
85
255
255
85
255
255
85
255
255
85
255
255
85
255
255
85
255
255
85
255
255
53
53
53
255
130
0
255
130
0
255
130
0
255
130
0
255
130
0
255
130
0
255
130
0
255
130
0
255
130
0
255
130
0
255
130
0
255
130
0
255
130
0
255
130
0
255
130
0
53
53
53
85
255
255
85
255
255
85
255
255
85
255
255
85
255
255
85
255
255
53
53
53
170
85
0
255
130
0
255
130
0
255
130
0
255
130
0
255
130
0
255
130
0
255
130
0
255
130
0
255
130
0
255
130
0
255
130
0
255
130
0
255
130
0
255
130
0
255
130
0
255
130
0
53
53
53
85
255
255
85
255
255
85
255
255
85
255
255
85
255
255
170
85
0
170
85
0
255
130
0
255
130
0
255
130
0
255
130
0
255
130
0
255
130
0
255
130
0
255
130
0
255
130
0
255
130
0
255
130
0
255
130
0
255
130
0
255
130
0
255
130
0
255
130
0
255
130
0
85
255
255
85
255
255
85
255
255
85
255
255
53
53
53
170
85
0
170
85
0
255
130
0
255
130
0
255
130
0
255
130
0
255
130
0
255
130
0
255
130
0
255
130
0
255
130
0
255
130
0
255
130
0
255
130
0
255
130
0
255
130
0
255
130
0
255
130
0
255
130
0
53
53
53
85
255
255
85
255
255
85
255
255
53
53
53
170
85
0
170
85
0
255
130
0
255
130
0
255
130
0
255
130
0
255
130
0
255
130
0
255
130
0
255
130
0
255
130
0
255
130
0
255
130
0
255
130
0
255
130
0
255
130
0
255
130
0
255
130
0
255
130
0
53
53
53
85
255
255
85
255
255
85
255
255
53
53
53
113
85
57
170
85
0
170
85
0
255
130
0
255
130
0
255
130
0
255
130
0
255
130
0
255
130
0
255
130
0
255
130
0
255
130
0
255
130
0
255
130
0
255
130
0
255
130
0
255
130
0
255
130
0
255
130
0
53
53
53
85
255
255
85
255
255
85
255
255
53
53
53
113
85
57
170
85
0
170
85
0
170
85
0
255
130
0
255
130
0
255
130
0
255
130
0
255
130
0
255
130
0
255
130
0
255
130
0
255
130
0
255
130
0
255
130
0
255
130
0
255
130
0
255
130
0
113
85
57
53
53
53
85
255
255
85
255
255
85
255
255
53
53
53
113
85
57
170
85
0
170
85
0
170
85
0
170
85
0
255
130
0
255
130
0
255
130
0
255
130
0
255
130
0
255
130
0
255
130
0
255
130
0
255
130
0
255
130
0
255
130
0
255
130
0
255
130
0
113
85
57
53
53
53
85
255
255
85
255
255
85
255
255
53
53
53
113
85
57
170
85
0
170
85
0
170
85
0
170
85
0
170
85
0
170
85
0
170
85
0
170
85
0
170
85
0
170
85
0
170
85
0
170
85
0
255
130
0
170
85
0
255
130
0
255
130
0
170
85
0
113
85
57
53
53
53
85
255
255
85
255
255
85
255
255
113
69
57
113
69
57
170
85
0
113
69
57
65
65
32
113
85
57
170
85
0
170
85
0
170
85
0
170
85
0
170
85
0
170
85
0
170
85
0
170
85
0
255
130
0
170
85
0
255
130
0
255
130
0
113
69
57
113
85
57
113
97
57
85
255
255
85
255
255
53
53
53
255
85
85
113
69
57
170
85
0
65
65
32
65
49
32
65
65
32
170
85
0
65
49
32
170
85
0
170
85
0
65
49
32
65
65
32
170
85
0
170
85
0
255
130
0
170
85
0
255
130
0
255
130
0
65
65
32
113
85
57
255
85
85
53
53
53
85
255
255
53
53
53
255
190
130
113
69
57
170
85
0
65
49
32
113
85
57
113
97
57
170
85
0
65
65
32
65
49
32
170
85
0
113
85
57
65
65
32
65
49
32
170
85
0
170
85
0
170
85
0
170
85
0
255
130
0
113
97
57
113
69
57
255
190
130
53
53
53
85
255
255
53
53
53
255
85
85
65
65
32
65
49
32
113
97
57
113
97
57
170
85
0
255
130
130
113
97
57
113
97
57
170
85
0
113
85
57
113
85
57
65
57
32
170
85
0
170
85
0
170
85
0
255
130
0
113
97
57
255
85
85
113
69
57
255
85
85
53
53
53
85
255
255
53
53
53
65
49
32
65
65
32
113
97
57
255
85
85
255
85
85
255
130
130
255
158
130
255
130
130
113
97
57
170
85
0
113
113
81
113
97
57
170
85
0
65
57
32
170
85
0
113
97
57
170
85
0
255
130
130
255
190
130
65
57
32
113
69
57
53
53
53
85
255
255
53
53
53
113
113
81
65
65
32
113
97
57
113
97
57
53
53
53
53
53
53
69
69
69
255
158
130
255
158
130
255
158
130
255
158
130
113
97
57
65
57
32
170
85
0
170
85
0
53
53
53
170
85
0
255
190
130
255
202
186
65
57
32
113
113
81
53
53
53
85
255
255
85
255
255
53
53
53
255
130
130
255
158
130
53
53
53
113
97
57
170
0
0
32
32
32
32
32
32
32
32
32
113
97
57
113
97
57
65
57
32
170
85
0
32
32
32
32
32
32
32
32
32
69
69
69
53
53
53
255
190
130
255
190
130
53
53
53
85
255
255
85
255
255
85
255
255
53
53
53
255
130
130
255
158
130
255
158
130
255
0
0
255
0
0
170
0
0
113
0
0
65
0
0
113
69
57
113
69
57
113
69
57
32
32
32
113
0
0
170
0
0
255
0
0
170
0
0
113
97
57
255
85
85
255
85
85
53
53
53
85
255
255
85
255
255
85
255
255
85
255
255
113
97
57
255
190
130
255
85
85
255
158
130
255
0
255
170
0
170
113
0
113
255
158
130
255
85
85
255
130
130
255
130
130
113
0
113
255
0
255
170
0
170
170
0
170
255
0
0
255
0
0
255
130
158
255
0
0
53
53
53
85
255
255
85
255
255
85
255
255
85
255
255
113
97
57
255
158
130
255
190
130
255
190
130
255
190
130
255
190
130
255
190
130
255
85
85
255
130
130
255
158
130
255
158
130
255
190
130
113
97
57
255
190
130
255
190
130
255
190
130
255
130
158
255
85
85
170
0
0
85
255
255
85
255
255
85
255
255
85
255
255
85
255
255
32
32
32
255
85
85
255
190
130
255
190
130
255
190
130
255
190
130
255
158
130
113
97
57
255
85
85
255
158
130
255
190
130
255
85
85
255
158
130
255
190
130
255
190
130
255
190
130
255
190
130
255
190
130
32
32
32
85
255
255
85
255
255
85
255
255
85
255
255
85
255
255
32
32
32
113
85
57
255
85
85
255
158
130
255
158
130
113
97
57
65
57
32
255
85
85
170
0
0
113
97
57
170
0
0
255
85
85
65
57
32
113
97
57
255
158
130
255
158
130
255
158
130
255
0
0
32
32
32
85
255
255
85
255
255
85
255
255
85
255
255
85
255
255
32
32
32
65
65
32
113
85
57
113
97
57
113
113
57
170
0
0
255
0
0
113
85
57
113
69
57
65
0
0
65
0
0
65
0
0
255
0
0
255
0
0
255
130
130
255
130
130
255
130
130
255
190
130
32
32
32
85
255
255
85
255
255
85
255
255
85
255
255
85
255
255
53
53
53
65
65
32
65
40
32
65
57
32
113
85
57
113
0
0
170
0
0
113
97
57
255
130
130
255
0
0
170
0
0
170
0
0
170
0
0
255
0
0
113
113
81
113
97
57
113
97
57
255
202
186
53
53
53
85
255
255
85
255
255
85
255
255
85
255
255
85
255
255
53
53
53
65
65
32
65
40
32
65
40
32
113
69
57
113
97
57
113
0
0
113
0
0
113
97
57
113
69
57
113
97
57
113
0
0
113
0
0
170
0
0
113
97
57
65
65
32
255
190
130
255
202
186
53
53
53
85
255
255
85
255
255
85
255
255
85
255
255
85
255
255
53
53
53
65
65
32
65
49
32
65
49
32
65
40
32
113
69
57
113
69
57
113
69
57
113
69
57
65
65
32
113
69
57
113
69
57
113
69
57
113
69
57
65
65
32
255
85
85
255
190
130
255
202
186
53
53
53
85
255
255
85
255
255
85
255
255
85
255
255
85
255
255
85
255
255
65
65
32
65
57
32
65
65
32
65
57
32
65
49
32
65
57
32
65
57
32
65
57
32
113
97
57
65
57
32
65
57
32
65
57
32
65
65
32
113
97
57
255
85
85
255
130
130
113
97
57
85
255
255
85
255
255
85
255
255
85
255
255
85
255
255
85
255
255
85
255
255
65
65
32
65
65
32
113
85
57
113
97
57
113
85
57
113
85
57
113
97
57
255
85
85
255
85
85
255
158
130
255
190
130
255
85
85
113
69
57
65
65
32
113
97
57
113
97
57
113
85
57
85
255
255
85
255
255
85
255
255
