P3
# CREATOR: GIMP PNM Filter Version 1.1
5 234
255
0
0
0
0
170
170
0
170
170
0
170
170
0
0
0
0
170
170
0
170
170
0
0
0
0
170
170
0
170
170
0
170
170
0
0
0
0
0
0
0
0
0
0
170
170
0
170
170
0
170
170
0
170
170
0
170
170
0
170
170
0
170
170
0
0
0
0
0
0
0
0
0
0
170
170
0
170
170
0
0
0
0
0
0
0
0
0
0
170
170
0
170
170
0
170
170
0
170
170
0
170
170
0
0
0
0
170
170
0
0
0
0
0
0
0
0
0
0
170
170
0
170
170
0
170
170
0
170
170
0
170
170
0
0
0
0
170
170
0
0
0
0
0
0
0
0
0
0
170
170
0
170
170
0
0
0
0
0
0
0
0
0
0
170
170
0
170
170
0
170
170
0
170
170
0
170
170
0
0
0
0
0
0
0
170
170
0
170
170
0
170
170
0
0
0
0
170
170
0
0
0
0
0
0
0
0
0
0
170
170
0
170
170
0
0
0
0
0
0
0
0
0
0
0
0
0
170
170
0
0
0
0
0
0
0
0
0
0
0
0
0
170
170
0
0
0
0
0
0
0
0
0
0
170
170
0
0
0
0
170
170
0
170
170
0
170
170
0
0
0
0
170
170
0
170
170
0
170
170
0
170
170
0
0
0
0
170
170
0
0
0
0
0
0
0
0
0
0
170
170
0
170
170
0
0
0
0
0
0
0
0
0
0
170
170
0
170
170
0
0
0
0
0
0
0
0
0
0
170
170
0
170
170
0
0
0
0
0
0
0
0
0
0
170
170
0
170
170
0
170
170
0
170
170
0
170
170
0
0
0
0
170
170
0
170
170
0
170
170
0
170
170
0
170
170
0
170
170
0
0
0
0
0
0
0
0
0
0
0
0
0
170
170
0
170
170
0
170
170
0
0
0
0
0
0
0
170
170
0
0
0
0
0
0
0
0
0
0
0
0
0
170
170
0
0
0
0
0
0
0
0
0
0
0
0
0
170
170
0
170
170
0
170
170
0
170
170
0
170
170
0
170
170
0
170
170
0
170
170
0
170
170
0
170
170
0
170
170
0
0
0
0
0
0
0
0
0
0
0
0
0
170
170
0
170
170
0
170
170
0
0
0
0
0
0
0
170
170
0
0
0
0
0
0
0
0
0
0
0
0
0
170
170
0
0
0
0
0
0
0
0
0
0
0
0
0
170
170
0
0
0
0
0
0
0
0
0
0
0
0
0
0
0
0
170
170
0
170
170
0
170
170
0
0
0
0
170
170
0
0
0
0
0
0
0
0
0
0
170
170
0
170
170
0
0
0
0
0
0
0
0
0
0
0
0
0
170
170
0
0
0
0
170
170
0
170
170
0
0
0
0
170
170
0
0
0
0
0
0
0
0
0
0
170
170
0
0
0
0
170
170
0
170
170
0
170
170
0
0
0
0
170
170
0
0
0
0
0
0
0
0
0
0
170
170
0
170
170
0
0
0
0
0
0
0
0
0
0
170
170
0
170
170
0
170
170
0
170
170
0
170
170
0
170
170
0
170
170
0
0
0
0
0
0
0
0
0
0
170
170
0
170
170
0
0
0
0
0
0
0
0
0
0
170
170
0
170
170
0
0
0
0
0
0
0
0
0
0
170
170
0
170
170
0
0
0
0
0
0
0
0
0
0
0
0
0
170
170
0
0
0
0
0
0
0
0
0
0
0
0
0
170
170
0
0
0
0
0
0
0
0
0
0
0
0
0
170
170
0
0
0
0
0
0
0
0
0
0
0
0
0
170
170
0
0
0
0
0
0
0
0
0
0
0
0
0
170
170
0
0
0
0
0
0
0
0
0
0
0
0
0
0
0
0
0
0
0
0
0
0
170
170
0
0
0
0
0
0
0
0
0
0
0
0
0
170
170
0
0
0
0
0
0
0
0
0
0
0
0
0
170
170
0
0
0
0
0
0
0
0
0
0
0
0
0
170
170
0
0
0
0
170
170
0
0
0
0
0
0
0
170
170
0
0
0
0
0
0
0
170
170
0
170
170
0
0
0
0
0
0
0
170
170
0
0
0
0
0
0
0
170
170
0
170
170
0
170
170
0
0
0
0
170
170
0
170
170
0
0
0
0
170
170
0
170
170
0
170
170
0
0
0
0
0
0
0
170
170
0
170
170
0
170
170
0
0
0
0
0
0
0
170
170
0
0
0
0
170
170
0
170
170
0
0
0
0
170
170
0
0
0
0
0
0
0
170
170
0
170
170
0
170
170
0
0
0
0
0
0
0
0
0
0
0
0
0
170
170
0
0
0
0
0
0
0
0
0
0
0
0
0
170
170
0
0
0
0
0
0
0
0
0
0
0
0
0
170
170
0
0
0
0
0
0
0
0
0
0
0
0
0
170
170
0
0
0
0
0
0
0
0
0
0
0
0
0
170
170
0
170
170
0
170
170
0
170
170
0
170
170
0
170
170
0
0
0
0
0
0
0
0
0
0
170
170
0
170
170
0
170
170
0
0
0
0
170
170
0
170
170
0
170
170
0
0
0
0
170
170
0
0
0
0
170
170
0
170
170
0
0
0
0
170
170
0
0
0
0
170
170
0
170
170
0
0
0
0
0
0
0
0
0
0
170
170
0
170
170
0
0
0
0
0
0
0
0
0
0
170
170
0
170
170
0
0
0
0
0
0
0
0
0
0
170
170
0
170
170
0
170
170
0
0
0
0
0
0
0
170
170
0
170
170
0
0
0
0
170
170
0
0
0
0
170
170
0
170
170
0
0
0
0
170
170
0
0
0
0
170
170
0
170
170
0
0
0
0
0
0
0
170
170
0
170
170
0
170
170
0
0
0
0
0
0
0
0
0
0
170
170
0
0
0
0
170
170
0
170
170
0
170
170
0
0
0
0
170
170
0
0
0
0
0
0
0
0
0
0
170
170
0
170
170
0
0
0
0
0
0
0
0
0
0
170
170
0
170
170
0
0
0
0
0
0
0
0
0
0
170
170
0
170
170
0
0
0
0
0
0
0
0
0
0
170
170
0
0
0
0
170
170
0
170
170
0
170
170
0
0
0
0
170
170
0
170
170
0
170
170
0
170
170
0
0
0
0
170
170
0
0
0
0
0
0
0
0
0
0
170
170
0
170
170
0
0
0
0
0
0
0
0
0
0
170
170
0
170
170
0
170
170
0
170
170
0
170
170
0
0
0
0
170
170
0
0
0
0
0
0
0
0
0
0
0
0
0
170
170
0
0
0
0
0
0
0
0
0
0
0
0
0
0
0
0
170
170
0
170
170
0
170
170
0
0
0
0
170
170
0
0
0
0
0
0
0
0
0
0
170
170
0
170
170
0
0
0
0
0
0
0
0
0
0
170
170
0
170
170
0
0
0
0
170
170
0
0
0
0
170
170
0
170
170
0
0
0
0
0
0
0
170
170
0
170
170
0
0
0
0
170
170
0
170
170
0
170
170
0
0
0
0
170
170
0
170
170
0
170
170
0
170
170
0
0
0
0
170
170
0
0
0
0
0
0
0
0
0
0
170
170
0
170
170
0
170
170
0
170
170
0
170
170
0
0
0
0
170
170
0
170
170
0
0
0
0
0
0
0
0
0
0
170
170
0
0
0
0
170
170
0
0
0
0
0
0
0
170
170
0
0
0
0
0
0
0
170
170
0
170
170
0
0
0
0
170
170
0
170
170
0
170
170
0
0
0
0
170
170
0
0
0
0
0
0
0
0
0
0
170
170
0
170
170
0
170
170
0
170
170
0
0
0
0
0
0
0
0
0
0
0
0
0
170
170
0
170
170
0
170
170
0
170
170
0
0
0
0
0
0
0
0
0
0
170
170
0
0
0
0
170
170
0
170
170
0
170
170
0
0
0
0
170
170
0
170
170
0
170
170
0
170
170
0
170
170
0
0
0
0
0
0
0
170
170
0
0
0
0
0
0
0
0
0
0
0
0
0
170
170
0
0
0
0
0
0
0
0
0
0
0
0
0
170
170
0
0
0
0
0
0
0
0
0
0
0
0
0
170
170
0
0
0
0
0
0
0
0
0
0
0
0
0
170
170
0
0
0
0
0
0
0
170
170
0
0
0
0
0
0
0
0
0
0
170
170
0
170
170
0
0
0
0
0
0
0
0
0
0
170
170
0
170
170
0
0
0
0
0
0
0
0
0
0
170
170
0
170
170
0
0
0
0
0
0
0
0
0
0
170
170
0
170
170
0
0
0
0
0
0
0
0
0
0
170
170
0
0
0
0
170
170
0
170
170
0
170
170
0
0
0
0
170
170
0
0
0
0
0
0
0
0
0
0
170
170
0
170
170
0
0
0
0
0
0
0
0
0
0
170
170
0
0
0
0
170
170
0
0
0
0
170
170
0
0
0
0
0
0
0
170
170
0
0
0
0
170
170
0
0
0
0
0
0
0
0
0
0
170
170
0
0
0
0
0
0
0
0
0
0
0
0
0
170
170
0
0
0
0
0
0
0
170
170
0
0
0
0
170
170
0
0
0
0
170
170
0
170
170
0
0
0
0
170
170
0
0
0
0
170
170
0
170
170
0
0
0
0
170
170
0
0
0
0
170
170
0
0
0
0
170
170
0
0
0
0
170
170
0
0
0
0
0
0
0
170
170
0
0
0
0
170
170
0
0
0
0
0
0
0
170
170
0
0
0
0
170
170
0
0
0
0
170
170
0
0
0
0
0
0
0
0
0
0
170
170
0
0
0
0
170
170
0
0
0
0
170
170
0
0
0
0
0
0
0
0
0
0
170
170
0
0
0
0
0
0
0
0
0
0
0
0
0
170
170
0
0
0
0
0
0
0
0
0
0
170
170
0
0
0
0
170
170
0
0
0
0
170
170
0
0
0
0
0
0
0
0
0
0
170
170
0
170
170
0
0
0
0
0
0
0
0
0
0
170
170
0
0
0
0
170
170
0
0
0
0
170
170
0
0
0
0
0
0
0
0
0
0
170
170
0
0
0
0
0
0
0
0
0
0
0
0
0
170
170
0
0
0
0
0
0
0
0
0
0
0
0
0
170
170
0
0
0
0
0
0
0
0
0
0
0
0
0
170
170
0
0
0
0
0
0
0
170
170
0
170
170
0
170
170
0
170
170
0
170
170
0
0
0
0
0
0
0
0
0
0
170
170
0
0
0
0
0
0
0
0
0
0
170
170
0
0
0
0
0
0
0
0
0
0
0
0
0
170
170
0
0
0
0
0
0
0
0
0
0
170
170
0
0
0
0
0
0
0
0
0
0
170
170
0
170
170
0
170
170
0
170
170
0
170
170
0
0
0
0
170
170
0
170
170
0
170
170
0
0
0
0
170
170
0
0
0
0
0
0
0
170
170
0
170
170
0
170
170
0
0
0
0
170
170
0
0
0
0
170
170
0
170
170
0
0
0
0
170
170
0
0
0
0
170
170
0
170
170
0
170
170
0
0
0
0
0
0
0
170
170
0
0
0
0
170
170
0
170
170
0
170
170
0
0
0
0
0
0
0
0
0
0
170
170
0
170
170
0
170
170
0
0
0
0
170
170
0
170
170
0
0
0
0
170
170
0
170
170
0
170
170
0
0
0
0
0
0
0
170
170
0
0
0
0
0
0
0
0
0
0
0
0
0
170
170
0
0
0
0
0
0
0
0
0
0
0
0
0
170
170
0
0
0
0
0
0
0
0
0
0
0
0
0
170
170
0
0
0
0
170
170
0
170
170
0
170
170
0
0
0
0
170
170
0
0
0
0
0
0
0
0
0
0
170
170
0
0
0
0
0
0
0
0
0
0
170
170
0
0
0
0
0
0
0
0
0
0
170
170
0
0
0
0
0
0
0
0
0
0
170
170
0
0
0
0
0
0
0
0
0
0
170
170
0
170
170
0
170
170
0
170
170
0
170
170
0
0
0
0
170
170
0
170
170
0
170
170
0
0
0
0
170
170
0
0
0
0
0
0
0
0
0
0
170
170
0
0
0
0
0
0
0
0
0
0
0
0
0
170
170
0
0
0
0
0
0
0
170
170
0
170
170
0
0
0
0
170
170
0
0
0
0
0
0
0
0
0
0
170
170
0
0
0
0
170
170
0
170
170
0
170
170
0
0
0
0
170
170
0
0
0
0
0
0
0
0
0
0
170
170
0
170
170
0
0
0
0
0
0
0
0
0
0
170
170
0
170
170
0
170
170
0
170
170
0
170
170
0
170
170
0
0
0
0
0
0
0
0
0
0
0
0
0
170
170
0
0
0
0
0
0
0
0
0
0
0
0
0
170
170
0
0
0
0
0
0
0
0
0
0
0
0
0
170
170
0
170
170
0
170
170
0
170
170
0
170
170
0
170
170
0
170
170
0
0
0
0
0
0
0
0
0
0
0
0
0
170
170
0
170
170
0
170
170
0
170
170
0
0
0
0
0
0
0
0
0
0
0
0
0
0
0
0
170
170
0
170
170
0
0
0
0
0
0
0
0
0
0
170
170
0
0
0
0
170
170
0
170
170
0
170
170
0
0
0
0
0
0
0
170
170
0
170
170
0
170
170
0
0
0
0
170
170
0
0
0
0
0
0
0
0
0
0
170
170
0
170
170
0
0
0
0
0
0
0
0
0
0
0
0
0
170
170
0
170
170
0
170
170
0
170
170
0
0
0
0
170
170
0
0
0
0
0
0
0
0
0
0
170
170
0
0
0
0
170
170
0
170
170
0
170
170
0
0
0
0
170
170
0
170
170
0
170
170
0
170
170
0
170
170
0
0
0
0
0
0
0
0
0
0
0
0
0
170
170
0
0
0
0
0
0
0
0
0
0
170
170
0
0
0
0
0
0
0
0
0
0
0
0
0
170
170
0
0
0
0
0
0
0
0
0
0
170
170
0
0
0
0
0
0
0
0
0
0
0
0
0
170
170
0
0
0
0
0
0
0
0
0
0
170
170
0
170
170
0
170
170
0
0
0
0
170
170
0
0
0
0
0
0
0
0
0
0
170
170
0
170
170
0
0
0
0
0
0
0
0
0
0
170
170
0
0
0
0
170
170
0
170
170
0
170
170
0
0
0
0
170
170
0
0
0
0
0
0
0
0
0
0
170
170
0
0
0
0
170
170
0
170
170
0
170
170
0
0
0
0
0
0
0
170
170
0
170
170
0
170
170
0
0
0
0
170
170
0
0
0
0
0
0
0
0
0
0
170
170
0
170
170
0
0
0
0
0
0
0
0
0
0
170
170
0
0
0
0
170
170
0
170
170
0
170
170
0
170
170
0
0
0
0
0
0
0
0
0
0
0
0
0
170
170
0
170
170
0
170
170
0
170
170
0
170
170
0
0
0
0
0
0
0
0
0
0
0
0
0
0
0
0
0
0
0
170
170
0
0
0
0
0
0
0
0
0
0
0
0
0
0
0
0
0
0
0
0
0
0
0
0
0
0
0
0
0
0
0
0
0
0
0
0
0
0
0
0
0
0
0
170
170
0
0
0
0
0
0
0
0
0
0
0
0
0
0
0
0
0
0
0
0
0
0
0
0
0
0
0
0
0
0
0
0
0
0
0
0
0
0
0
0
0
0
0
0
0
0
0
0
0
0
0
0
0
0
0
0
0
0
0
0
0
0
0
0
0
0
0
0
0
0
0
0
0
0
0
0
0
0
0
0
0
0
0
0
0
0
0
0
0
0
0
0
0
0
0
0
0
0
0
0
0
0
0
0
0
0
0
0
0
0
0
0
0
0
0
0
0
0
0
0
0
0
0
0
0
0
0
0
0
0
0
0
0
0
0
0
0
0
0
0
0
0
0
0
0
0
0
0
0
0
0
0
0
0
0
0
0
0
0
0
0
0
0
0
0
0
0
0
0
0
0
0
0
0
0
0
0
0
0
0
0
0
0
0
0
0
0
0
0
0
0
0
0
170
170
0
0
0
0
0
0
0
0
0
0
0
0
