P3
# CREATOR: GIMP PNM Filter Version 1.1
5 216
255
0
255
255
0
170
170
0
170
170
0
170
170
0
255
255
0
170
170
0
170
170
0
255
255
0
170
170
0
170
170
0
170
170
0
255
255
0
255
255
0
255
255
0
170
170
0
170
170
0
170
170
0
170
170
0
170
170
0
170
170
0
170
170
0
255
255
0
255
255
0
255
255
0
170
170
0
170
170
0
255
255
0
255
255
0
255
255
0
170
170
0
170
170
0
170
170
0
170
170
0
170
170
0
255
255
0
170
170
0
255
255
0
255
255
0
255
255
0
170
170
0
170
170
0
170
170
0
170
170
0
170
170
0
255
255
0
170
170
0
255
255
0
255
255
0
255
255
0
170
170
0
170
170
0
255
255
0
255
255
0
255
255
0
170
170
0
170
170
0
170
170
0
170
170
0
170
170
0
255
255
0
255
255
0
170
170
0
170
170
0
170
170
0
255
255
0
170
170
0
255
255
0
255
255
0
255
255
0
170
170
0
170
170
0
255
255
0
255
255
0
255
255
0
255
255
0
170
170
0
255
255
0
255
255
0
255
255
0
255
255
0
170
170
0
255
255
0
255
255
0
255
255
0
170
170
0
255
255
0
170
170
0
170
170
0
170
170
0
255
255
0
170
170
0
170
170
0
170
170
0
170
170
0
255
255
0
170
170
0
255
255
0
255
255
0
255
255
0
170
170
0
170
170
0
255
255
0
255
255
0
255
255
0
170
170
0
170
170
0
255
255
0
255
255
0
255
255
0
170
170
0
170
170
0
255
255
0
255
255
0
255
255
0
170
170
0
170
170
0
170
170
0
170
170
0
170
170
0
255
255
0
170
170
0
170
170
0
170
170
0
170
170
0
170
170
0
170
170
0
255
255
0
255
255
0
255
255
0
255
255
0
170
170
0
170
170
0
170
170
0
255
255
0
255
255
0
170
170
0
255
255
0
255
255
0
255
255
0
255
255
0
170
170
0
255
255
0
255
255
0
255
255
0
255
255
0
170
170
0
170
170
0
170
170
0
170
170
0
170
170
0
170
170
0
170
170
0
170
170
0
170
170
0
170
170
0
170
170
0
255
255
0
255
255
0
255
255
0
255
255
0
170
170
0
170
170
0
170
170
0
255
255
0
255
255
0
170
170
0
255
255
0
255
255
0
255
255
0
255
255
0
170
170
0
255
255
0
255
255
0
255
255
0
255
255
0
170
170
0
255
255
0
255
255
0
255
255
0
255
255
0
255
255
0
170
170
0
170
170
0
170
170
0
255
255
0
170
170
0
255
255
0
255
255
0
255
255
0
170
170
0
170
170
0
255
255
0
255
255
0
255
255
0
255
255
0
170
170
0
255
255
0
170
170
0
170
170
0
255
255
0
170
170
0
255
255
0
255
255
0
255
255
0
170
170
0
255
255
0
170
170
0
170
170
0
170
170
0
255
255
0
170
170
0
255
255
0
255
255
0
255
255
0
170
170
0
170
170
0
255
255
0
255
255
0
255
255
0
170
170
0
170
170
0
170
170
0
170
170
0
170
170
0
170
170
0
170
170
0
255
255
0
255
255
0
255
255
0
170
170
0
170
170
0
255
255
0
255
255
0
255
255
0
170
170
0
170
170
0
255
255
0
255
255
0
255
255
0
170
170
0
170
170
0
255
255
0
255
255
0
255
255
0
255
255
0
170
170
0
255
255
0
255
255
0
255
255
0
255
255
0
170
170
0
255
255
0
255
255
0
255
255
0
255
255
0
170
170
0
255
255
0
255
255
0
255
255
0
255
255
0
170
170
0
255
255
0
255
255
0
255
255
0
255
255
0
170
170
0
255
255
0
255
255
0
255
255
0
255
255
0
255
255
0
255
255
0
255
255
0
170
170
0
255
255
0
255
255
0
255
255
0
255
255
0
170
170
0
255
255
0
255
255
0
255
255
0
255
255
0
170
170
0
255
255
0
255
255
0
255
255
0
255
255
0
170
170
0
255
255
0
170
170
0
255
255
0
255
255
0
170
170
0
255
255
0
255
255
0
170
170
0
170
170
0
255
255
0
255
255
0
170
170
0
255
255
0
255
255
0
170
170
0
170
170
0
170
170
0
255
255
0
170
170
0
170
170
0
255
255
0
170
170
0
170
170
0
170
170
0
255
255
0
255
255
0
170
170
0
170
170
0
170
170
0
255
255
0
255
255
0
170
170
0
255
255
0
170
170
0
170
170
0
255
255
0
170
170
0
255
255
0
255
255
0
170
170
0
170
170
0
170
170
0
255
255
0
255
255
0
255
255
0
255
255
0
170
170
0
255
255
0
255
255
0
255
255
0
255
255
0
170
170
0
255
255
0
255
255
0
255
255
0
255
255
0
170
170
0
255
255
0
255
255
0
255
255
0
255
255
0
170
170
0
255
255
0
255
255
0
255
255
0
255
255
0
170
170
0
170
170
0
170
170
0
170
170
0
170
170
0
170
170
0
255
255
0
255
255
0
255
255
0
170
170
0
170
170
0
170
170
0
255
255
0
170
170
0
170
170
0
170
170
0
255
255
0
170
170
0
255
255
0
170
170
0
170
170
0
255
255
0
170
170
0
255
255
0
170
170
0
170
170
0
255
255
0
255
255
0
255
255
0
170
170
0
170
170
0
255
255
0
255
255
0
255
255
0
170
170
0
170
170
0
255
255
0
255
255
0
255
255
0
170
170
0
170
170
0
170
170
0
255
255
0
255
255
0
170
170
0
170
170
0
255
255
0
170
170
0
255
255
0
170
170
0
170
170
0
255
255
0
170
170
0
255
255
0
170
170
0
170
170
0
255
255
0
255
255
0
170
170
0
170
170
0
170
170
0
255
255
0
255
255
0
255
255
0
170
170
0
255
255
0
170
170
0
170
170
0
170
170
0
255
255
0
170
170
0
255
255
0
255
255
0
255
255
0
170
170
0
170
170
0
255
255
0
255
255
0
255
255
0
170
170
0
170
170
0
255
255
0
255
255
0
255
255
0
170
170
0
170
170
0
255
255
0
255
255
0
255
255
0
170
170
0
255
255
0
170
170
0
170
170
0
170
170
0
255
255
0
170
170
0
170
170
0
170
170
0
170
170
0
255
255
0
170
170
0
255
255
0
255
255
0
255
255
0
170
170
0
170
170
0
255
255
0
255
255
0
255
255
0
170
170
0
170
170
0
170
170
0
170
170
0
170
170
0
255
255
0
170
170
0
255
255
0
255
255
0
255
255
0
255
255
0
170
170
0
255
255
0
255
255
0
255
255
0
255
255
0
255
255
0
170
170
0
170
170
0
170
170
0
255
255
0
170
170
0
255
255
0
255
255
0
255
255
0
170
170
0
170
170
0
255
255
0
255
255
0
255
255
0
170
170
0
170
170
0
255
255
0
170
170
0
255
255
0
170
170
0
170
170
0
255
255
0
255
255
0
170
170
0
170
170
0
255
255
0
170
170
0
170
170
0
170
170
0
255
255
0
170
170
0
170
170
0
170
170
0
170
170
0
255
255
0
170
170
0
255
255
0
255
255
0
255
255
0
170
170
0
170
170
0
170
170
0
170
170
0
170
170
0
255
255
0
170
170
0
170
170
0
255
255
0
255
255
0
255
255
0
170
170
0
255
255
0
170
170
0
255
255
0
255
255
0
170
170
0
255
255
0
255
255
0
170
170
0
170
170
0
255
255
0
170
170
0
170
170
0
170
170
0
255
255
0
170
170
0
255
255
0
255
255
0
255
255
0
170
170
0
170
170
0
170
170
0
170
170
0
255
255
0
255
255
0
255
255
0
255
255
0
170
170
0
170
170
0
170
170
0
170
170
0
255
255
0
255
255
0
255
255
0
170
170
0
255
255
0
170
170
0
170
170
0
170
170
0
255
255
0
170
170
0
170
170
0
170
170
0
170
170
0
170
170
0
255
255
0
255
255
0
170
170
0
255
255
0
255
255
0
255
255
0
255
255
0
170
170
0
255
255
0
255
255
0
255
255
0
255
255
0
170
170
0
255
255
0
255
255
0
255
255
0
255
255
0
170
170
0
255
255
0
255
255
0
255
255
0
255
255
0
170
170
0
255
255
0
255
255
0
170
170
0
255
255
0
255
255
0
255
255
0
170
170
0
170
170
0
255
255
0
255
255
0
255
255
0
170
170
0
170
170
0
255
255
0
255
255
0
255
255
0
170
170
0
170
170
0
255
255
0
255
255
0
255
255
0
170
170
0
170
170
0
255
255
0
255
255
0
255
255
0
170
170
0
255
255
0
170
170
0
170
170
0
170
170
0
255
255
0
170
170
0
255
255
0
255
255
0
255
255
0
170
170
0
170
170
0
255
255
0
255
255
0
255
255
0
170
170
0
255
255
0
170
170
0
255
255
0
170
170
0
255
255
0
255
255
0
170
170
0
255
255
0
170
170
0
255
255
0
255
255
0
255
255
0
170
170
0
255
255
0
255
255
0
255
255
0
255
255
0
170
170
0
255
255
0
255
255
0
170
170
0
255
255
0
170
170
0
255
255
0
170
170
0
170
170
0
255
255
0
170
170
0
255
255
0
170
170
0
170
170
0
255
255
0
170
170
0
255
255
0
170
170
0
255
255
0
170
170
0
255
255
0
170
170
0
255
255
0
255
255
0
170
170
0
255
255
0
170
170
0
255
255
0
255
255
0
170
170
0
255
255
0
170
170
0
255
255
0
170
170
0
255
255
0
255
255
0
255
255
0
170
170
0
255
255
0
170
170
0
255
255
0
170
170
0
255
255
0
255
255
0
255
255
0
170
170
0
255
255
0
255
255
0
255
255
0
255
255
0
170
170
0
255
255
0
255
255
0
255
255
0
170
170
0
255
255
0
170
170
0
255
255
0
170
170
0
255
255
0
255
255
0
255
255
0
170
170
0
170
170
0
255
255
0
255
255
0
255
255
0
170
170
0
255
255
0
170
170
0
255
255
0
170
170
0
255
255
0
255
255
0
255
255
0
170
170
0
255
255
0
255
255
0
255
255
0
255
255
0
170
170
0
255
255
0
255
255
0
255
255
0
255
255
0
170
170
0
255
255
0
255
255
0
255
255
0
255
255
0
170
170
0
255
255
0
255
255
0
170
170
0
170
170
0
170
170
0
170
170
0
170
170
0
255
255
0
255
255
0
255
255
0
170
170
0
255
255
0
255
255
0
255
255
0
170
170
0
255
255
0
255
255
0
255
255
0
255
255
0
170
170
0
255
255
0
255
255
0
255
255
0
170
170
0
255
255
0
255
255
0
255
255
0
170
170
0
170
170
0
170
170
0
170
170
0
170
170
0
255
255
0
170
170
0
170
170
0
170
170
0
255
255
0
170
170
0
255
255
0
255
255
0
170
170
0
170
170
0
170
170
0
255
255
0
170
170
0
255
255
0
170
170
0
170
170
0
255
255
0
170
170
0
255
255
0
170
170
0
170
170
0
170
170
0
255
255
0
255
255
0
170
170
0
255
255
0
170
170
0
170
170
0
170
170
0
255
255
0
255
255
0
255
255
0
170
170
0
170
170
0
170
170
0
255
255
0
170
170
0
170
170
0
255
255
0
170
170
0
170
170
0
170
170
0
255
255
0
255
255
0
170
170
0
255
255
0
255
255
0
255
255
0
255
255
0
170
170
0
255
255
0
255
255
0
255
255
0
255
255
0
170
170
0
255
255
0
255
255
0
255
255
0
255
255
0
170
170
0
255
255
0
170
170
0
170
170
0
170
170
0
255
255
0
170
170
0
255
255
0
255
255
0
255
255
0
170
170
0
255
255
0
255
255
0
255
255
0
170
170
0
255
255
0
255
255
0
255
255
0
170
170
0
255
255
0
255
255
0
255
255
0
170
170
0
255
255
0
255
255
0
255
255
0
170
170
0
170
170
0
170
170
0
170
170
0
170
170
0
255
255
0
170
170
0
170
170
0
170
170
0
255
255
0
170
170
0
255
255
0
255
255
0
255
255
0
170
170
0
255
255
0
255
255
0
255
255
0
255
255
0
170
170
0
255
255
0
255
255
0
170
170
0
170
170
0
255
255
0
170
170
0
255
255
0
255
255
0
255
255
0
170
170
0
255
255
0
170
170
0
170
170
0
170
170
0
255
255
0
170
170
0
255
255
0
255
255
0
255
255
0
170
170
0
170
170
0
255
255
0
255
255
0
255
255
0
170
170
0
170
170
0
170
170
0
170
170
0
170
170
0
170
170
0
255
255
0
255
255
0
255
255
0
255
255
0
170
170
0
255
255
0
255
255
0
255
255
0
255
255
0
170
170
0
255
255
0
255
255
0
255
255
0
255
255
0
170
170
0
170
170
0
170
170
0
170
170
0
170
170
0
170
170
0
170
170
0
255
255
0
255
255
0
255
255
0
255
255
0
170
170
0
170
170
0
170
170
0
170
170
0
255
255
0
255
255
0
255
255
0
255
255
0
255
255
0
170
170
0
170
170
0
255
255
0
255
255
0
255
255
0
170
170
0
255
255
0
170
170
0
170
170
0
170
170
0
255
255
0
255
255
0
170
170
0
170
170
0
170
170
0
255
255
0
170
170
0
255
255
0
255
255
0
255
255
0
170
170
0
170
170
0
255
255
0
255
255
0
255
255
0
255
255
0
170
170
0
170
170
0
170
170
0
170
170
0
255
255
0
170
170
0
255
255
0
255
255
0
255
255
0
170
170
0
255
255
0
170
170
0
170
170
0
170
170
0
255
255
0
170
170
0
170
170
0
170
170
0
170
170
0
170
170
0
255
255
0
255
255
0
255
255
0
255
255
0
170
170
0
255
255
0
255
255
0
255
255
0
170
170
0
255
255
0
255
255
0
255
255
0
255
255
0
170
170
0
255
255
0
255
255
0
255
255
0
170
170
0
255
255
0
255
255
0
255
255
0
255
255
0
170
170
0
255
255
0
255
255
0
255
255
0
170
170
0
170
170
0
170
170
0
255
255
0
170
170
0
255
255
0
255
255
0
255
255
0
170
170
0
170
170
0
255
255
0
255
255
0
255
255
0
170
170
0
255
255
0
170
170
0
170
170
0
170
170
0
255
255
0
170
170
0
255
255
0
255
255
0
255
255
0
170
170
0
255
255
0
170
170
0
170
170
0
170
170
0
255
255
0
255
255
0
170
170
0
170
170
0
170
170
0
255
255
0
170
170
0
255
255
0
255
255
0
255
255
0
170
170
0
170
170
0
255
255
0
255
255
0
255
255
0
170
170
0
255
255
0
170
170
0
170
170
0
170
170
0
170
170
0
255
255
0
255
255
0
255
255
0
255
255
0
170
170
0
170
170
0
170
170
0
170
170
0
170
170
0
255
255
