P3
# CREATOR: GIMP PNM Filter Version 1.1
24 186
255
85
255
255
85
255
255
85
255
255
85
255
255
85
255
255
113
57
0
113
57
0
113
57
0
113
57
0
170
85
0
170
85
0
170
85
0
170
85
0
170
85
0
170
85
0
170
85
0
113
57
0
113
57
0
113
57
0
85
255
255
85
255
255
85
255
255
85
255
255
85
255
255
85
255
255
85
255
255
85
255
255
65
40
32
113
57
0
113
57
0
170
85
0
255
130
0
255
190
130
255
223
130
255
223
130
255
223
130
255
223
130
255
223
130
255
190
130
255
130
0
170
85
0
113
57
0
113
57
0
113
57
0
65
40
32
85
255
255
85
255
255
85
255
255
85
255
255
85
255
255
65
40
32
113
57
0
170
85
0
255
130
0
255
190
130
255
223
130
255
223
130
255
223
130
255
223
130
255
190
130
255
130
0
255
130
0
255
130
0
255
130
0
255
130
0
170
85
0
170
85
0
113
57
0
113
57
0
65
40
32
85
255
255
85
255
255
85
255
255
85
255
255
65
40
32
170
85
0
170
85
0
170
85
0
255
130
0
255
130
0
255
190
130
170
85
0
255
190
130
255
130
0
255
130
0
170
85
0
170
85
0
170
85
0
170
85
0
113
57
0
113
57
0
65
40
32
65
40
32
0
0
0
85
255
255
85
255
255
85
255
255
85
255
255
65
32
0
113
57
0
170
85
0
113
57
0
255
130
0
255
130
0
255
130
0
255
130
0
255
130
0
255
130
0
113
57
0
255
130
0
113
57
0
113
57
0
113
57
0
113
57
0
65
40
32
0
0
0
0
0
0
0
0
0
85
255
255
85
255
255
85
255
255
85
255
255
65
32
0
113
57
0
113
57
0
113
57
0
255
130
0
113
57
0
255
130
0
170
85
0
170
85
0
255
130
0
170
85
0
113
57
0
170
85
0
113
57
0
65
32
0
113
57
0
16
16
16
65
40
32
65
40
32
65
32
0
85
255
255
85
255
255
85
255
255
85
255
255
113
57
0
113
57
0
170
85
0
170
85
0
113
57
0
255
130
0
113
57
0
170
85
0
170
85
0
170
85
0
170
85
0
255
130
0
255
130
0
255
130
0
170
85
0
170
85
0
170
85
0
113
57
0
65
32
0
113
57
0
85
255
255
85
255
255
85
255
255
85
255
255
113
57
0
113
57
0
170
85
0
255
130
0
170
85
0
113
57
0
255
130
0
113
57
0
170
85
0
255
130
0
255
130
0
255
190
130
255
130
0
255
130
0
255
130
0
255
130
0
255
130
0
170
85
0
113
57
0
113
57
0
85
255
255
85
255
255
85
255
255
85
255
255
113
57
0
113
57
0
255
130
0
255
190
130
255
190
130
255
130
0
255
130
0
255
190
130
255
190
130
255
190
130
255
190
130
255
190
130
255
190
130
255
130
0
255
130
0
255
190
130
255
190
130
255
130
0
113
57
0
113
57
0
85
255
255
85
255
255
85
255
255
85
255
255
113
57
0
170
85
0
255
130
0
255
223
130
255
223
130
255
223
130
255
190
130
255
130
0
255
190
130
255
190
130
255
190
130
255
190
130
255
130
0
255
190
130
255
223
130
255
223
130
255
223
130
255
130
0
113
57
0
113
57
0
85
255
255
85
255
255
85
255
255
85
255
255
113
57
0
170
85
0
255
130
0
255
223
130
255
255
186
255
255
186
255
223
130
255
223
130
255
130
0
255
130
0
255
130
0
255
130
0
255
223
130
255
223
130
255
255
186
255
255
186
255
223
130
255
130
0
170
85
0
113
57
0
85
255
255
85
255
255
85
255
255
85
255
255
113
57
0
170
85
0
255
190
130
255
255
186
255
255
255
255
255
255
255
255
186
255
255
186
255
223
130
255
223
130
255
223
130
255
223
130
255
255
186
255
255
186
255
255
255
255
255
255
255
255
186
255
190
130
170
85
0
113
57
0
85
255
255
85
255
255
255
190
130
170
85
0
113
57
0
170
85
0
170
85
0
170
85
0
113
57
0
255
130
0
255
223
130
255
190
130
170
85
0
255
190
130
255
190
130
170
85
0
255
190
130
255
223
130
255
130
0
113
57
0
170
85
0
170
85
0
170
85
0
113
57
0
170
85
0
255
190
130
255
190
130
170
85
0
65
32
0
255
130
0
255
190
130
113
57
0
65
32
0
65
32
0
65
32
0
113
57
0
65
32
0
255
130
0
255
130
0
65
32
0
113
57
0
65
32
0
65
32
0
65
32
0
113
57
0
255
190
130
255
130
0
65
32
0
170
85
0
255
190
130
255
130
0
170
85
0
113
85
0
255
190
130
170
85
0
154
154
154
0
0
0
154
154
154
53
53
53
0
0
0
113
57
0
255
223
130
255
223
130
113
57
0
0
0
0
154
154
154
0
0
0
154
154
154
255
255
255
170
85
0
255
190
130
113
85
0
170
85
0
255
130
0
170
85
0
113
57
0
170
85
0
255
190
130
255
130
0
255
190
130
255
255
255
255
130
130
170
85
0
113
57
0
255
130
0
255
223
130
255
255
186
255
130
0
113
57
0
170
85
0
255
130
130
255
255
255
255
190
130
255
130
0
255
190
130
170
85
0
113
57
0
170
85
0
170
85
0
113
57
0
170
85
0
255
186
186
255
223
130
255
223
130
255
190
130
255
130
0
255
190
130
255
223
130
255
223
130
255
255
130
255
255
186
255
223
130
255
223
130
255
190
130
255
130
0
255
190
130
255
223
130
255
223
130
255
186
186
170
85
0
113
57
0
170
85
0
255
130
0
113
57
0
255
130
0
255
223
130
255
223
130
255
255
186
255
223
130
255
223
130
255
255
130
255
255
255
255
255
186
255
255
130
255
255
186
255
255
186
255
255
255
255
255
130
255
223
130
255
223
130
255
255
186
255
223
130
255
223
130
255
130
0
113
57
0
255
130
0
85
255
255
113
57
0
170
85
0
255
130
0
255
190
130
255
223
130
255
223
130
255
255
130
255
255
255
255
223
130
255
223
130
255
255
186
255
255
255
255
223
130
255
223
130
255
255
255
255
255
130
255
223
130
255
223
130
255
190
130
255
130
0
170
85
0
113
57
0
85
255
255
85
255
255
113
57
0
170
85
0
255
130
0
255
130
0
255
223
130
255
255
186
255
255
186
255
223
130
255
190
130
255
130
0
255
190
130
255
190
130
255
130
0
255
190
130
255
223
130
255
255
186
255
255
186
255
223
130
255
130
0
255
130
0
170
85
0
113
57
0
85
255
255
85
255
255
85
255
255
170
85
0
255
190
130
255
130
0
255
223
130
255
255
255
255
255
186
255
223
130
113
57
0
170
85
0
170
85
0
170
85
0
170
85
0
113
57
0
255
223
130
255
255
186
255
255
255
255
223
130
255
130
0
255
190
130
170
85
0
85
255
255
85
255
255
85
255
255
85
255
255
113
57
0
255
223
130
255
130
0
255
255
186
255
255
186
255
223
130
255
223
130
255
223
130
255
223
130
255
130
0
255
130
0
255
223
130
255
223
130
255
223
130
255
223
130
255
255
186
255
255
186
255
130
0
255
223
130
113
57
0
85
255
255
85
255
255
85
255
255
85
255
255
113
57
0
255
190
130
255
130
0
255
223
130
255
255
186
255
223
130
255
223
130
255
255
186
255
255
255
255
223
130
255
223
130
255
255
255
255
255
186
255
223
130
255
223
130
255
255
186
255
223
130
255
130
0
255
190
130
113
57
0
85
255
255
85
255
255
85
255
255
85
255
255
85
255
255
170
85
0
255
190
130
255
223
130
255
223
130
255
130
0
170
85
0
255
130
0
255
130
0
255
130
0
255
130
0
255
130
0
255
130
0
170
85
0
255
130
0
255
223
130
255
223
130
255
190
130
170
85
0
85
255
255
85
255
255
85
255
255
85
255
255
85
255
255
85
255
255
113
57
0
255
130
0
255
190
130
255
223
130
255
223
130
255
223
130
255
223
130
255
255
186
255
255
130
255
255
130
255
255
186
255
223
130
255
223
130
255
223
130
255
223
130
255
190
130
255
130
0
113
57
0
85
255
255
85
255
255
85
255
255
85
255
255
85
255
255
85
255
255
85
255
255
170
85
0
255
190
130
255
223
130
255
223
130
255
223
130
255
190
130
255
130
0
170
85
0
170
85
0
255
130
0
255
190
130
255
223
130
255
223
130
255
223
130
255
190
130
170
85
0
85
255
255
85
255
255
85
255
255
85
255
255
85
255
255
85
255
255
85
255
255
85
255
255
85
255
255
170
85
0
255
190
130
255
223
130
255
223
130
255
223
130
255
223
130
255
255
186
255
255
186
255
223
130
255
223
130
255
223
130
255
223
130
255
190
130
170
85
0
85
255
255
85
255
255
85
255
255
85
255
255
85
255
255
85
255
255
85
255
255
85
255
255
85
255
255
85
255
255
85
255
255
113
57
0
170
85
0
255
190
130
255
223
130
255
255
186
255
255
255
255
255
255
255
255
186
255
223
130
255
190
130
170
85
0
113
57
0
85
255
255
85
255
255
85
255
255
85
255
255
85
255
255
85
255
255
85
255
255
85
255
255
85
255
255
85
255
255
85
255
255
85
255
255
85
255
255
85
255
255
170
85
0
255
130
0
255
130
0
255
130
0
255
130
0
255
130
0
255
130
0
170
85
0
85
255
255
85
255
255
85
255
255
85
255
255
85
255
255
85
255
255
85
255
255
85
255
255
85
255
255
85
255
255
85
255
255
85
255
255
85
255
255
85
255
255
85
255
255
85
255
255
85
255
255
85
255
255
85
255
255
85
255
255
85
255
255
85
255
255
85
255
255
85
255
255
85
255
255
85
255
255
85
255
255
85
255
255
85
255
255
85
255
255
85
255
255
85
255
255
85
255
255
85
255
255
85
255
255
85
255
255
85
255
255
85
255
255
85
255
255
85
255
255
85
255
255
85
255
255
85
255
255
85
255
255
85
255
255
85
255
255
85
255
255
85
255
255
85
255
255
85
255
255
85
255
255
85
255
255
85
255
255
85
255
255
85
255
255
85
255
255
85
255
255
85
255
255
85
255
255
85
255
255
85
255
255
85
255
255
85
255
255
85
255
255
85
255
255
85
255
255
85
255
255
85
255
255
85
255
255
85
255
255
85
255
255
85
255
255
85
255
255
85
255
255
85
255
255
85
255
255
85
255
255
85
255
255
85
255
255
85
255
255
85
255
255
85
255
255
85
255
255
85
255
255
85
255
255
113
57
0
113
57
0
113
57
0
113
57
0
170
85
0
170
85
0
170
85
0
170
85
0
170
85
0
170
85
0
170
85
0
113
57
0
113
57
0
113
57
0
85
255
255
85
255
255
85
255
255
85
255
255
85
255
255
85
255
255
85
255
255
85
255
255
65
40
32
113
57
0
113
57
0
170
85
0
255
130
0
255
190
130
255
223
130
255
223
130
255
223
130
255
223
130
255
223
130
255
190
130
255
130
0
170
85
0
113
57
0
113
57
0
113
57
0
65
40
32
85
255
255
85
255
255
85
255
255
85
255
255
85
255
255
65
40
32
113
57
0
170
85
0
255
130
0
255
130
0
255
223
130
255
223
130
255
223
130
255
130
0
255
190
130
255
130
0
255
130
0
255
130
0
255
130
0
255
130
0
170
85
0
170
85
0
113
57
0
113
57
0
65
40
32
85
255
255
85
255
255
85
255
255
85
255
255
65
40
32
170
85
0
170
85
0
170
85
0
255
130
0
255
130
0
255
190
130
170
85
0
255
190
130
255
130
0
255
130
0
170
85
0
170
85
0
170
85
0
170
85
0
113
57
0
113
57
0
65
40
32
65
40
32
0
0
0
85
255
255
85
255
255
85
255
255
85
255
255
65
32
0
113
57
0
170
85
0
113
57
0
255
130
0
113
57
0
255
190
130
255
130
0
170
85
0
255
130
0
113
57
0
65
32
0
113
57
0
113
57
0
113
57
0
113
57
0
65
40
32
0
0
0
0
0
0
0
0
0
85
255
255
85
255
255
85
255
255
85
255
255
65
32
0
113
57
0
113
57
0
113
57
0
113
57
0
113
57
0
255
130
0
113
57
0
65
32
0
16
16
16
255
130
0
113
57
0
170
85
0
113
57
0
65
32
0
113
57
0
16
16
16
65
40
32
65
40
32
65
32
0
85
255
255
85
255
255
85
255
255
85
255
255
113
57
0
113
57
0
170
85
0
170
85
0
113
57
0
255
130
0
113
57
0
170
85
0
113
57
0
65
40
32
65
40
32
170
85
0
255
130
0
255
130
0
113
57
0
170
85
0
113
57
0
113
57
0
65
32
0
113
57
0
85
255
255
85
255
255
85
255
255
85
255
255
113
57
0
113
57
0
170
85
0
255
130
0
255
190
130
113
57
0
255
223
130
113
57
0
255
130
0
170
85
0
113
57
0
65
40
32
170
85
0
255
130
0
255
130
0
170
85
0
255
130
0
113
57
0
113
57
0
113
57
0
85
255
255
85
255
255
85
255
255
85
255
255
113
57
0
113
57
0
255
130
0
255
190
130
255
190
130
170
85
0
255
130
0
170
85
0
255
130
0
255
223
130
113
57
0
255
223
130
170
85
0
255
130
0
255
130
0
170
85
0
255
190
130
255
130
0
113
57
0
113
57
0
85
255
255
85
255
255
85
255
255
85
255
255
113
57
0
170
85
0
255
130
0
255
190
130
255
190
130
255
190
130
170
85
0
255
130
0
170
85
0
255
130
0
255
130
0
255
130
0
255
130
0
255
130
0
255
190
130
255
190
130
170
85
0
255
130
0
113
57
0
113
57
0
85
255
255
85
255
255
85
255
255
85
255
255
113
57
0
170
85
0
255
130
0
255
223
130
255
255
186
255
255
186
255
223
130
255
223
130
255
130
0
255
130
0
255
130
0
255
130
0
255
223
130
255
223
130
255
255
186
255
255
186
255
223
130
255
130
0
170
85
0
113
57
0
85
255
255
85
255
255
85
255
255
85
255
255
113
57
0
170
85
0
255
190
130
255
255
186
255
255
255
255
255
255
255
255
186
255
255
186
255
223
130
255
223
130
255
223
130
255
223
130
255
255
186
255
255
186
255
255
255
255
255
255
255
255
186
255
190
130
170
85
0
113
57
0
85
255
255
85
255
255
255
190
130
170
85
0
113
57
0
170
85
0
170
85
0
170
85
0
255
190
130
255
223
130
255
255
255
255
190
130
170
85
0
255
190
130
255
190
130
170
85
0
255
190
130
255
255
255
255
223
130
255
190
130
170
85
0
170
85
0
170
85
0
113
57
0
170
85
0
255
190
130
255
190
130
170
85
0
65
32
0
255
130
0
255
190
130
113
57
0
65
32
0
65
32
0
65
32
0
113
57
0
65
32
0
170
85
0
170
85
0
65
32
0
113
57
0
65
32
0
65
32
0
65
32
0
113
57
0
255
190
130
255
130
0
65
32
0
170
85
0
255
190
130
255
130
0
170
85
0
113
85
0
255
190
130
170
85
0
154
154
154
0
0
0
154
154
154
53
53
53
0
0
0
113
57
0
255
223
130
255
223
130
113
57
0
0
0
0
154
154
154
0
0
0
154
154
154
255
255
255
170
85
0
255
190
130
113
85
0
170
85
0
255
130
0
170
85
0
113
57
0
170
85
0
255
190
130
255
190
130
255
190
130
255
190
130
255
130
0
170
85
0
113
57
0
255
130
0
255
223
130
255
255
186
255
130
0
113
57
0
170
85
0
255
130
0
255
190
130
255
190
130
255
190
130
255
190
130
170
85
0
113
57
0
170
85
0
170
85
0
113
57
0
170
85
0
255
186
186
255
223
130
255
223
130
255
190
130
255
130
0
255
190
130
255
223
130
255
223
130
255
255
130
255
255
186
255
223
130
255
223
130
255
190
130
255
130
0
255
190
130
255
223
130
255
223
130
255
186
186
170
85
0
113
57
0
170
85
0
255
130
0
113
57
0
255
130
0
255
223
130
255
223
130
255
255
186
255
223
130
255
223
130
255
255
130
255
255
255
255
255
186
255
255
130
255
255
186
255
255
186
255
255
255
255
255
130
255
223
130
255
223
130
255
255
186
255
223
130
255
223
130
255
130
0
113
57
0
255
130
0
85
255
255
113
57
0
170
85
0
255
130
0
255
190
130
255
190
130
255
223
130
255
255
130
255
239
186
255
223
130
255
223
130
255
255
186
255
255
255
255
223
130
255
223
130
255
255
255
255
255
130
255
223
130
255
190
130
255
130
0
255
130
0
170
85
0
113
57
0
85
255
255
85
255
255
113
57
0
170
85
0
255
130
0
255
130
0
255
223
130
255
255
186
255
255
186
255
223
130
255
190
130
255
130
0
255
190
130
255
190
130
255
130
0
255
190
130
255
223
130
255
255
186
255
255
186
255
223
130
170
85
0
255
130
0
170
85
0
113
57
0
85
255
255
85
255
255
85
255
255
170
85
0
255
190
130
255
130
0
255
223
130
255
255
255
255
255
186
255
130
0
113
57
0
170
85
0
170
85
0
170
85
0
255
0
0
113
57
0
255
130
0
255
255
186
255
255
255
255
223
130
255
130
0
255
190
130
170
85
0
85
255
255
85
255
255
85
255
255
85
255
255
113
57
0
255
223
130
170
85
0
255
255
186
255
255
186
255
190
130
255
223
130
255
223
130
255
223
130
255
130
0
255
130
0
170
0
0
255
223
130
255
223
130
255
190
130
255
255
186
255
255
186
255
130
0
255
223
130
113
57
0
85
255
255
85
255
255
85
255
255
85
255
255
113
57
0
255
190
130
255
130
0
255
223
130
255
255
186
255
223
130
255
223
130
255
255
186
255
255
186
255
223
130
255
223
130
255
85
85
255
255
186
255
223
130
255
223
130
255
255
186
255
223
130
255
130
0
255
190
130
85
255
255
85
255
255
85
255
255
85
255
255
85
255
255
85
255
255
170
85
0
255
190
130
255
223
130
255
223
130
255
130
0
170
85
0
255
130
0
255
130
0
255
130
0
255
130
0
255
0
0
255
130
0
170
85
0
255
130
0
255
223
130
255
223
130
255
190
130
170
85
0
85
255
255
85
255
255
85
255
255
85
255
255
85
255
255
85
255
255
113
57
0
255
130
0
255
190
130
255
223
130
255
190
130
255
223
130
255
223
130
255
255
186
255
255
130
255
255
130
255
255
186
255
223
130
255
223
130
255
190
130
255
223
130
255
190
130
255
130
0
113
57
0
85
255
255
85
255
255
85
255
255
85
255
255
85
255
255
85
255
255
85
255
255
170
85
0
255
190
130
255
223
130
255
223
130
255
223
130
255
190
130
255
130
0
170
85
0
170
85
0
255
130
0
255
190
130
255
223
130
255
223
130
255
223
130
255
190
130
170
85
0
85
255
255
85
255
255
85
255
255
85
255
255
85
255
255
85
255
255
85
255
255
85
255
255
85
255
255
170
85
0
255
190
130
255
223
130
255
223
130
255
223
130
255
223
130
255
255
186
255
255
186
255
223
130
255
223
130
255
223
130
255
223
130
255
190
130
170
85
0
85
255
255
85
255
255
85
255
255
85
255
255
85
255
255
85
255
255
85
255
255
85
255
255
85
255
255
85
255
255
85
255
255
113
57
0
170
85
0
255
190
130
255
223
130
255
223
130
255
255
186
255
255
186
255
223
130
255
223
130
255
190
130
170
85
0
113
57
0
85
255
255
85
255
255
85
255
255
85
255
255
85
255
255
85
255
255
85
255
255
85
255
255
85
255
255
85
255
255
85
255
255
85
255
255
85
255
255
85
255
255
170
85
0
255
130
0
255
130
0
255
130
0
255
130
0
255
130
0
255
130
0
170
85
0
85
255
255
85
255
255
85
255
255
85
255
255
85
255
255
85
255
255
85
255
255
85
255
255
85
255
255
85
255
255
85
255
255
85
255
255
85
255
255
85
255
255
85
255
255
85
255
255
85
255
255
85
255
255
85
255
255
85
255
255
85
255
255
85
255
255
85
255
255
85
255
255
85
255
255
85
255
255
85
255
255
85
255
255
85
255
255
85
255
255
85
255
255
85
255
255
85
255
255
85
255
255
85
255
255
85
255
255
85
255
255
85
255
255
85
255
255
85
255
255
85
255
255
85
255
255
85
255
255
85
255
255
85
255
255
85
255
255
85
255
255
85
255
255
85
255
255
85
255
255
85
255
255
85
255
255
85
255
255
85
255
255
85
255
255
85
255
255
85
255
255
85
255
255
85
255
255
85
255
255
85
255
255
113
57
0
113
57
0
113
57
0
170
85
0
170
85
0
170
85
0
170
85
0
170
85
0
170
85
0
170
85
0
170
85
0
113
57
0
113
57
0
113
57
0
85
255
255
85
255
255
85
255
255
85
255
255
85
255
255
85
255
255
85
255
255
85
255
255
65
40
32
113
57
0
113
57
0
170
85
0
170
85
0
255
190
130
255
190
130
255
190
130
255
190
130
255
190
130
255
130
0
255
130
0
170
85
0
170
85
0
113
57
0
113
57
0
113
57
0
65
40
32
85
255
255
85
255
255
85
255
255
85
255
255
85
255
255
65
40
32
113
57
0
170
85
0
170
85
0
255
130
0
255
130
0
255
223
130
255
223
130
255
223
130
255
223
130
255
223
130
255
190
130
255
130
0
255
130
0
170
85
0
170
85
0
170
85
0
170
85
0
113
57
0
65
40
32
85
255
255
85
255
255
85
255
255
85
255
255
65
40
32
113
57
0
170
85
0
255
130
0
255
130
0
255
190
130
255
223
130
255
223
130
255
223
130
255
223
130
255
223
130
255
223
130
255
190
130
255
130
0
255
130
0
255
130
0
170
85
0
170
85
0
113
57
0
0
0
0
85
255
255
85
255
255
85
255
255
85
255
255
65
40
32
113
57
0
170
85
0
170
85
0
255
190
130
255
130
0
255
190
130
255
223
130
255
190
130
255
223
130
255
190
130
255
130
0
255
130
0
255
190
130
255
130
0
255
130
0
170
85
0
170
85
0
113
57
0
0
0
0
85
255
255
85
255
255
85
255
255
85
255
255
0
0
0
65
40
32
170
85
0
170
85
0
255
190
130
255
130
0
255
130
0
255
223
130
170
85
0
255
190
130
255
190
130
255
130
0
255
130
0
170
85
0
255
130
0
170
85
0
113
57
0
113
57
0
65
40
32
65
40
32
85
255
255
85
255
255
85
255
255
85
255
255
0
0
0
0
0
0
113
57
0
170
85
0
255
130
0
255
130
0
113
57
0
255
190
130
170
85
0
170
85
0
255
130
0
255
130
0
170
85
0
113
57
0
113
57
0
113
57
0
113
57
0
113
57
0
16
16
16
65
40
32
85
255
255
85
255
255
85
255
255
85
255
255
65
40
32
65
40
32
113
57
0
113
57
0
113
57
0
255
130
0
113
57
0
255
130
0
65
40
32
65
32
0
170
85
0
255
130
0
170
85
0
170
85
0
113
57
0
65
32
0
113
57
0
65
40
32
65
40
32
65
40
32
85
255
255
85
255
255
85
255
255
85
255
255
65
40
32
113
57
0
113
57
0
170
85
0
170
85
0
113
57
0
255
130
0
113
57
0
255
130
0
113
57
0
65
40
32
170
85
0
170
85
0
255
130
0
170
85
0
113
57
0
170
85
0
113
57
0
16
16
16
113
57
0
85
255
255
85
255
255
85
255
255
85
255
255
65
40
32
113
57
0
113
57
0
170
85
0
255
130
0
255
190
130
113
57
0
255
223
130
113
57
0
255
130
0
170
85
0
113
57
0
170
85
0
170
85
0
255
130
0
255
130
0
170
85
0
170
85
0
113
57
0
113
57
0
85
255
255
85
255
255
85
255
255
85
255
255
113
57
0
170
85
0
170
85
0
255
130
0
255
190
130
255
190
130
170
85
0
255
130
0
170
85
0
255
130
0
255
223
130
113
57
0
255
223
130
170
85
0
255
130
0
255
130
0
170
85
0
255
130
0
113
57
0
113
57
0
85
255
255
85
255
255
85
255
255
85
255
255
113
57
0
170
85
0
170
85
0
255
130
0
255
190
130
255
190
130
255
190
130
170
85
0
255
130
0
170
85
0
255
130
0
255
130
0
113
57
0
255
130
0
255
130
0
255
190
130
255
190
130
255
130
0
170
85
0
113
57
0
85
255
255
85
255
255
255
190
130
85
255
255
113
57
0
170
85
0
255
130
0
255
130
0
255
223
130
255
255
186
255
255
186
255
223
130
255
223
130
255
130
0
255
130
0
255
130
0
255
130
0
255
223
130
255
223
130
255
255
186
255
255
186
255
130
0
170
85
0
113
57
0
85
255
255
255
190
130
255
190
130
65
32
0
113
57
0
255
130
0
255
190
130
255
255
186
255
255
255
255
255
255
255
239
186
255
255
186
255
223
130
255
130
0
255
130
0
255
223
130
255
255
186
255
239
186
255
255
255
255
255
255
255
255
186
255
190
130
255
130
0
113
57
0
65
32
0
255
190
130
255
130
0
65
32
0
113
57
0
255
130
0
113
57
0
65
32
0
113
57
0
255
130
0
255
223
130
255
255
255
255
190
130
255
223
130
255
255
186
255
190
130
255
255
255
255
223
130
255
130
0
113
57
0
65
32
0
113
57
0
255
130
0
113
57
0
65
32
0
255
130
0
170
85
0
113
57
0
113
57
0
113
57
0
65
32
0
113
57
0
65
32
0
170
85
0
255
190
130
170
85
0
113
57
0
255
130
0
255
130
0
113
57
0
170
85
0
255
190
130
170
85
0
65
32
0
113
57
0
65
32
0
113
57
0
113
57
0
113
57
0
170
85
0
170
85
0
113
57
0
113
57
0
113
57
0
16
16
16
255
85
85
0
0
0
0
0
0
170
0
0
0
0
0
113
57
0
113
57
0
113
57
0
113
57
0
0
0
0
170
0
0
0
0
0
0
0
0
255
85
85
16
16
16
113
57
0
170
85
0
113
57
0
170
85
0
255
130
0
113
57
0
170
85
0
255
190
130
255
130
0
255
190
130
239
255
186
113
113
57
170
85
0
113
57
0
170
85
0
255
190
130
255
190
130
170
85
0
113
57
0
170
85
0
113
113
57
239
255
186
255
190
130
255
130
0
255
190
130
170
85
0
113
57
0
255
130
0
85
255
255
113
57
0
170
85
0
255
223
130
255
223
130
255
223
130
255
130
0
255
130
0
255
190
130
255
223
130
255
190
130
255
255
186
255
255
186
255
190
130
255
223
130
255
190
130
255
130
0
255
130
0
255
223
130
255
223
130
255
223
130
170
85
0
113
57
0
85
255
255
85
255
255
113
57
0
170
85
0
255
130
0
255
190
130
255
130
0
255
223
130
255
255
255
255
255
186
255
255
255
255
255
186
255
255
255
255
255
255
255
255
186
255
255
255
255
255
186
255
255
255
255
223
130
255
130
0
255
190
130
255
130
0
170
85
0
113
57
0
85
255
255
85
255
255
85
255
255
170
85
0
255
130
0
255
130
0
255
223
130
255
255
255
255
223
130
255
130
0
170
85
0
255
223
130
255
255
255
255
255
255
255
223
130
170
85
0
255
130
0
255
223
130
255
255
255
255
223
130
255
130
0
255
130
0
170
85
0
85
255
255
85
255
255
85
255
255
85
255
255
170
85
0
255
130
0
255
130
0
255
223
130
255
255
186
255
130
0
255
130
0
255
130
0
255
130
0
255
255
186
255
255
186
255
130
0
255
0
0
255
130
0
255
130
0
255
255
186
255
223
130
255
130
0
255
130
0
170
85
0
85
255
255
85
255
255
85
255
255
85
255
255
113
57
0
255
223
130
255
130
0
255
255
186
255
255
186
255
130
0
255
223
130
255
223
130
255
130
0
255
190
130
255
190
130
255
85
85
170
0
0
255
223
130
255
130
0
255
255
186
255
255
186
255
130
0
255
223
130
113
57
0
85
255
255
85
255
255
85
255
255
85
255
255
113
57
0
255
190
130
255
130
0
255
223
130
255
255
186
255
223
130
255
130
130
255
130
130
255
255
255
255
223
130
255
223
130
255
186
186
255
85
85
255
223
130
255
223
130
255
255
186
255
223
130
255
130
0
255
190
130
113
57
0
85
255
255
85
255
255
85
255
255
85
255
255
85
255
255
170
85
0
255
190
130
255
223
130
255
223
130
255
190
130
170
0
0
170
0
0
170
85
0
113
57
0
113
57
0
255
0
0
255
0
0
255
190
130
255
190
130
255
223
130
255
223
130
255
190
130
170
85
0
85
255
255
85
255
255
85
255
255
85
255
255
85
255
255
85
255
255
113
57
0
255
130
0
255
190
130
255
223
130
255
223
130
255
130
130
255
130
130
255
255
186
255
255
255
255
255
255
255
255
186
255
223
130
255
223
130
255
223
130
255
223
130
255
190
130
255
130
0
113
57
0
85
255
255
85
255
255
85
255
255
85
255
255
85
255
255
85
255
255
85
255
255
170
85
0
255
130
0
255
223
130
255
223
130
255
190
130
255
190
130
255
130
0
170
85
0
170
85
0
255
130
0
255
190
130
255
190
130
255
223
130
255
223
130
255
130
0
170
85
0
85
255
255
85
255
255
85
255
255
85
255
255
85
255
255
85
255
255
85
255
255
85
255
255
85
255
255
170
85
0
255
130
0
255
223
130
255
223
130
255
130
0
255
223
130
255
255
186
255
255
186
255
223
130
255
130
0
255
223
130
255
223
130
255
130
0
170
85
0
85
255
255
85
255
255
85
255
255
85
255
255
85
255
255
85
255
255
85
255
255
85
255
255
85
255
255
85
255
255
85
255
255
113
57
0
255
130
0
255
190
130
255
223
130
255
255
186
255
255
255
255
255
255
255
255
186
255
223
130
255
190
130
255
130
0
113
57
0
85
255
255
85
255
255
85
255
255
85
255
255
85
255
255
85
255
255
85
255
255
85
255
255
85
255
255
85
255
255
85
255
255
85
255
255
85
255
255
85
255
255
255
130
0
255
190
130
255
190
130
255
190
130
255
190
130
255
190
130
255
190
130
255
130
0
85
255
255
85
255
255
85
255
255
85
255
255
85
255
255
85
255
255
85
255
255
85
255
255
85
255
255
85
255
255
85
255
255
85
255
255
85
255
255
113
57
0
113
57
0
113
57
0
170
85
0
255
130
0
170
85
0
65
40
32
170
85
0
255
130
0
170
85
0
170
85
0
113
57
0
113
57
0
113
57
0
85
255
255
85
255
255
85
255
255
85
255
255
85
255
255
85
255
255
85
255
255
85
255
255
65
40
32
113
57
0
113
57
0
113
57
0
170
85
0
170
85
0
255
190
130
255
130
0
170
85
0
255
130
0
255
190
130
255
130
0
170
85
0
170
85
0
170
85
0
113
57
0
113
57
0
65
40
32
85
255
255
85
255
255
85
255
255
85
255
255
85
255
255
65
40
32
113
57
0
170
85
0
170
85
0
255
130
0
255
130
0
255
130
0
255
130
0
255
190
130
255
130
0
255
190
130
255
223
130
255
190
130
170
85
0
170
85
0
170
85
0
255
130
0
170
85
0
113
57
0
65
40
32
85
255
255
85
255
255
85
255
255
85
255
255
65
40
32
113
57
0
170
85
0
255
130
0
255
130
0
255
130
0
255
190
130
255
190
130
255
223
130
255
223
130
255
223
130
255
190
130
255
130
0
255
130
0
170
85
0
170
85
0
170
85
0
255
130
0
113
57
0
65
32
0
85
255
255
85
255
255
85
255
255
85
255
255
113
57
0
113
57
0
255
130
0
255
130
0
255
130
0
255
130
0
255
190
130
255
223
130
255
223
130
255
223
130
255
223
130
255
223
130
255
190
130
255
130
0
170
85
0
170
85
0
170
85
0
170
85
0
170
85
0
113
57
0
85
255
255
85
255
255
85
255
255
85
255
255
113
57
0
170
85
0
170
85
0
255
130
0
255
130
0
255
130
0
255
223
130
255
223
130
255
223
130
255
255
186
255
255
186
255
223
130
255
223
130
255
130
0
170
85
0
255
130
0
170
85
0
113
57
0
170
85
0
113
57
0
85
255
255
85
255
255
85
255
255
85
255
255
113
57
0
170
85
0
170
85
0
255
130
0
255
130
0
170
85
0
255
130
0
255
190
130
255
223
130
255
223
130
255
223
130
255
223
130
255
130
0
255
130
0
255
130
0
170
85
0
255
130
0
113
57
0
170
85
0
113
57
0
85
255
255
85
255
255
85
255
255
85
255
255
113
57
0
170
85
0
170
85
0
170
85
0
170
85
0
255
130
0
255
190
130
255
223
130
255
190
130
255
223
130
255
190
130
255
223
130
255
190
130
255
130
0
255
130
0
170
85
0
255
130
0
113
57
0
170
85
0
65
32
0
85
255
255
85
255
255
85
255
255
85
255
255
65
32
0
113
57
0
170
85
0
65
32
0
170
85
0
255
130
0
255
223
130
255
130
0
255
190
130
255
130
0
255
130
0
255
130
0
255
223
130
255
130
0
255
190
130
113
57
0
170
85
0
113
57
0
113
57
0
65
40
32
85
255
255
85
255
255
85
255
255
85
255
255
65
40
32
65
32
0
65
40
32
113
57
0
170
85
0
255
130
0
255
190
130
255
130
0
255
130
0
170
85
0
255
130
0
255
130
0
255
223
130
170
85
0
255
130
0
113
57
0
170
85
0
113
57
0
65
40
32
65
32
0
85
255
255
85
255
255
85
255
255
85
255
255
65
40
32
65
40
32
65
40
32
113
57
0
170
85
0
255
190
130
170
85
0
170
85
0
170
85
0
65
32
0
170
85
0
255
130
0
255
130
0
113
57
0
170
85
0
113
57
0
113
57
0
65
40
32
65
32
0
113
57
0
85
255
255
85
255
255
85
255
255
85
255
255
65
40
32
113
57
0
65
32
0
113
57
0
113
57
0
255
130
0
170
85
0
255
130
0
113
57
0
65
32
0
113
57
0
170
85
0
255
130
0
65
40
32
170
85
0
113
57
0
65
40
32
113
57
0
113
57
0
113
57
0
85
255
255
85
255
255
255
190
130
85
255
255
113
57
0
113
57
0
170
85
0
65
32
0
113
57
0
170
85
0
170
85
0
255
130
0
113
57
0
170
85
0
65
32
0
170
85
0
255
130
0
113
57
0
65
40
32
113
57
0
65
40
32
170
85
0
113
57
0
113
57
0
85
255
255
255
190
130
255
190
130
65
32
0
113
57
0
170
85
0
255
130
0
170
85
0
65
32
0
113
57
0
113
57
0
170
85
0
65
40
32
255
190
130
65
32
0
113
57
0
170
85
0
255
190
130
113
57
0
65
40
32
113
57
0
255
130
0
170
85
0
113
57
0
65
32
0
255
190
130
255
130
0
65
32
0
113
57
0
170
85
0
255
190
130
255
190
130
170
85
0
65
40
32
113
57
0
113
57
0
65
40
32
255
223
130
65
32
0
113
57
0
255
130
0
255
223
130
255
223
130
255
223
130
255
223
130
255
223
130
170
85
0
113
57
0
65
32
0
255
130
0
170
85
0
65
32
0
113
57
0
255
130
0
255
223
130
255
255
186
255
190
130
113
57
0
65
40
32
113
57
0
65
40
32
255
130
0
255
130
0
65
40
32
170
85
0
255
223
130
255
223
130
255
223
130
255
255
186
255
223
130
255
130
0
113
57
0
65
32
0
170
85
0
170
85
0
113
57
0
113
57
0
255
130
0
255
130
0
255
130
0
255
130
0
255
130
0
65
40
32
113
57
0
65
40
32
170
85
0
255
130
0
255
190
130
255
130
0
255
130
0
255
130
0
255
130
0
255
130
0
255
130
0
255
130
0
113
57
0
113
57
0
170
85
0
255
130
0
113
57
0
113
57
0
255
130
0
113
57
0
255
186
186
113
0
0
0
0
0
0
0
0
113
0
0
113
57
0
113
57
0
65
40
32
113
57
0
113
0
0
0
0
0
0
0
0
113
0
0
255
186
186
113
57
0
255
130
0
170
85
0
113
57
0
255
130
0
85
255
255
113
57
0
170
85
0
255
190
130
255
130
0
170
85
0
255
186
186
255
85
85
255
0
0
255
0
0
170
85
0
255
130
0
255
130
0
170
85
0
255
0
0
255
0
0
255
85
85
255
186
186
170
85
0
255
130
0
255
190
130
170
85
0
113
57
0
85
255
255
85
255
255
113
57
0
170
85
0
255
223
130
255
223
130
255
130
0
170
85
0
170
85
0
255
130
0
255
223
130
255
223
130
255
255
186
255
255
255
255
223
130
255
223
130
255
130
0
170
85
0
170
85
0
255
130
0
255
223
130
255
223
130
170
85
0
113
57
0
85
255
255
85
255
255
113
57
0
170
85
0
255
130
0
255
223
130
255
255
255
255
255
255
255
255
186
255
255
186
255
255
186
255
255
186
255
255
255
255
255
255
255
255
186
255
255
186
255
255
186
255
255
186
255
255
255
255
255
255
255
223
130
255
130
0
170
85
0
113
57
0
85
255
255
85
255
255
85
255
255
170
85
0
255
130
0
255
130
0
255
223
130
255
255
255
255
255
186
255
223
130
255
190
130
255
223
130
255
255
255
255
255
255
255
223
130
255
190
130
255
223
130
255
255
186
255
255
255
255
223
130
255
130
0
255
130
0
170
85
0
85
255
255
85
255
255
85
255
255
85
255
255
170
85
0
255
130
0
255
130
0
255
223
130
255
255
186
255
223
130
255
85
85
170
85
0
255
190
130
255
255
186
255
255
186
255
130
0
170
85
0
255
85
85
255
223
130
255
255
186
255
223
130
255
130
0
255
130
0
170
85
0
85
255
255
85
255
255
85
255
255
85
255
255
113
57
0
255
130
0
170
85
0
255
223
130
255
223
130
255
223
130
255
0
0
113
0
0
170
85
0
255
223
130
255
223
130
170
85
0
113
0
0
255
0
0
255
223
130
255
223
130
255
223
130
170
85
0
255
130
0
113
57
0
85
255
255
85
255
255
85
255
255
85
255
255
85
255
255
170
85
0
170
85
0
255
190
130
255
223
130
255
130
130
255
190
130
170
0
0
113
0
0
113
57
0
113
57
0
170
0
0
170
0
0
255
190
130
255
130
130
255
223
130
255
190
130
170
85
0
170
85
0
85
255
255
85
255
255
85
255
255
85
255
255
85
255
255
85
255
255
85
255
255
170
85
0
255
190
130
255
130
130
255
85
85
255
85
85
113
0
0
65
0
0
113
57
0
113
57
0
170
0
0
170
0
0
255
0
65
255
85
85
255
130
130
255
190
130
170
85
0
85
255
255
85
255
255
85
255
255
85
255
255
85
255
255
85
255
255
85
255
255
85
255
255
113
57
0
255
130
0
255
190
130
255
130
130
255
85
85
255
0
0
255
85
85
255
186
186
255
186
186
255
85
85
255
0
0
255
130
130
255
130
130
255
190
130
255
130
0
113
57
0
85
255
255
85
255
255
85
255
255
85
255
255
85
255
255
85
255
255
85
255
255
85
255
255
85
255
255
113
57
0
255
190
130
255
190
130
255
223
130
255
0
0
255
0
0
113
57
0
113
57
0
113
0
0
113
0
0
255
223
130
255
190
130
255
190
130
113
57
0
85
255
255
85
255
255
85
255
255
85
255
255
85
255
255
85
255
255
85
255
255
85
255
255
85
255
255
85
255
255
85
255
255
170
85
0
255
130
0
255
190
130
255
0
0
255
85
85
255
186
186
255
255
186
255
85
85
255
85
85
255
223
130
255
130
0
170
85
0
85
255
255
85
255
255
85
255
255
85
255
255
85
255
255
85
255
255
85
255
255
85
255
255
85
255
255
85
255
255
85
255
255
85
255
255
85
255
255
113
57
0
255
130
0
170
0
0
255
85
85
255
223
130
255
223
130
255
0
0
255
0
0
255
130
0
113
57
0
85
255
255
85
255
255
85
255
255
85
255
255
85
255
255
85
255
255
85
255
255
85
255
255
85
255
255
85
255
255
85
255
255
85
255
255
85
255
255
85
255
255
85
255
255
65
32
0
113
0
0
255
0
0
170
85
0
170
85
0
170
0
0
170
0
0
65
32
0
85
255
255
85
255
255
85
255
255
85
255
255
85
255
255
85
255
255
85
255
255
85
255
255
85
255
255
85
255
255
85
255
255
85
255
255
85
255
255
113
57
0
113
57
0
113
57
0
170
85
0
255
130
0
170
85
0
65
40
32
170
85
0
255
130
0
170
85
0
170
85
0
113
57
0
113
57
0
113
57
0
85
255
255
85
255
255
85
255
255
85
255
255
85
255
255
85
255
255
85
255
255
85
255
255
65
40
32
113
57
0
113
57
0
113
57
0
170
85
0
170
85
0
255
190
130
255
130
0
170
85
0
255
130
0
255
190
130
255
130
0
170
85
0
170
85
0
170
85
0
113
57
0
113
57
0
65
40
32
85
255
255
85
255
255
85
255
255
85
255
255
85
255
255
65
40
32
113
57
0
170
85
0
170
85
0
255
130
0
255
130
0
255
130
0
255
130
0
255
190
130
255
130
0
255
190
130
255
223
130
255
190
130
170
85
0
170
85
0
170
85
0
255
130
0
170
85
0
113
57
0
65
40
32
85
255
255
85
255
255
85
255
255
85
255
255
65
40
32
113
57
0
170
85
0
255
130
0
255
130
0
255
130
0
255
190
130
255
190
130
255
223
130
255
223
130
255
223
130
255
190
130
255
130
0
255
130
0
170
85
0
170
85
0
170
85
0
255
130
0
113
57
0
65
32
0
85
255
255
85
255
255
85
255
255
85
255
255
113
57
0
113
57
0
255
130
0
255
130
0
255
130
0
255
130
0
255
190
130
255
223
130
255
223
130
255
223
130
255
223
130
255
223
130
255
190
130
255
130
0
170
85
0
170
85
0
170
85
0
170
85
0
170
85
0
113
57
0
85
255
255
85
255
255
85
255
255
85
255
255
113
57
0
170
85
0
170
85
0
255
130
0
255
130
0
255
130
0
255
223
130
255
223
130
255
223
130
255
255
186
255
223
130
255
223
130
255
223
130
255
190
130
170
85
0
255
130
0
170
85
0
113
57
0
170
85
0
113
57
0
85
255
255
85
255
255
85
255
255
85
255
255
113
57
0
170
85
0
170
85
0
255
130
0
255
130
0
170
85
0
255
130
0
255
190
130
255
223
130
255
223
130
255
223
130
255
190
130
255
130
0
255
223
130
255
130
0
170
85
0
255
130
0
113
57
0
170
85
0
113
57
0
85
255
255
85
255
255
85
255
255
85
255
255
113
57
0
170
85
0
170
85
0
170
85
0
170
85
0
255
130
0
255
190
130
255
223
130
255
190
130
255
223
130
255
190
130
255
223
130
255
190
130
255
130
0
255
223
130
170
85
0
255
130
0
113
57
0
170
85
0
65
32
0
85
255
255
85
255
255
85
255
255
85
255
255
65
32
0
113
57
0
170
85
0
65
32
0
170
85
0
255
130
0
255
223
130
255
130
0
255
190
130
255
130
0
255
130
0
255
130
0
255
223
130
255
130
0
255
190
130
113
57
0
170
85
0
113
57
0
113
57
0
65
40
32
85
255
255
85
255
255
85
255
255
85
255
255
65
40
32
65
32
0
65
40
32
113
57
0
170
85
0
255
130
0
255
190
130
255
130
0
255
130
0
170
85
0
255
130
0
255
130
0
255
190
130
170
85
0
255
130
0
113
57
0
170
85
0
113
57
0
65
40
32
65
32
0
85
255
255
85
255
255
85
255
255
85
255
255
65
40
32
65
40
32
65
40
32
113
57
0
170
85
0
255
190
130
170
85
0
170
85
0
170
85
0
65
32
0
170
85
0
255
130
0
255
130
0
113
57
0
170
85
0
113
57
0
113
57
0
65
40
32
65
32
0
113
57
0
85
255
255
85
255
255
85
255
255
85
255
255
65
40
32
16
16
16
65
32
0
113
57
0
113
57
0
255
130
0
170
85
0
255
130
0
113
57
0
65
32
0
113
57
0
170
85
0
255
130
0
65
40
32
170
85
0
113
57
0
65
40
32
113
0
0
113
57
0
113
57
0
85
255
255
85
255
255
255
190
130
85
255
255
113
57
0
113
57
0
170
85
0
65
32
0
113
57
0
170
85
0
170
85
0
255
130
0
113
57
0
65
40
32
65
32
0
170
85
0
255
130
0
113
57
0
65
40
32
65
0
0
65
40
32
113
0
0
113
57
0
113
57
0
85
255
255
255
190
130
255
190
130
85
255
255
113
57
0
170
85
0
255
130
0
113
0
0
65
32
0
113
57
0
113
57
0
170
85
0
65
40
32
113
0
0
65
32
0
113
57
0
170
85
0
65
40
32
65
0
0
170
0
0
170
85
0
170
0
0
170
85
0
113
57
0
85
255
255
255
190
130
255
130
0
65
32
0
113
57
0
170
85
0
255
130
0
113
0
0
113
0
0
65
40
32
113
57
0
113
57
0
65
40
32
113
0
0
65
32
0
113
57
0
255
130
0
65
40
32
113
0
0
113
0
0
255
130
0
255
0
0
170
85
0
113
57
0
65
32
0
255
130
0
170
85
0
65
32
0
113
57
0
255
130
0
255
190
130
255
0
0
113
0
0
113
57
0
65
40
32
113
57
0
65
40
32
170
85
0
170
85
0
65
40
32
170
85
0
113
57
0
255
0
0
170
0
0
255
190
130
255
85
85
255
130
0
113
57
0
65
32
0
170
85
0
170
85
0
113
57
0
113
57
0
255
190
130
255
130
0
170
0
0
170
0
0
255
130
0
65
40
32
113
57
0
65
40
32
65
40
32
255
130
0
255
190
130
255
130
0
255
130
0
113
0
0
113
0
0
255
130
0
255
130
0
255
190
130
113
57
0
113
57
0
170
85
0
255
130
0
113
57
0
113
57
0
255
130
0
113
57
0
255
85
85
113
0
0
0
0
0
0
0
0
113
0
0
113
57
0
113
57
0
65
40
32
113
57
0
113
0
0
0
0
0
0
0
0
113
0
0
255
85
85
113
57
0
255
130
0
170
85
0
113
57
0
255
130
0
85
255
255
113
57
0
170
85
0
255
190
130
255
190
130
170
85
0
113
0
0
113
57
0
170
85
0
113
57
0
170
85
0
255
130
0
255
130
0
170
85
0
113
57
0
170
85
0
113
0
0
113
0
0
170
85
0
255
190
130
255
190
130
170
85
0
113
57
0
85
255
255
85
255
255
113
57
0
170
85
0
255
223
130
255
190
130
255
130
0
170
0
0
170
85
0
255
130
0
255
223
130
255
223
130
255
255
186
255
255
255
255
223
130
255
223
130
255
130
0
170
0
0
170
0
0
255
130
0
255
190
130
255
223
130
170
85
0
113
57
0
85
255
255
85
255
255
113
57
0
170
85
0
255
130
0
255
223
130
255
186
186
255
186
186
255
255
186
255
255
186
255
255
186
255
255
186
255
255
255
255
255
255
255
255
186
255
255
186
255
255
186
255
202
186
255
130
130
255
255
255
255
223
130
255
130
0
170
85
0
113
57
0
85
255
255
85
255
255
85
255
255
170
85
0
255
130
0
255
130
0
255
130
130
255
223
130
255
255
186
255
223
130
255
190
130
255
223
130
255
255
255
255
255
255
255
223
130
255
190
130
255
223
130
255
130
130
255
85
85
255
223
130
255
130
0
255
130
0
170
85
0
85
255
255
85
255
255
85
255
255
85
255
255
170
85
0
255
130
0
255
130
0
255
85
85
255
223
130
255
223
130
255
85
85
170
85
0
255
190
130
255
255
186
255
255
186
255
130
0
170
85
0
255
85
85
255
85
85
255
85
85
255
223
130
255
130
0
255
130
0
170
85
0
85
255
255
85
255
255
85
255
255
85
255
255
85
255
255
255
130
0
255
130
0
255
223
130
255
85
85
255
223
130
255
0
0
113
0
0
170
85
0
255
223
130
255
223
130
170
85
0
113
0
0
255
0
0
255
0
0
255
0
0
255
223
130
255
130
0
255
130
0
113
57
0
85
255
255
85
255
255
85
255
255
85
255
255
85
255
255
170
85
0
255
130
0
255
190
130
170
0
0
255
130
130
170
0
0
170
0
0
113
0
0
113
57
0
113
57
0
170
0
0
170
0
0
170
0
0
255
0
0
255
0
0
255
190
130
255
130
0
170
85
0
85
255
255
85
255
255
85
255
255
85
255
255
85
255
255
85
255
255
85
255
255
170
85
0
255
190
130
170
0
0
255
85
85
255
85
85
113
0
0
170
0
0
170
0
0
170
0
0
170
0
0
170
0
0
255
0
65
255
85
85
255
0
0
255
130
0
170
85
0
85
255
255
85
255
255
85
255
255
85
255
255
85
255
255
85
255
255
85
255
255
85
255
255
113
57
0
255
130
0
170
0
0
255
130
130
255
85
85
255
0
0
255
85
85
255
186
186
255
186
186
255
85
85
255
0
0
255
0
0
255
130
130
255
0
0
170
85
0
113
57
0
85
255
255
85
255
255
85
255
255
85
255
255
85
255
255
85
255
255
85
255
255
85
255
255
85
255
255
113
57
0
170
0
0
255
190
130
255
223
130
255
0
0
255
0
0
255
0
0
255
0
0
255
0
0
255
85
85
255
223
130
255
190
130
255
0
0
113
57
0
85
255
255
85
255
255
85
255
255
85
255
255
85
255
255
85
255
255
85
255
255
85
255
255
85
255
255
85
255
255
85
255
255
170
85
0
255
130
0
255
190
130
255
0
0
255
85
85
255
186
186
255
186
186
255
85
85
255
85
85
255
223
130
255
130
0
255
0
0
85
255
255
85
255
255
85
255
255
85
255
255
85
255
255
85
255
255
85
255
255
85
255
255
85
255
255
85
255
255
85
255
255
85
255
255
85
255
255
113
57
0
170
85
0
255
0
0
255
0
0
255
85
85
255
85
85
255
0
0
255
85
85
255
130
0
113
57
0
85
255
255
85
255
255
85
255
255
85
255
255
85
255
255
85
255
255
85
255
255
85
255
255
85
255
255
85
255
255
85
255
255
85
255
255
85
255
255
85
255
255
85
255
255
65
32
0
113
0
0
255
0
0
255
0
0
255
0
0
255
0
0
170
0
0
65
32
0
85
255
255
85
255
255
85
255
255
85
255
255
85
255
255
85
255
255
85
255
255
85
255
255
85
255
255
85
255
255
85
255
255
85
255
255
85
255
255
113
57
0
113
57
0
113
57
0
170
85
0
170
85
0
170
85
0
170
85
0
170
85
0
170
85
0
170
85
0
170
85
0
113
57
0
113
57
0
113
57
0
85
255
255
85
255
255
85
255
255
85
255
255
85
255
255
85
255
255
85
255
255
85
255
255
65
40
32
113
57
0
113
57
0
113
57
0
170
85
0
170
85
0
255
130
0
255
130
0
255
130
0
255
130
0
255
130
0
255
130
0
170
85
0
170
85
0
113
57
0
113
57
0
113
57
0
65
40
32
85
255
255
85
255
255
85
255
255
85
255
255
85
255
255
65
40
32
113
57
0
170
85
0
170
85
0
255
130
0
255
130
0
255
130
0
255
190
130
255
190
130
255
190
130
255
190
130
255
190
130
255
130
0
255
130
0
170
85
0
170
85
0
170
85
0
170
85
0
113
57
0
65
40
32
85
255
255
85
255
255
85
255
255
85
255
255
65
40
32
113
57
0
170
85
0
255
130
0
255
130
0
255
130
0
255
190
130
255
190
130
255
223
130
255
223
130
255
223
130
255
190
130
255
130
0
255
130
0
255
130
0
170
85
0
170
85
0
170
85
0
113
57
0
0
0
0
85
255
255
85
255
255
85
255
255
85
255
255
65
40
32
113
57
0
255
130
0
255
130
0
255
130
0
255
130
0
255
190
130
255
190
130
255
223
130
255
223
130
255
223
130
255
190
130
255
130
0
255
130
0
170
85
0
170
85
0
170
85
0
170
85
0
113
57
0
0
0
0
85
255
255
85
255
255
85
255
255
85
255
255
0
0
0
113
57
0
170
85
0
255
130
0
255
130
0
255
130
0
255
190
130
255
190
130
255
223
130
255
223
130
255
223
130
255
190
130
255
130
0
255
130
0
170
85
0
170
85
0
170
85
0
113
57
0
65
40
32
65
40
32
85
255
255
85
255
255
85
255
255
85
255
255
0
0
0
113
57
0
170
85
0
255
130
0
255
130
0
255
130
0
255
130
0
255
190
130
255
223
130
255
223
130
255
190
130
255
190
130
255
130
0
255
130
0
170
85
0
170
85
0
170
85
0
113
57
0
65
40
32
65
40
32
85
255
255
85
255
255
85
255
255
85
255
255
0
0
0
255
0
0
170
85
0
255
130
0
255
130
0
255
130
0
255
130
0
255
190
130
255
190
130
255
190
130
255
190
130
255
190
130
255
130
0
255
130
0
170
85
0
170
85
0
170
85
0
113
57
0
65
40
32
65
40
32
85
255
255
85
255
255
85
255
255
85
255
255
65
40
32
113
0
0
170
85
0
170
85
0
255
130
0
255
130
0
255
130
0
255
130
0
255
190
130
255
190
130
255
130
0
255
130
0
255
130
0
255
130
0
170
85
0
170
85
0
170
85
0
113
57
0
16
16
16
65
40
32
85
255
255
85
255
255
85
255
255
85
255
255
65
40
32
113
0
0
170
0
0
65
32
0
113
57
0
113
57
0
255
130
0
255
130
0
255
130
0
255
130
0
255
130
0
255
130
0
170
85
0
170
85
0
113
57
0
255
0
0
170
85
0
113
57
0
65
40
32
113
57
0
85
255
255
85
255
255
85
255
255
85
255
255
65
40
32
65
40
32
65
32
0
65
0
0
65
32
0
65
32
0
113
57
0
170
85
0
255
130
0
170
85
0
170
85
0
170
85
0
255
0
0
170
0
0
170
0
0
113
0
0
113
57
0
65
40
32
65
40
32
113
57
0
85
255
255
85
255
255
85
255
255
85
255
255
113
57
0
170
0
0
65
0
0
65
0
0
65
0
0
0
0
0
65
32
0
170
0
0
170
85
0
170
85
0
170
85
0
255
0
0
255
0
0
113
57
0
113
0
0
113
0
0
113
57
0
113
0
0
113
57
0
113
57
0
85
255
255
85
255
255
255
190
130
85
255
255
113
57
0
113
57
0
65
0
0
170
0
0
65
0
0
0
0
0
0
0
0
65
32
0
170
85
0
113
57
0
113
57
0
255
0
0
113
0
0
113
57
0
113
0
0
65
32
0
65
40
32
255
0
0
113
57
0
113
57
0
85
255
255
255
190
130
255
190
130
85
255
255
113
57
0
170
85
0
170
0
0
255
0
0
170
0
0
65
0
0
113
0
0
65
0
0
113
57
0
113
0
0
113
57
0
113
0
0
113
0
0
65
40
32
170
0
0
65
32
0
65
32
0
255
0
0
170
85
0
113
57
0
85
255
255
255
190
130
255
130
0
65
32
0
113
57
0
170
85
0
170
0
0
255
0
0
255
0
0
255
0
0
170
0
0
65
0
0
113
57
0
113
0
0
65
40
32
113
0
0
113
57
0
65
40
32
170
0
0
65
32
0
113
57
0
255
0
0
170
85
0
113
57
0
65
32
0
255
130
0
170
85
0
65
32
0
113
57
0
255
130
0
255
0
0
255
0
0
255
0
0
113
57
0
65
40
32
113
0
0
170
0
0
170
85
0
170
85
0
65
40
32
170
85
0
113
57
0
255
0
0
65
32
0
255
0
0
255
0
0
255
130
0
113
57
0
65
32
0
170
85
0
170
85
0
113
57
0
113
57
0
255
130
0
255
0
0
255
0
0
255
130
0
255
130
0
65
40
32
113
57
0
65
40
32
65
40
32
255
130
0
255
190
130
255
130
0
255
130
0
255
0
65
255
130
0
255
130
0
255
0
65
255
130
0
113
57
0
113
57
0
170
85
0
113
57
0
113
57
0
113
57
0
255
130
0
255
85
85
170
85
0
255
223
130
255
130
0
255
130
0
170
85
0
113
57
0
113
57
0
65
40
32
113
57
0
170
85
0
255
130
0
255
223
130
255
130
0
255
130
0
113
57
0
255
130
0
170
85
0
113
57
0
113
57
0
85
255
255
113
57
0
170
85
0
255
85
85
255
186
186
170
85
0
170
85
0
170
85
0
170
85
0
113
57
0
170
85
0
255
130
0
255
130
0
170
85
0
113
57
0
170
85
0
170
85
0
170
85
0
170
85
0
255
0
0
255
190
130
170
85
0
113
57
0
85
255
255
85
255
255
113
57
0
170
85
0
255
223
130
255
186
186
255
0
0
170
85
0
170
85
0
255
130
0
255
223
130
255
223
130
255
255
186
255
255
255
255
223
130
255
223
130
255
130
0
170
85
0
170
85
0
255
0
0
255
0
0
255
223
130
170
85
0
113
57
0
85
255
255
85
255
255
113
57
0
170
85
0
255
130
0
255
85
85
255
186
186
255
186
186
255
255
186
255
255
186
255
255
186
255
255
186
255
255
255
255
255
255
255
255
85
255
255
186
255
255
186
255
202
186
255
130
130
255
255
255
255
85
85
255
130
0
170
85
0
113
57
0
85
255
255
85
255
255
85
255
255
170
85
0
255
130
0
255
130
0
255
130
130
255
130
130
255
255
186
255
223
130
255
190
130
255
223
130
255
255
255
255
255
255
255
223
130
255
190
130
255
223
130
255
130
130
255
85
85
255
255
186
255
85
85
255
130
0
170
85
0
85
255
255
85
255
255
85
255
255
85
255
255
170
85
0
255
130
0
255
130
0
255
85
85
255
85
85
255
223
130
255
85
85
170
85
0
255
190
130
255
255
186
255
255
186
255
130
0
170
85
0
255
85
85
255
85
85
255
85
85
255
223
130
255
0
0
255
130
0
170
85
0
85
255
255
85
255
255
85
255
255
85
255
255
113
57
0
255
130
0
255
130
0
255
0
0
255
0
0
255
223
130
255
0
0
113
0
0
170
85
0
255
223
130
255
223
130
170
85
0
113
0
0
255
0
0
255
0
0
255
0
0
255
223
130
255
0
0
255
130
0
113
57
0
85
255
255
85
255
255
85
255
255
85
255
255
85
255
255
170
85
0
255
130
0
255
0
0
170
0
0
255
130
130
170
0
0
255
0
0
113
0
0
113
57
0
113
57
0
170
0
0
255
0
0
255
0
0
255
0
0
255
0
0
255
190
130
170
0
0
170
85
0
85
255
255
85
255
255
85
255
255
85
255
255
85
255
255
85
255
255
113
57
0
170
85
0
170
0
0
170
0
0
255
85
85
255
0
0
255
0
0
255
0
0
170
0
0
170
0
0
255
0
0
255
0
0
255
0
0
255
85
85
255
0
0
255
190
130
170
0
0
113
57
0
85
255
255
85
255
255
85
255
255
85
255
255
85
255
255
85
255
255
85
255
255
170
0
0
170
0
0
170
0
0
255
130
130
255
85
85
255
0
0
255
85
85
255
186
186
255
186
186
255
85
85
255
0
0
255
0
0
255
85
85
255
0
0
255
130
0
170
0
0
85
255
255
85
255
255
85
255
255
85
255
255
85
255
255
85
255
255
85
255
255
85
255
255
85
255
255
170
0
0
170
0
0
255
0
65
255
0
0
255
0
0
255
0
0
113
0
0
113
0
0
170
0
0
255
0
0
255
85
85
255
190
130
255
0
0
255
130
0
85
255
255
85
255
255
85
255
255
85
255
255
85
255
255
85
255
255
85
255
255
85
255
255
85
255
255
85
255
255
85
255
255
170
0
0
255
0
0
255
85
85
170
0
0
255
85
85
255
186
186
255
186
186
255
85
85
255
85
85
255
223
130
255
130
0
255
0
0
85
255
255
85
255
255
85
255
255
85
255
255
85
255
255
85
255
255
85
255
255
85
255
255
85
255
255
85
255
255
85
255
255
85
255
255
85
255
255
170
0
0
255
0
0
170
0
0
170
0
0
255
85
85
255
85
85
255
0
0
255
0
0
255
130
0
113
57
0
85
255
255
85
255
255
85
255
255
85
255
255
85
255
255
85
255
255
85
255
255
85
255
255
85
255
255
85
255
255
85
255
255
85
255
255
85
255
255
85
255
255
85
255
255
85
255
255
113
0
0
255
0
0
113
0
0
113
0
0
170
0
0
170
0
0
85
255
255
85
255
255
85
255
255
85
255
255
85
255
255
85
255
255
85
255
255
85
255
255
85
255
255
