P3
# CREATOR: GIMP PNM Filter Version 1.1
52 67
255
255
255
255
255
255
255
255
255
255
255
255
255
255
255
255
255
255
255
255
255
255
255
255
255
255
255
255
255
255
255
255
255
255
255
255
255
255
255
255
255
255
255
255
255
255
255
255
255
255
255
255
255
255
255
255
255
255
255
255
255
255
255
255
255
255
255
255
255
255
255
255
255
255
255
255
255
255
255
255
255
255
255
255
255
255
255
255
255
255
255
255
255
255
255
255
255
255
255
255
255
255
255
255
255
255
255
255
255
255
255
255
255
255
255
255
255
255
255
255
255
255
255
255
255
255
255
255
255
255
255
255
255
255
255
255
255
255
255
255
255
255
255
255
255
255
255
255
255
255
255
255
255
255
255
255
255
255
255
255
255
255
255
255
255
255
255
255
255
255
255
255
255
255
255
255
255
255
255
255
255
255
255
255
255
255
255
255
255
255
255
255
255
255
255
255
255
255
255
255
255
255
255
255
255
255
255
255
255
255
255
255
255
255
255
255
255
255
255
255
255
255
255
255
255
255
255
255
255
255
255
255
255
255
255
255
255
255
255
255
255
255
255
255
255
255
255
255
255
255
255
255
255
255
255
255
255
255
255
255
255
255
255
255
255
255
255
255
255
255
255
255
255
255
255
255
255
255
255
255
255
255
255
255
255
255
255
255
255
255
255
255
255
255
255
255
255
255
255
255
255
255
255
255
255
255
255
255
255
255
255
255
255
255
255
255
255
255
255
255
255
255
255
255
255
255
255
255
255
255
255
255
255
255
255
255
255
255
255
255
255
255
255
255
255
255
255
255
255
255
255
255
255
255
255
255
255
255
255
255
255
255
255
255
255
255
255
255
255
255
255
255
255
255
255
255
255
255
255
255
255
255
255
255
255
255
255
255
255
255
255
255
255
255
255
255
255
255
255
255
255
255
255
255
255
255
255
255
255
255
255
255
255
255
255
255
255
255
255
255
255
255
255
255
255
255
255
255
255
255
255
255
255
255
255
255
255
255
255
255
255
255
255
255
255
255
255
255
255
255
255
255
255
255
255
255
255
255
255
255
255
255
255
255
255
255
255
255
255
255
255
255
255
255
255
255
255
255
255
255
255
255
255
255
255
255
255
255
255
255
255
255
255
255
255
255
255
255
255
255
255
255
255
255
255
255
255
255
255
255
255
255
255
255
255
255
255
255
255
255
255
255
255
255
255
255
255
255
255
255
255
255
255
255
255
255
255
255
255
255
255
255
255
255
255
255
255
255
255
255
255
255
255
255
255
255
255
255
255
255
255
255
255
255
255
255
255
255
255
255
255
255
255
255
255
255
255
255
255
255
255
255
255
255
255
255
255
255
255
255
255
255
255
255
255
255
255
255
255
255
255
255
255
255
255
255
255
255
255
255
255
255
255
255
255
255
255
255
255
255
255
255
255
255
255
255
255
255
255
255
255
255
255
255
255
255
255
255
255
255
255
255
255
255
255
255
255
255
255
255
255
255
255
255
255
255
255
255
255
255
255
255
255
255
255
255
255
255
255
255
255
255
255
255
255
255
255
255
255
255
255
255
255
255
255
255
255
255
255
255
255
255
255
255
255
255
255
255
255
255
255
255
255
255
255
255
255
255
255
255
255
255
255
255
255
255
255
255
255
255
255
255
255
255
255
255
255
255
255
255
255
255
255
255
255
255
255
255
255
255
255
255
255
255
255
255
255
255
255
255
255
255
255
255
255
255
255
255
255
255
255
255
255
255
255
255
255
255
255
255
255
255
255
255
255
255
255
255
255
255
255
255
255
255
255
255
255
255
255
255
255
255
255
255
255
255
255
255
255
255
255
255
255
255
255
255
255
255
255
255
255
255
255
255
255
255
255
65
49
0
65
49
0
113
57
0
113
57
0
113
57
0
113
57
0
113
57
0
113
57
0
113
57
0
113
57
0
170
85
0
170
85
0
170
85
0
170
85
0
170
85
0
170
85
0
170
85
0
170
85
0
170
85
0
170
85
0
113
57
0
113
57
0
113
57
0
113
57
0
113
57
0
113
57
0
65
49
0
65
49
0
255
255
255
255
255
255
255
255
255
255
255
255
255
255
255
255
255
255
255
255
255
255
255
255
255
255
255
255
255
255
255
255
255
255
255
255
255
255
255
255
255
255
255
255
255
255
255
255
255
255
255
255
255
255
255
255
255
255
255
255
255
255
255
255
255
255
255
255
255
255
255
255
65
49
0
65
49
0
113
57
0
113
57
0
113
57
0
113
57
0
113
57
0
113
57
0
113
57
0
113
57
0
170
85
0
170
85
0
170
85
0
170
85
0
170
85
0
170
85
0
170
85
0
170
85
0
170
85
0
170
85
0
113
57
0
113
57
0
113
57
0
113
57
0
113
57
0
113
57
0
65
49
0
65
49
0
255
255
255
255
255
255
255
255
255
255
255
255
255
255
255
255
255
255
255
255
255
255
255
255
255
255
255
255
255
255
255
255
255
255
255
255
255
255
255
255
255
255
255
255
255
255
255
255
255
255
255
255
255
255
255
255
255
255
255
255
65
49
32
65
49
32
113
57
0
113
57
0
113
57
0
113
57
0
170
85
0
170
85
0
170
85
0
170
85
0
255
130
0
255
130
0
255
190
130
255
190
130
255
190
130
255
190
130
255
190
130
255
190
130
255
190
130
255
190
130
255
190
130
255
190
130
255
130
0
255
130
0
170
85
0
170
85
0
170
85
0
170
85
0
113
57
0
113
57
0
113
57
0
113
57
0
113
57
0
113
57
0
65
49
32
65
49
32
255
255
255
255
255
255
255
255
255
255
255
255
255
255
255
255
255
255
255
255
255
255
255
255
255
255
255
255
255
255
255
255
255
255
255
255
255
255
255
255
255
255
255
255
255
255
255
255
65
49
32
65
49
32
113
57
0
113
57
0
113
57
0
113
57
0
170
85
0
170
85
0
170
85
0
170
85
0
255
130
0
255
130
0
255
190
130
255
190
130
255
190
130
255
190
130
255
190
130
255
190
130
255
190
130
255
190
130
255
190
130
255
190
130
255
130
0
255
130
0
170
85
0
170
85
0
170
85
0
170
85
0
113
57
0
113
57
0
113
57
0
113
57
0
113
57
0
113
57
0
65
49
32
65
49
32
255
255
255
255
255
255
255
255
255
255
255
255
255
255
255
255
255
255
255
255
255
255
255
255
255
255
255
255
255
255
255
255
255
255
255
255
255
255
255
255
255
255
65
49
32
65
49
32
113
57
0
113
57
0
170
85
0
170
85
0
170
85
0
170
85
0
255
130
0
255
130
0
255
190
130
255
190
130
255
190
130
255
190
130
255
190
130
255
190
130
255
190
130
255
190
130
255
130
0
255
130
0
170
85
0
170
85
0
170
85
0
170
85
0
170
85
0
170
85
0
170
85
0
170
85
0
170
85
0
170
85
0
170
85
0
170
85
0
170
85
0
170
85
0
113
57
0
113
57
0
65
49
0
65
49
0
65
49
32
65
49
32
255
255
255
255
255
255
255
255
255
255
255
255
255
255
255
255
255
255
255
255
255
255
255
255
255
255
255
255
255
255
255
255
255
255
255
255
65
49
32
65
49
32
113
57
0
113
57
0
170
85
0
170
85
0
170
85
0
170
85
0
255
130
0
255
130
0
255
190
130
255
190
130
255
190
130
255
190
130
255
190
130
255
190
130
255
190
130
255
190
130
255
130
0
255
130
0
170
85
0
170
85
0
170
85
0
170
85
0
170
85
0
170
85
0
170
85
0
170
85
0
170
85
0
170
85
0
170
85
0
170
85
0
170
85
0
170
85
0
113
57
0
113
57
0
65
49
0
65
49
0
65
49
32
65
49
32
255
255
255
255
255
255
255
255
255
255
255
255
255
255
255
255
255
255
255
255
255
255
255
255
255
255
255
255
255
255
255
255
255
255
255
255
65
49
32
65
49
32
170
85
0
170
85
0
170
85
0
170
85
0
170
85
0
170
85
0
170
85
0
170
85
0
170
85
0
170
85
0
255
130
0
255
130
0
170
85
0
170
85
0
255
130
0
255
130
0
170
85
0
170
85
0
255
130
0
255
130
0
170
85
0
170
85
0
170
85
0
170
85
0
170
85
0
170
85
0
170
85
0
170
85
0
113
57
0
113
57
0
113
57
0
113
57
0
65
49
32
65
49
32
65
49
32
65
49
32
16
16
16
16
16
16
255
255
255
255
255
255
255
255
255
255
255
255
255
255
255
255
255
255
255
255
255
255
255
255
255
255
255
255
255
255
255
255
255
255
255
255
65
49
32
65
49
32
170
85
0
170
85
0
170
85
0
170
85
0
170
85
0
170
85
0
170
85
0
170
85
0
170
85
0
170
85
0
255
130
0
255
130
0
170
85
0
170
85
0
255
130
0
255
130
0
170
85
0
170
85
0
255
130
0
255
130
0
170
85
0
170
85
0
170
85
0
170
85
0
170
85
0
170
85
0
170
85
0
170
85
0
113
57
0
113
57
0
113
57
0
113
57
0
65
49
32
65
49
32
65
49
32
65
49
32
16
16
16
16
16
16
255
255
255
255
255
255
255
255
255
255
255
255
255
255
255
255
255
255
255
255
255
255
255
255
255
255
255
255
255
255
16
16
16
16
16
16
65
32
0
65
32
0
113
57
0
113
57
0
170
85
0
170
85
0
113
57
0
113
57
0
170
85
0
170
85
0
170
85
0
170
85
0
170
85
0
170
85
0
170
85
0
170
85
0
170
85
0
170
85
0
170
85
0
170
85
0
65
49
0
65
49
0
170
85
0
170
85
0
113
57
0
113
57
0
65
49
0
65
49
0
113
57
0
113
57
0
65
49
0
65
49
0
65
49
32
65
49
32
16
16
16
16
16
16
16
16
16
16
16
16
16
16
16
16
16
16
16
16
16
16
16
16
255
255
255
255
255
255
255
255
255
255
255
255
255
255
255
255
255
255
255
255
255
255
255
255
16
16
16
16
16
16
65
32
0
65
32
0
113
57
0
113
57
0
170
85
0
170
85
0
113
57
0
113
57
0
170
85
0
170
85
0
170
85
0
170
85
0
170
85
0
170
85
0
170
85
0
170
85
0
170
85
0
170
85
0
170
85
0
170
85
0
65
49
0
65
49
0
170
85
0
170
85
0
113
57
0
113
57
0
65
49
0
65
49
0
113
57
0
113
57
0
65
49
0
65
49
0
65
49
32
65
49
32
16
16
16
16
16
16
16
16
16
16
16
16
16
16
16
16
16
16
16
16
16
16
16
16
255
255
255
255
255
255
255
255
255
255
255
255
255
255
255
255
255
255
255
255
255
255
255
255
16
16
16
16
16
16
65
32
0
65
32
0
65
49
0
65
49
0
113
57
0
113
57
0
113
57
0
113
57
0
170
85
0
170
85
0
113
57
0
113
57
0
170
85
0
170
85
0
113
57
0
113
57
0
113
57
0
113
57
0
170
85
0
170
85
0
113
57
0
113
57
0
65
49
0
65
49
0
113
57
0
113
57
0
65
49
0
65
49
0
65
32
0
65
32
0
113
57
0
113
57
0
16
16
16
16
16
16
65
49
32
65
49
32
65
49
32
65
49
32
65
32
0
65
32
0
16
16
16
16
16
16
255
255
255
255
255
255
255
255
255
255
255
255
255
255
255
255
255
255
255
255
255
255
255
255
16
16
16
16
16
16
65
32
0
65
32
0
65
49
0
65
49
0
113
57
0
113
57
0
113
57
0
113
57
0
170
85
0
170
85
0
113
57
0
113
57
0
170
85
0
170
85
0
113
57
0
113
57
0
113
57
0
113
57
0
170
85
0
170
85
0
113
57
0
113
57
0
65
49
0
65
49
0
113
57
0
113
57
0
65
49
0
65
49
0
65
32
0
65
32
0
113
57
0
113
57
0
16
16
16
16
16
16
65
49
32
65
49
32
65
49
32
65
49
32
65
32
0
65
32
0
16
16
16
16
16
16
255
255
255
255
255
255
255
255
255
255
255
255
255
255
255
255
255
255
255
255
255
255
255
255
16
16
16
16
16
16
65
49
0
65
49
0
65
49
0
65
49
0
170
85
0
170
85
0
170
85
0
170
85
0
113
57
0
113
57
0
170
85
0
170
85
0
113
57
0
113
57
0
113
57
0
113
57
0
170
85
0
170
85
0
113
57
0
113
57
0
113
57
0
113
57
0
170
85
0
170
85
0
170
85
0
170
85
0
170
85
0
170
85
0
170
85
0
170
85
0
170
85
0
170
85
0
113
57
0
113
57
0
65
49
0
65
49
0
65
32
0
65
32
0
65
49
0
65
49
0
16
16
16
16
16
16
255
255
255
255
255
255
255
255
255
255
255
255
255
255
255
255
255
255
255
255
255
255
255
255
16
16
16
16
16
16
65
49
0
65
49
0
65
49
0
65
49
0
170
85
0
170
85
0
170
85
0
170
85
0
113
57
0
113
57
0
170
85
0
170
85
0
113
57
0
113
57
0
113
57
0
113
57
0
170
85
0
170
85
0
113
57
0
113
57
0
113
57
0
113
57
0
170
85
0
170
85
0
170
85
0
170
85
0
170
85
0
170
85
0
170
85
0
170
85
0
170
85
0
170
85
0
113
57
0
113
57
0
65
49
0
65
49
0
65
32
0
65
32
0
65
49
0
65
49
0
16
16
16
16
16
16
255
255
255
255
255
255
255
255
255
255
255
255
255
255
255
255
255
255
255
255
255
255
255
255
16
16
16
16
16
16
65
49
0
65
49
0
113
57
0
113
57
0
170
85
0
170
85
0
170
85
0
170
85
0
170
85
0
170
85
0
113
57
0
113
57
0
255
130
0
255
130
0
113
57
0
113
57
0
170
85
0
170
85
0
170
85
0
170
85
0
255
130
0
255
130
0
255
130
0
255
130
0
170
85
0
170
85
0
255
130
0
255
130
0
170
85
0
170
85
0
170
85
0
170
85
0
170
85
0
170
85
0
113
57
0
113
57
0
65
49
0
65
49
0
65
49
0
65
49
0
16
16
16
16
16
16
255
255
255
255
255
255
255
255
255
255
255
255
255
255
255
255
255
255
255
255
255
255
255
255
16
16
16
16
16
16
65
49
0
65
49
0
113
57
0
113
57
0
170
85
0
170
85
0
170
85
0
170
85
0
170
85
0
170
85
0
113
57
0
113
57
0
255
130
0
255
130
0
113
57
0
113
57
0
170
85
0
170
85
0
170
85
0
170
85
0
255
130
0
255
130
0
255
130
0
255
130
0
170
85
0
170
85
0
255
130
0
255
130
0
170
85
0
170
85
0
170
85
0
170
85
0
170
85
0
170
85
0
113
57
0
113
57
0
65
49
0
65
49
0
65
49
0
65
49
0
16
16
16
16
16
16
255
255
255
255
255
255
255
255
255
255
255
255
255
255
255
255
255
255
255
255
255
255
255
255
16
16
16
16
16
16
65
49
0
65
49
0
113
57
0
113
57
0
170
85
0
170
85
0
255
130
0
255
130
0
255
130
0
255
130
0
255
130
0
255
130
0
255
130
0
255
130
0
255
130
0
255
130
0
255
130
0
255
130
0
255
130
0
255
130
0
255
130
0
255
130
0
255
130
0
255
130
0
255
130
0
255
130
0
255
130
0
255
130
0
255
130
0
255
130
0
255
130
0
255
130
0
255
130
0
255
130
0
170
85
0
170
85
0
113
57
0
113
57
0
65
49
0
65
49
0
16
16
16
16
16
16
255
255
255
255
255
255
255
255
255
255
255
255
255
255
255
255
255
255
255
255
255
255
255
255
16
16
16
16
16
16
65
49
0
65
49
0
113
57
0
113
57
0
170
85
0
170
85
0
255
130
0
255
130
0
255
130
0
255
130
0
255
130
0
255
130
0
255
130
0
255
130
0
255
130
0
255
130
0
255
130
0
255
130
0
255
130
0
255
130
0
255
130
0
255
130
0
255
130
0
255
130
0
255
130
0
255
130
0
255
130
0
255
130
0
255
130
0
255
130
0
255
130
0
255
130
0
255
130
0
255
130
0
170
85
0
170
85
0
113
57
0
113
57
0
65
49
0
65
49
0
16
16
16
16
16
16
255
255
255
255
255
255
255
255
255
255
255
255
255
255
255
255
255
255
255
255
255
255
255
255
16
16
16
16
16
16
65
49
0
65
49
0
170
85
0
170
85
0
170
85
0
170
85
0
255
190
130
255
190
130
255
190
130
255
190
130
255
190
130
255
190
130
255
130
0
255
130
0
255
130
0
255
130
0
255
130
0
255
130
0
255
130
0
255
130
0
255
130
0
255
130
0
255
130
0
255
130
0
255
130
0
255
130
0
255
130
0
255
130
0
255
190
130
255
190
130
255
190
130
255
190
130
255
190
130
255
190
130
170
85
0
170
85
0
113
57
0
113
57
0
65
49
0
65
49
0
16
16
16
16
16
16
255
255
255
255
255
255
255
255
255
255
255
255
255
255
255
255
255
255
255
255
255
255
255
255
16
16
16
16
16
16
65
49
0
65
49
0
170
85
0
170
85
0
170
85
0
170
85
0
255
190
130
255
190
130
255
190
130
255
190
130
255
190
130
255
190
130
255
130
0
255
130
0
255
130
0
255
130
0
255
130
0
255
130
0
255
130
0
255
130
0
255
130
0
255
130
0
255
130
0
255
130
0
255
130
0
255
130
0
255
130
0
255
130
0
255
190
130
255
190
130
255
190
130
255
190
130
255
190
130
255
190
130
170
85
0
170
85
0
113
57
0
113
57
0
65
49
0
65
49
0
16
16
16
16
16
16
255
255
255
255
255
255
255
255
255
255
255
255
255
255
255
255
255
255
255
255
255
255
255
255
16
16
16
16
16
16
65
49
0
65
49
0
170
85
0
170
85
0
170
85
0
170
85
0
255
190
130
255
190
130
255
223
130
255
223
130
255
223
130
255
223
130
255
190
130
255
190
130
255
190
130
255
190
130
255
130
0
255
130
0
170
85
0
170
85
0
170
85
0
170
85
0
255
130
0
255
130
0
255
190
130
255
190
130
255
190
130
255
190
130
255
223
130
255
223
130
255
223
130
255
223
130
255
190
130
255
190
130
170
85
0
170
85
0
170
85
0
170
85
0
65
49
0
65
49
0
16
16
16
16
16
16
255
255
255
255
255
255
255
255
255
255
255
255
255
255
255
255
255
255
255
255
255
255
255
255
16
16
16
16
16
16
65
49
0
65
49
0
170
85
0
170
85
0
170
85
0
170
85
0
255
190
130
255
190
130
255
223
130
255
223
130
255
223
130
255
223
130
255
190
130
255
190
130
255
190
130
255
190
130
255
130
0
255
130
0
170
85
0
170
85
0
170
85
0
170
85
0
255
130
0
255
130
0
255
190
130
255
190
130
255
190
130
255
190
130
255
223
130
255
223
130
255
223
130
255
223
130
255
190
130
255
190
130
170
85
0
170
85
0
170
85
0
170
85
0
65
49
0
65
49
0
16
16
16
16
16
16
255
255
255
255
255
255
255
255
255
255
255
255
255
255
255
255
255
255
255
255
255
255
255
255
16
16
16
16
16
16
65
49
0
65
49
0
170
85
0
170
85
0
255
130
0
255
130
0
255
223
130
255
223
130
255
239
186
255
239
186
255
239
186
255
239
186
255
223
130
255
223
130
255
223
130
255
223
130
255
190
130
255
190
130
255
190
130
255
190
130
255
190
130
255
190
130
255
190
130
255
190
130
255
223
130
255
223
130
255
223
130
255
223
130
170
85
0
170
85
0
113
57
0
113
57
0
0
0
0
0
0
0
65
32
0
65
32
0
170
85
0
170
85
0
65
49
0
65
49
0
16
16
16
16
16
16
255
255
255
255
255
255
255
255
255
255
255
255
255
255
255
255
255
255
255
255
255
255
255
255
16
16
16
16
16
16
65
49
0
65
49
0
170
85
0
170
85
0
255
130
0
255
130
0
255
223
130
255
223
130
255
239
186
255
239
186
255
239
186
255
239
186
255
223
130
255
223
130
255
223
130
255
223
130
255
190
130
255
190
130
255
190
130
255
190
130
255
190
130
255
190
130
255
190
130
255
190
130
255
223
130
255
223
130
255
223
130
255
223
130
170
85
0
170
85
0
113
57
0
113
57
0
0
0
0
0
0
0
65
32
0
65
32
0
170
85
0
170
85
0
65
49
0
65
49
0
16
16
16
16
16
16
255
255
255
255
255
255
255
255
255
255
255
255
255
255
255
255
255
255
255
130
0
255
130
0
113
57
0
113
57
0
65
49
0
65
49
0
170
85
0
170
85
0
65
32
0
65
32
0
65
32
0
65
32
0
113
57
0
113
57
0
255
130
0
255
130
0
255
223
130
255
223
130
255
239
186
255
239
186
255
190
130
255
190
130
255
255
186
255
255
186
255
255
186
255
255
186
255
190
130
255
190
130
255
239
186
255
239
186
170
85
0
170
85
0
0
0
0
0
0
0
65
32
0
65
32
0
170
85
0
170
85
0
170
85
0
170
85
0
170
85
0
170
85
0
65
49
0
65
49
0
113
57
0
113
57
0
255
130
0
255
130
0
255
255
255
255
255
255
255
255
255
255
255
255
255
130
0
255
130
0
113
57
0
113
57
0
65
49
0
65
49
0
170
85
0
170
85
0
65
32
0
65
32
0
65
32
0
65
32
0
113
57
0
113
57
0
255
130
0
255
130
0
255
223
130
255
223
130
255
239
186
255
239
186
255
190
130
255
190
130
255
255
186
255
255
186
255
255
186
255
255
186
255
190
130
255
190
130
255
239
186
255
239
186
170
85
0
170
85
0
0
0
0
0
0
0
65
32
0
65
32
0
170
85
0
170
85
0
170
85
0
170
85
0
170
85
0
170
85
0
65
49
0
65
49
0
113
57
0
113
57
0
255
130
0
255
130
0
255
255
255
255
255
255
255
255
255
255
255
255
255
130
0
255
130
0
113
57
0
113
57
0
65
32
0
65
32
0
255
130
0
255
130
0
170
85
0
170
85
0
113
57
0
113
57
0
65
32
0
65
32
0
65
32
0
65
32
0
65
32
0
65
32
0
0
0
0
0
0
0
113
57
0
113
57
0
255
130
0
255
130
0
255
130
0
255
130
0
113
57
0
113
57
0
0
0
0
0
0
0
0
0
0
0
0
0
0
0
0
0
0
0
65
32
0
65
32
0
113
57
0
113
57
0
255
130
0
255
130
0
170
85
0
170
85
0
65
32
0
65
32
0
113
57
0
113
57
0
255
130
0
255
130
0
255
255
255
255
255
255
255
255
255
255
255
255
255
130
0
255
130
0
113
57
0
113
57
0
65
32
0
65
32
0
255
130
0
255
130
0
170
85
0
170
85
0
113
57
0
113
57
0
65
32
0
65
32
0
65
32
0
65
32
0
65
32
0
65
32
0
0
0
0
0
0
0
113
57
0
113
57
0
255
130
0
255
130
0
255
130
0
255
130
0
113
57
0
113
57
0
0
0
0
0
0
0
0
0
0
0
0
0
0
0
0
0
0
0
65
32
0
65
32
0
113
57
0
113
57
0
255
130
0
255
130
0
170
85
0
170
85
0
65
32
0
65
32
0
113
57
0
113
57
0
255
130
0
255
130
0
255
255
255
255
255
255
255
255
255
255
255
255
170
85
0
170
85
0
113
57
0
113
57
0
113
85
0
113
85
0
255
130
0
255
130
0
170
85
0
170
85
0
170
170
170
170
170
170
239
239
239
239
239
239
138
138
138
138
138
138
0
0
0
0
0
0
0
0
0
0
0
0
65
49
0
65
49
0
113
57
0
113
57
0
113
57
0
113
57
0
65
49
0
65
49
0
0
0
0
0
0
0
101
101
101
101
101
101
239
239
239
239
239
239
138
138
138
138
138
138
0
0
0
0
0
0
170
85
0
170
85
0
255
130
0
255
130
0
113
85
0
113
85
0
113
57
0
113
57
0
170
85
0
170
85
0
255
255
255
255
255
255
255
255
255
255
255
255
170
85
0
170
85
0
113
57
0
113
57
0
113
85
0
113
85
0
255
130
0
255
130
0
170
85
0
170
85
0
170
170
170
170
170
170
239
239
239
239
239
239
138
138
138
138
138
138
0
0
0
0
0
0
0
0
0
0
0
0
65
49
0
65
49
0
113
57
0
113
57
0
113
57
0
113
57
0
65
49
0
65
49
0
0
0
0
0
0
0
101
101
101
101
101
101
239
239
239
239
239
239
138
138
138
138
138
138
0
0
0
0
0
0
170
85
0
170
85
0
255
130
0
255
130
0
113
85
0
113
85
0
113
57
0
113
57
0
170
85
0
170
85
0
255
255
255
255
255
255
255
255
255
255
255
255
113
57
0
113
57
0
113
57
0
113
57
0
170
85
0
170
85
0
255
130
0
255
130
0
170
85
0
170
85
0
255
130
0
255
130
0
255
223
130
255
223
130
255
130
0
255
130
0
113
57
0
113
57
0
113
57
0
113
57
0
170
85
0
170
85
0
255
190
130
255
190
130
255
190
130
255
190
130
170
85
0
170
85
0
113
57
0
113
57
0
113
57
0
113
57
0
255
130
0
255
130
0
255
223
130
255
223
130
255
130
0
255
130
0
170
85
0
170
85
0
255
130
0
255
130
0
170
85
0
170
85
0
113
57
0
113
57
0
113
57
0
113
57
0
255
255
255
255
255
255
255
255
255
255
255
255
113
57
0
113
57
0
113
57
0
113
57
0
170
85
0
170
85
0
255
130
0
255
130
0
170
85
0
170
85
0
255
130
0
255
130
0
255
223
130
255
223
130
255
130
0
255
130
0
113
57
0
113
57
0
113
57
0
113
57
0
170
85
0
170
85
0
255
190
130
255
190
130
255
190
130
255
190
130
170
85
0
170
85
0
113
57
0
113
57
0
113
57
0
113
57
0
255
130
0
255
130
0
255
223
130
255
223
130
255
130
0
255
130
0
170
85
0
170
85
0
255
130
0
255
130
0
170
85
0
170
85
0
113
57
0
113
57
0
113
57
0
113
57
0
255
255
255
255
255
255
255
255
255
255
255
255
170
85
0
170
85
0
113
57
0
113
57
0
170
85
0
170
85
0
255
190
130
255
190
130
255
190
130
255
190
130
255
190
130
255
190
130
255
130
0
255
130
0
170
85
0
170
85
0
255
130
0
255
130
0
255
190
130
255
190
130
255
130
0
255
130
0
255
255
186
255
255
186
255
255
186
255
255
186
255
130
0
255
130
0
255
190
130
255
190
130
255
130
0
255
130
0
170
85
0
170
85
0
255
130
0
255
130
0
255
190
130
255
190
130
255
190
130
255
190
130
255
190
130
255
190
130
170
85
0
170
85
0
113
57
0
113
57
0
170
85
0
170
85
0
255
255
255
255
255
255
255
255
255
255
255
255
170
85
0
170
85
0
113
57
0
113
57
0
170
85
0
170
85
0
255
190
130
255
190
130
255
190
130
255
190
130
255
190
130
255
190
130
255
130
0
255
130
0
170
85
0
170
85
0
255
130
0
255
130
0
255
190
130
255
190
130
255
130
0
255
130
0
255
255
186
255
255
186
255
255
186
255
255
186
255
130
0
255
130
0
255
190
130
255
190
130
255
130
0
255
130
0
170
85
0
170
85
0
255
130
0
255
130
0
255
190
130
255
190
130
255
190
130
255
190
130
255
190
130
255
190
130
170
85
0
170
85
0
113
57
0
113
57
0
170
85
0
170
85
0
255
255
255
255
255
255
255
255
255
255
255
255
170
85
0
170
85
0
113
57
0
113
57
0
170
85
0
170
85
0
255
190
130
255
190
130
255
223
130
255
223
130
255
223
130
255
223
130
255
223
130
255
223
130
255
190
130
255
190
130
255
223
130
255
223
130
255
239
186
255
239
186
255
223
130
255
223
130
255
239
186
255
239
186
255
239
186
255
239
186
255
223
130
255
223
130
255
239
186
255
239
186
255
223
130
255
223
130
255
190
130
255
190
130
255
223
130
255
223
130
255
223
130
255
223
130
255
223
130
255
223
130
255
190
130
255
190
130
170
85
0
170
85
0
113
57
0
113
57
0
170
85
0
170
85
0
255
255
255
255
255
255
255
255
255
255
255
255
170
85
0
170
85
0
113
57
0
113
57
0
170
85
0
170
85
0
255
190
130
255
190
130
255
223
130
255
223
130
255
223
130
255
223
130
255
223
130
255
223
130
255
190
130
255
190
130
255
223
130
255
223
130
255
239
186
255
239
186
255
223
130
255
223
130
255
239
186
255
239
186
255
239
186
255
239
186
255
223
130
255
223
130
255
239
186
255
239
186
255
223
130
255
223
130
255
190
130
255
190
130
255
223
130
255
223
130
255
223
130
255
223
130
255
223
130
255
223
130
255
190
130
255
190
130
170
85
0
170
85
0
113
57
0
113
57
0
170
85
0
170
85
0
255
255
255
255
255
255
255
255
255
255
255
255
255
255
255
255
255
255
113
57
0
113
57
0
170
85
0
170
85
0
255
130
0
255
130
0
255
130
0
255
130
0
255
190
130
255
190
130
255
190
130
255
190
130
255
223
130
255
223
130
255
255
186
255
255
186
255
223
130
255
223
130
255
190
130
255
190
130
255
255
186
255
255
186
255
255
255
255
255
255
255
190
130
255
190
130
255
223
130
255
223
130
255
255
186
255
255
186
255
223
130
255
223
130
255
190
130
255
190
130
255
190
130
255
190
130
255
130
0
255
130
0
255
130
0
255
130
0
170
85
0
170
85
0
113
57
0
113
57
0
255
255
255
255
255
255
255
255
255
255
255
255
255
255
255
255
255
255
255
255
255
255
255
255
113
57
0
113
57
0
170
85
0
170
85
0
255
130
0
255
130
0
255
130
0
255
130
0
255
190
130
255
190
130
255
190
130
255
190
130
255
223
130
255
223
130
255
255
186
255
255
186
255
223
130
255
223
130
255
190
130
255
190
130
255
255
186
255
255
186
255
255
255
255
255
255
255
190
130
255
190
130
255
223
130
255
223
130
255
255
186
255
255
186
255
223
130
255
223
130
255
190
130
255
190
130
255
190
130
255
190
130
255
130
0
255
130
0
255
130
0
255
130
0
170
85
0
170
85
0
113
57
0
113
57
0
255
255
255
255
255
255
255
255
255
255
255
255
255
255
255
255
255
255
255
255
255
255
255
255
113
57
0
113
57
0
170
85
0
170
85
0
170
85
0
170
85
0
255
130
0
255
130
0
255
190
130
255
190
130
255
223
130
255
223
130
255
239
186
255
239
186
255
190
130
255
190
130
255
130
0
255
130
0
170
85
0
170
85
0
255
190
130
255
190
130
255
190
130
255
190
130
170
85
0
170
85
0
255
130
0
255
130
0
255
190
130
255
190
130
255
239
186
255
239
186
255
223
130
255
223
130
255
190
130
255
190
130
255
130
0
255
130
0
170
85
0
170
85
0
170
85
0
170
85
0
113
57
0
113
57
0
255
255
255
255
255
255
255
255
255
255
255
255
255
255
255
255
255
255
255
255
255
255
255
255
113
57
0
113
57
0
170
85
0
170
85
0
170
85
0
170
85
0
255
130
0
255
130
0
255
190
130
255
190
130
255
223
130
255
223
130
255
239
186
255
239
186
255
190
130
255
190
130
255
130
0
255
130
0
170
85
0
170
85
0
255
190
130
255
190
130
255
190
130
255
190
130
170
85
0
170
85
0
255
130
0
255
130
0
255
190
130
255
190
130
255
239
186
255
239
186
255
223
130
255
223
130
255
190
130
255
190
130
255
130
0
255
130
0
170
85
0
170
85
0
170
85
0
170
85
0
113
57
0
113
57
0
255
255
255
255
255
255
255
255
255
255
255
255
255
255
255
255
255
255
255
255
255
255
255
255
255
255
255
255
255
255
170
85
0
170
85
0
255
130
0
255
130
0
170
85
0
170
85
0
255
190
130
255
190
130
255
239
186
255
239
186
255
223
130
255
223
130
255
130
0
255
130
0
113
57
0
113
57
0
170
85
0
170
85
0
170
85
0
170
85
0
170
85
0
170
85
0
170
85
0
170
85
0
113
57
0
113
57
0
255
130
0
255
130
0
255
223
130
255
223
130
255
239
186
255
239
186
255
190
130
255
190
130
170
85
0
170
85
0
255
130
0
255
130
0
170
85
0
170
85
0
255
255
255
255
255
255
255
255
255
255
255
255
255
255
255
255
255
255
255
255
255
255
255
255
255
255
255
255
255
255
255
255
255
255
255
255
170
85
0
170
85
0
255
130
0
255
130
0
170
85
0
170
85
0
255
190
130
255
190
130
255
239
186
255
239
186
255
223
130
255
223
130
255
130
0
255
130
0
113
57
0
113
57
0
170
85
0
170
85
0
170
85
0
170
85
0
170
85
0
170
85
0
170
85
0
170
85
0
113
57
0
113
57
0
255
130
0
255
130
0
255
223
130
255
223
130
255
239
186
255
239
186
255
190
130
255
190
130
170
85
0
170
85
0
255
130
0
255
130
0
170
85
0
170
85
0
255
255
255
255
255
255
255
255
255
255
255
255
255
255
255
255
255
255
255
255
255
255
255
255
255
255
255
255
255
255
255
255
255
255
255
255
113
57
0
113
57
0
255
190
130
255
190
130
170
85
0
170
85
0
255
223
130
255
223
130
255
255
186
255
255
186
255
190
130
255
190
130
255
190
130
255
190
130
255
223
130
255
223
130
255
190
130
255
190
130
255
130
0
255
130
0
255
130
0
255
130
0
255
190
130
255
190
130
255
223
130
255
223
130
255
190
130
255
190
130
255
190
130
255
190
130
255
255
186
255
255
186
255
223
130
255
223
130
170
85
0
170
85
0
255
190
130
255
190
130
113
57
0
113
57
0
255
255
255
255
255
255
255
255
255
255
255
255
255
255
255
255
255
255
255
255
255
255
255
255
255
255
255
255
255
255
255
255
255
255
255
255
113
57
0
113
57
0
255
190
130
255
190
130
170
85
0
170
85
0
255
223
130
255
223
130
255
255
186
255
255
186
255
190
130
255
190
130
255
190
130
255
190
130
255
223
130
255
223
130
255
190
130
255
190
130
255
130
0
255
130
0
255
130
0
255
130
0
255
190
130
255
190
130
255
223
130
255
223
130
255
190
130
255
190
130
255
190
130
255
190
130
255
255
186
255
255
186
255
223
130
255
223
130
170
85
0
170
85
0
255
190
130
255
190
130
113
57
0
113
57
0
255
255
255
255
255
255
255
255
255
255
255
255
255
255
255
255
255
255
255
255
255
255
255
255
255
255
255
255
255
255
255
255
255
255
255
255
113
57
0
113
57
0
255
130
0
255
130
0
255
130
0
255
130
0
255
190
130
255
190
130
255
223
130
255
223
130
255
190
130
255
190
130
255
190
130
255
190
130
255
255
186
255
255
186
255
239
186
255
239
186
255
190
130
255
190
130
255
190
130
255
190
130
255
239
186
255
239
186
255
255
186
255
255
186
255
190
130
255
190
130
255
190
130
255
190
130
255
223
130
255
223
130
255
190
130
255
190
130
255
130
0
255
130
0
255
130
0
255
130
0
113
57
0
113
57
0
255
255
255
255
255
255
255
255
255
255
255
255
255
255
255
255
255
255
255
255
255
255
255
255
255
255
255
255
255
255
255
255
255
255
255
255
113
57
0
113
57
0
255
130
0
255
130
0
255
130
0
255
130
0
255
190
130
255
190
130
255
223
130
255
223
130
255
190
130
255
190
130
255
190
130
255
190
130
255
255
186
255
255
186
255
239
186
255
239
186
255
190
130
255
190
130
255
190
130
255
190
130
255
239
186
255
239
186
255
255
186
255
255
186
255
190
130
255
190
130
255
190
130
255
190
130
255
223
130
255
223
130
255
190
130
255
190
130
255
130
0
255
130
0
255
130
0
255
130
0
113
57
0
113
57
0
255
255
255
255
255
255
255
255
255
255
255
255
255
255
255
255
255
255
255
255
255
255
255
255
255
255
255
255
255
255
255
255
255
255
255
255
255
255
255
255
255
255
170
85
0
170
85
0
255
130
0
255
130
0
255
190
130
255
190
130
255
190
130
255
190
130
170
85
0
170
85
0
170
85
0
170
85
0
255
130
0
255
130
0
255
130
0
255
130
0
255
130
0
255
130
0
255
130
0
255
130
0
255
130
0
255
130
0
255
130
0
255
130
0
170
85
0
170
85
0
170
85
0
170
85
0
255
190
130
255
190
130
255
190
130
255
190
130
255
130
0
255
130
0
170
85
0
170
85
0
255
255
255
255
255
255
255
255
255
255
255
255
255
255
255
255
255
255
255
255
255
255
255
255
255
255
255
255
255
255
255
255
255
255
255
255
255
255
255
255
255
255
255
255
255
255
255
255
170
85
0
170
85
0
255
130
0
255
130
0
255
190
130
255
190
130
255
190
130
255
190
130
170
85
0
170
85
0
170
85
0
170
85
0
255
130
0
255
130
0
255
130
0
255
130
0
255
130
0
255
130
0
255
130
0
255
130
0
255
130
0
255
130
0
255
130
0
255
130
0
170
85
0
170
85
0
170
85
0
170
85
0
255
190
130
255
190
130
255
190
130
255
190
130
255
130
0
255
130
0
170
85
0
170
85
0
255
255
255
255
255
255
255
255
255
255
255
255
255
255
255
255
255
255
255
255
255
255
255
255
255
255
255
255
255
255
255
255
255
255
255
255
255
255
255
255
255
255
255
255
255
255
255
255
113
57
0
113
57
0
170
85
0
170
85
0
255
130
0
255
130
0
255
190
130
255
190
130
255
190
130
255
190
130
255
190
130
255
190
130
255
190
130
255
190
130
255
223
130
255
223
130
255
255
130
255
255
130
255
255
130
255
255
130
255
223
130
255
223
130
255
190
130
255
190
130
255
190
130
255
190
130
255
190
130
255
190
130
255
190
130
255
190
130
255
130
0
255
130
0
170
85
0
170
85
0
113
57
0
113
57
0
255
255
255
255
255
255
255
255
255
255
255
255
255
255
255
255
255
255
255
255
255
255
255
255
255
255
255
255
255
255
255
255
255
255
255
255
255
255
255
255
255
255
255
255
255
255
255
255
113
57
0
113
57
0
170
85
0
170
85
0
255
130
0
255
130
0
255
190
130
255
190
130
255
190
130
255
190
130
255
190
130
255
190
130
255
190
130
255
190
130
255
223
130
255
223
130
255
255
130
255
255
130
255
255
130
255
255
130
255
223
130
255
223
130
255
190
130
255
190
130
255
190
130
255
190
130
255
190
130
255
190
130
255
190
130
255
190
130
255
130
0
255
130
0
170
85
0
170
85
0
113
57
0
113
57
0
255
255
255
255
255
255
255
255
255
255
255
255
255
255
255
255
255
255
255
255
255
255
255
255
255
255
255
255
255
255
255
255
255
255
255
255
255
255
255
255
255
255
255
255
255
255
255
255
255
255
255
255
255
255
113
57
0
113
57
0
170
85
0
170
85
0
255
190
130
255
190
130
255
223
130
255
223
130
255
190
130
255
190
130
255
130
0
255
130
0
170
85
0
170
85
0
170
85
0
170
85
0
170
85
0
170
85
0
170
85
0
170
85
0
255
130
0
255
130
0
255
190
130
255
190
130
255
223
130
255
223
130
255
190
130
255
190
130
170
85
0
170
85
0
113
57
0
113
57
0
255
255
255
255
255
255
255
255
255
255
255
255
255
255
255
255
255
255
255
255
255
255
255
255
255
255
255
255
255
255
255
255
255
255
255
255
255
255
255
255
255
255
255
255
255
255
255
255
255
255
255
255
255
255
255
255
255
255
255
255
113
57
0
113
57
0
170
85
0
170
85
0
255
190
130
255
190
130
255
223
130
255
223
130
255
190
130
255
190
130
255
130
0
255
130
0
170
85
0
170
85
0
170
85
0
170
85
0
170
85
0
170
85
0
170
85
0
170
85
0
255
130
0
255
130
0
255
190
130
255
190
130
255
223
130
255
223
130
255
190
130
255
190
130
170
85
0
170
85
0
113
57
0
113
57
0
255
255
255
255
255
255
255
255
255
255
255
255
255
255
255
255
255
255
255
255
255
255
255
255
255
255
255
255
255
255
255
255
255
255
255
255
255
255
255
255
255
255
255
255
255
255
255
255
255
255
255
255
255
255
255
255
255
255
255
255
255
255
255
255
255
255
113
57
0
113
57
0
255
130
0
255
130
0
255
190
130
255
190
130
255
223
130
255
223
130
255
190
130
255
190
130
255
190
130
255
190
130
255
223
130
255
223
130
255
223
130
255
223
130
255
190
130
255
190
130
255
190
130
255
190
130
255
223
130
255
223
130
255
190
130
255
190
130
255
130
0
255
130
0
113
57
0
113
57
0
255
255
255
255
255
255
255
255
255
255
255
255
255
255
255
255
255
255
255
255
255
255
255
255
255
255
255
255
255
255
255
255
255
255
255
255
255
255
255
255
255
255
255
255
255
255
255
255
255
255
255
255
255
255
255
255
255
255
255
255
255
255
255
255
255
255
255
255
255
255
255
255
113
57
0
113
57
0
255
130
0
255
130
0
255
190
130
255
190
130
255
223
130
255
223
130
255
190
130
255
190
130
255
190
130
255
190
130
255
223
130
255
223
130
255
223
130
255
223
130
255
190
130
255
190
130
255
190
130
255
190
130
255
223
130
255
223
130
255
190
130
255
190
130
255
130
0
255
130
0
113
57
0
113
57
0
255
255
255
255
255
255
255
255
255
255
255
255
255
255
255
255
255
255
255
255
255
255
255
255
255
255
255
255
255
255
255
255
255
255
255
255
255
255
255
255
255
255
255
255
255
255
255
255
255
255
255
255
255
255
255
255
255
255
255
255
255
255
255
255
255
255
255
255
255
255
255
255
255
255
255
255
255
255
113
57
0
113
57
0
170
85
0
170
85
0
255
130
0
255
130
0
255
190
130
255
190
130
255
223
130
255
223
130
255
239
186
255
239
186
255
239
186
255
239
186
255
223
130
255
223
130
255
190
130
255
190
130
255
130
0
255
130
0
170
85
0
170
85
0
113
57
0
113
57
0
255
255
255
255
255
255
255
255
255
255
255
255
255
255
255
255
255
255
255
255
255
255
255
255
255
255
255
255
255
255
255
255
255
255
255
255
255
255
255
255
255
255
255
255
255
255
255
255
255
255
255
255
255
255
255
255
255
255
255
255
255
255
255
255
255
255
255
255
255
255
255
255
255
255
255
255
255
255
255
255
255
255
255
255
113
57
0
113
57
0
170
85
0
170
85
0
255
130
0
255
130
0
255
190
130
255
190
130
255
223
130
255
223
130
255
239
186
255
239
186
255
239
186
255
239
186
255
223
130
255
223
130
255
190
130
255
190
130
255
130
0
255
130
0
170
85
0
170
85
0
113
57
0
113
57
0
255
255
255
255
255
255
255
255
255
255
255
255
255
255
255
255
255
255
255
255
255
255
255
255
255
255
255
255
255
255
255
255
255
255
255
255
255
255
255
255
255
255
255
255
255
255
255
255
255
255
255
255
255
255
255
255
255
255
255
255
255
255
255
255
255
255
255
255
255
255
255
255
255
255
255
255
255
255
255
255
255
255
255
255
255
255
255
255
255
255
255
255
255
255
255
255
113
57
0
113
57
0
170
85
0
170
85
0
255
130
0
255
130
0
255
130
0
255
130
0
255
130
0
255
130
0
255
130
0
255
130
0
170
85
0
170
85
0
113
57
0
113
57
0
255
255
255
255
255
255
255
255
255
255
255
255
255
255
255
255
255
255
255
255
255
255
255
255
255
255
255
255
255
255
255
255
255
255
255
255
255
255
255
255
255
255
255
255
255
255
255
255
255
255
255
255
255
255
255
255
255
255
255
255
255
255
255
255
255
255
255
255
255
255
255
255
255
255
255
255
255
255
255
255
255
255
255
255
255
255
255
255
255
255
255
255
255
255
255
255
255
255
255
255
255
255
255
255
255
255
255
255
113
57
0
113
57
0
170
85
0
170
85
0
255
130
0
255
130
0
255
130
0
255
130
0
255
130
0
255
130
0
255
130
0
255
130
0
170
85
0
170
85
0
113
57
0
113
57
0
255
255
255
255
255
255
255
255
255
255
255
255
255
255
255
255
255
255
255
255
255
255
255
255
255
255
255
255
255
255
255
255
255
255
255
255
255
255
255
255
255
255
255
255
255
255
255
255
255
255
255
255
255
255
255
255
255
255
255
255
255
255
255
255
255
255
255
255
255
255
255
255
255
255
255
255
255
255
255
255
255
255
255
255
255
255
255
255
255
255
255
255
255
255
255
255
255
255
255
255
255
255
255
255
255
255
255
255
255
255
255
255
255
255
255
255
255
255
255
255
255
255
255
255
255
255
255
255
255
255
255
255
255
255
255
255
255
255
255
255
255
255
255
255
255
255
255
255
255
255
255
255
255
255
255
255
255
255
255
255
255
255
255
255
255
255
255
255
255
255
255
255
255
255
255
255
255
255
255
255
255
255
255
255
255
255
255
255
255
255
255
255
255
255
255
255
255
255
255
255
255
255
255
255
255
255
255
255
255
255
255
255
255
255
255
255
255
255
255
255
255
255
255
255
255
255
255
255
255
255
255
255
255
255
255
255
255
255
255
255
255
255
255
255
255
255
255
255
255
255
255
255
255
255
255
255
255
255
255
255
255
255
255
255
255
255
255
255
255
255
255
255
255
255
255
255
255
255
255
255
255
255
255
255
255
255
255
255
255
255
255
255
255
255
255
255
255
255
255
255
255
255
255
255
255
255
255
255
255
255
255
255
255
255
255
255
255
255
255
255
255
255
255
255
255
255
255
255
255
255
255
255
255
255
255
255
255
255
255
255
255
255
255
255
255
255
255
255
255
255
255
255
255
255
255
255
255
255
255
255
255
255
255
255
255
255
255
255
255
255
255
255
255
255
255
255
255
255
255
255
255
255
255
255
255
255
255
255
255
255
255
255
255
255
255
255
255
255
255
255
255
255
255
255
255
255
255
255
255
255
255
255
255
255
255
255
255
255
255
255
255
255
255
255
255
255
255
255
255
255
255
255
255
255
255
255
255
255
255
255
255
255
255
255
255
255
255
255
255
255
255
255
255
255
255
255
255
255
255
255
255
255
255
255
255
255
255
255
255
255
255
255
255
255
255
255
255
255
255
255
255
255
255
255
255
255
255
255
255
255
255
255
255
255
255
255
255
255
255
255
255
255
255
255
255
255
255
255
255
255
255
255
255
255
255
255
255
255
255
255
255
255
255
255
255
255
255
255
255
255
255
255
255
255
255
255
255
255
255
255
255
255
255
255
255
255
255
255
255
255
255
255
255
255
255
255
255
255
255
255
255
255
255
255
255
255
255
255
255
255
255
255
255
255
255
255
255
255
255
255
255
255
255
255
255
255
255
255
255
255
255
255
255
255
255
255
255
255
255
255
255
255
255
255
255
255
255
255
255
255
255
255
255
255
255
255
255
255
255
255
255
255
255
255
255
255
255
255
255
255
255
255
255
255
255
255
255
255
255
255
255
255
255
255
255
255
255
255
255
255
255
255
255
255
255
255
255
255
255
255
255
255
255
255
255
255
255
255
255
255
255
255
255
255
255
255
255
255
