P3
# CREATOR: GIMP PNM Filter Version 1.1
24 186
255
85
255
255
85
255
255
85
255
255
85
255
255
0
0
0
0
0
0
0
0
0
0
0
0
65
49
0
0
0
0
65
49
0
65
49
32
0
0
0
0
0
0
0
0
0
0
0
0
0
0
0
0
0
0
85
255
255
85
255
255
85
255
255
85
255
255
85
255
255
85
255
255
85
255
255
85
255
255
85
255
255
0
0
0
0
0
0
113
85
0
113
85
0
170
85
0
170
85
0
113
85
0
0
0
0
65
49
32
0
0
0
0
0
0
0
0
0
0
0
0
0
0
0
0
0
0
0
0
0
0
0
0
85
255
255
85
255
255
85
255
255
85
255
255
85
255
255
85
255
255
0
0
0
65
49
32
65
49
0
170
85
0
255
190
130
170
85
0
113
85
0
113
85
0
113
85
0
113
85
0
65
49
0
113
85
0
0
0
0
0
0
0
0
0
0
0
0
0
0
0
0
0
0
0
0
0
0
85
255
255
85
255
255
85
255
255
85
255
255
0
0
0
0
0
0
170
85
0
170
85
0
113
85
0
113
85
0
65
49
0
113
85
0
113
85
0
113
85
0
65
49
0
0
0
0
113
85
0
65
49
0
65
49
0
65
49
32
65
49
32
0
0
0
0
0
0
0
0
0
0
0
0
85
255
255
85
255
255
85
255
255
85
255
255
0
0
0
113
85
0
65
49
32
113
85
0
113
85
0
65
49
32
0
0
0
65
49
32
0
0
0
0
0
0
0
0
0
0
0
0
0
0
0
0
0
0
0
0
0
0
0
0
0
0
0
0
0
0
0
0
0
0
0
0
0
0
0
85
255
255
85
255
255
0
0
0
65
49
32
0
0
0
0
0
0
0
0
0
0
0
0
0
0
0
0
0
0
0
0
0
0
0
0
0
0
0
0
0
0
0
0
0
0
0
0
0
0
0
0
0
0
0
0
0
0
0
0
0
0
0
0
0
0
0
0
0
85
255
255
85
255
255
0
0
0
0
0
0
0
0
0
0
0
0
65
49
32
65
49
32
0
0
0
113
85
0
170
85
0
170
85
0
255
190
130
255
190
130
113
85
0
0
0
0
0
0
0
0
0
0
0
0
0
0
0
0
0
0
0
0
0
0
0
0
0
0
0
0
0
0
0
85
255
255
85
255
255
0
0
0
0
0
0
0
0
0
170
85
0
0
0
0
170
85
0
170
85
0
255
190
130
255
190
130
255
255
186
255
255
186
255
190
130
170
85
0
0
0
0
170
85
0
0
0
0
113
85
0
0
0
0
0
0
0
0
0
0
0
0
0
85
255
255
85
255
255
85
255
255
0
0
0
0
0
0
65
49
32
65
49
32
170
85
0
170
85
0
255
190
130
255
223
130
255
223
130
255
255
186
255
255
186
255
255
186
255
223
130
170
85
0
0
0
0
170
85
0
0
0
0
113
85
0
0
0
0
0
0
0
0
0
0
85
255
255
85
255
255
85
255
255
0
0
0
0
0
0
65
49
32
170
85
0
170
85
0
170
85
0
170
85
0
255
223
130
255
223
130
255
255
186
255
255
186
255
255
186
255
223
130
170
85
0
170
85
0
170
85
0
170
85
0
113
85
0
0
0
0
0
0
0
0
0
0
85
255
255
85
255
255
85
255
255
85
255
255
0
0
0
65
49
32
170
85
0
170
85
0
255
190
130
255
190
130
170
85
0
255
190
130
255
223
130
255
223
130
255
223
130
170
85
0
255
190
130
255
223
130
255
190
130
170
85
0
113
85
0
170
85
0
0
0
0
0
0
0
85
255
255
85
255
255
85
255
255
85
255
255
0
0
0
65
49
32
255
190
130
255
223
130
255
255
186
255
255
186
255
223
130
255
223
130
255
223
130
255
223
130
255
223
130
255
223
130
255
255
186
255
255
186
255
223
130
255
190
130
170
85
0
170
85
0
65
49
32
0
0
0
85
255
255
85
255
255
85
255
255
113
85
0
0
0
0
65
49
32
170
85
0
65
49
32
65
49
0
65
49
0
170
85
0
255
190
130
255
255
186
255
255
186
255
255
186
255
223
130
170
85
0
65
49
0
65
49
0
65
49
32
113
85
0
170
85
0
0
0
0
0
0
0
0
0
0
85
255
255
85
255
255
255
223
130
0
0
0
113
85
0
170
85
0
0
0
0
0
0
0
0
0
0
113
85
0
170
85
0
255
255
186
255
255
186
255
223
130
170
85
0
0
0
0
0
0
0
170
85
0
113
85
0
65
49
0
170
85
0
0
0
0
0
0
0
0
0
0
85
255
255
85
255
255
255
223
130
65
49
0
170
85
0
170
85
0
154
154
154
255
255
255
0
0
0
154
154
154
170
85
0
255
223
130
255
255
186
255
190
130
154
154
154
255
255
255
0
0
0
154
154
154
255
190
130
170
85
0
170
85
0
65
49
32
0
0
0
170
85
0
85
255
255
85
255
255
255
190
130
65
49
0
170
85
0
170
85
0
170
85
0
255
130
130
239
239
239
255
223
130
170
85
0
255
190
130
255
223
130
170
85
0
170
85
0
255
223
130
239
239
239
255
130
130
170
85
0
170
85
0
170
85
0
65
49
0
170
85
0
255
223
130
85
255
255
85
255
255
170
85
0
65
49
0
170
85
0
170
85
0
255
223
130
255
255
186
255
255
186
255
223
130
170
85
0
255
190
130
255
223
130
170
85
0
170
85
0
255
223
130
255
255
186
255
255
186
255
223
130
255
190
130
170
85
0
113
85
0
255
223
130
170
85
0
85
255
255
85
255
255
113
85
0
65
49
0
170
85
0
170
85
0
255
255
186
255
255
186
255
223
130
170
85
0
255
190
130
255
223
130
255
255
186
255
190
130
255
190
130
170
85
0
255
223
130
255
255
186
255
255
186
255
190
130
170
85
0
113
85
0
255
190
130
85
255
255
85
255
255
85
255
255
85
255
255
0
0
0
113
85
0
170
85
0
255
255
186
255
255
186
255
223
130
170
85
0
113
85
0
255
223
130
255
190
130
170
85
0
113
85
0
170
85
0
255
223
130
255
255
186
255
255
186
255
190
130
170
85
0
113
85
0
85
255
255
85
255
255
85
255
255
85
255
255
85
255
255
0
0
0
113
85
0
170
85
0
255
223
130
255
255
186
255
223
130
255
190
130
170
85
0
170
85
0
170
85
0
113
85
0
113
85
0
255
190
130
255
255
186
255
255
186
255
223
130
170
85
0
170
85
0
113
85
0
85
255
255
85
255
255
85
255
255
85
255
255
85
255
255
85
255
255
113
85
0
170
85
0
255
190
130
255
223
130
255
190
130
170
85
0
255
190
130
255
223
130
255
255
186
255
223
130
170
85
0
170
85
0
255
190
130
255
255
186
170
85
0
255
190
130
170
85
0
65
49
0
85
255
255
85
255
255
85
255
255
85
255
255
85
255
255
85
255
255
65
49
0
170
85
0
170
85
0
255
190
130
170
85
0
170
85
0
170
85
0
170
85
0
113
85
0
113
85
0
113
85
0
113
85
0
170
85
0
170
85
0
255
190
130
170
85
0
113
85
0
0
0
0
85
255
255
85
255
255
85
255
255
85
255
255
85
255
255
85
255
255
0
0
0
113
85
0
170
85
0
170
85
0
113
85
0
170
85
0
255
223
130
239
239
239
239
239
239
239
239
239
255
223
130
255
190
130
113
85
0
255
190
130
170
85
0
170
85
0
65
49
0
85
255
255
85
255
255
85
255
255
85
255
255
85
255
255
85
255
255
85
255
255
85
255
255
65
49
0
113
85
0
170
85
0
170
85
0
255
190
130
255
190
130
170
85
0
170
85
0
170
85
0
255
190
130
255
190
130
170
85
0
170
85
0
170
85
0
113
85
0
0
0
0
85
255
255
85
255
255
85
255
255
85
255
255
85
255
255
85
255
255
85
255
255
85
255
255
0
0
0
65
49
0
113
85
0
113
85
0
170
85
0
255
223
130
255
255
186
255
255
186
255
255
186
255
223
130
170
85
0
113
85
0
170
85
0
113
85
0
0
0
0
85
255
255
85
255
255
85
255
255
85
255
255
85
255
255
85
255
255
85
255
255
85
255
255
85
255
255
85
255
255
0
0
0
65
49
0
113
85
0
113
85
0
255
190
130
170
85
0
170
85
0
170
85
0
255
223
130
170
85
0
113
85
0
65
49
0
0
0
0
85
255
255
85
255
255
85
255
255
85
255
255
85
255
255
85
255
255
85
255
255
85
255
255
85
255
255
85
255
255
85
255
255
85
255
255
0
0
0
65
49
0
113
85
0
170
85
0
170
85
0
170
85
0
170
85
0
170
85
0
113
85
0
65
49
0
0
0
0
85
255
255
85
255
255
85
255
255
85
255
255
85
255
255
85
255
255
85
255
255
85
255
255
85
255
255
85
255
255
85
255
255
85
255
255
85
255
255
85
255
255
0
0
0
65
49
0
65
49
0
113
85
0
170
85
0
113
85
0
113
85
0
65
49
0
0
0
0
85
255
255
85
255
255
85
255
255
85
255
255
85
255
255
85
255
255
85
255
255
85
255
255
85
255
255
85
255
255
85
255
255
85
255
255
85
255
255
85
255
255
85
255
255
85
255
255
85
255
255
0
0
0
0
0
0
0
0
0
0
0
0
0
0
0
85
255
255
85
255
255
85
255
255
85
255
255
85
255
255
85
255
255
85
255
255
85
255
255
85
255
255
85
255
255
85
255
255
85
255
255
85
255
255
85
255
255
85
255
255
85
255
255
85
255
255
85
255
255
85
255
255
85
255
255
85
255
255
85
255
255
85
255
255
85
255
255
85
255
255
85
255
255
85
255
255
85
255
255
85
255
255
85
255
255
85
255
255
85
255
255
85
255
255
85
255
255
85
255
255
85
255
255
85
255
255
85
255
255
85
255
255
85
255
255
85
255
255
85
255
255
85
255
255
85
255
255
85
255
255
85
255
255
85
255
255
85
255
255
85
255
255
85
255
255
85
255
255
85
255
255
85
255
255
85
255
255
85
255
255
85
255
255
85
255
255
85
255
255
85
255
255
85
255
255
85
255
255
85
255
255
85
255
255
85
255
255
85
255
255
85
255
255
85
255
255
85
255
255
85
255
255
85
255
255
85
255
255
85
255
255
85
255
255
85
255
255
85
255
255
85
255
255
85
255
255
85
255
255
85
255
255
85
255
255
85
255
255
85
255
255
85
255
255
85
255
255
85
255
255
85
255
255
0
0
0
0
0
0
0
0
0
0
0
0
65
49
0
0
0
0
65
49
0
65
49
32
0
0
0
0
0
0
0
0
0
0
0
0
0
0
0
0
0
0
85
255
255
85
255
255
85
255
255
85
255
255
85
255
255
85
255
255
85
255
255
85
255
255
85
255
255
0
0
0
0
0
0
113
85
0
113
85
0
170
85
0
170
85
0
113
85
0
0
0
0
65
49
32
0
0
0
0
0
0
0
0
0
0
0
0
0
0
0
0
0
0
0
0
0
0
0
0
85
255
255
85
255
255
85
255
255
85
255
255
85
255
255
85
255
255
0
0
0
65
49
32
65
49
0
170
85
0
255
190
130
170
85
0
113
85
0
113
85
0
113
85
0
113
85
0
65
49
0
113
85
0
0
0
0
0
0
0
0
0
0
0
0
0
0
0
0
0
0
0
0
0
0
85
255
255
85
255
255
85
255
255
85
255
255
0
0
0
0
0
0
170
85
0
170
85
0
113
85
0
113
85
0
65
49
0
113
85
0
113
85
0
113
85
0
65
49
0
0
0
0
113
85
0
65
49
0
65
49
0
65
49
32
65
49
32
0
0
0
0
0
0
0
0
0
0
0
0
85
255
255
85
255
255
85
255
255
85
255
255
0
0
0
113
85
0
65
49
32
113
85
0
113
85
0
65
49
32
0
0
0
65
49
32
0
0
0
0
0
0
0
0
0
0
0
0
0
0
0
0
0
0
0
0
0
0
0
0
0
0
0
0
0
0
0
0
0
0
0
0
0
0
0
85
255
255
85
255
255
0
0
0
65
49
32
0
0
0
0
0
0
0
0
0
0
0
0
0
0
0
0
0
0
0
0
0
0
0
0
0
0
0
0
0
0
0
0
0
0
0
0
0
0
0
0
0
0
0
0
0
0
0
0
0
0
0
0
0
0
0
0
0
85
255
255
85
255
255
0
0
0
0
0
0
0
0
0
0
0
0
65
49
32
65
49
32
0
0
0
113
85
0
170
85
0
170
85
0
255
190
130
255
190
130
113
85
0
0
0
0
0
0
0
0
0
0
0
0
0
0
0
0
0
0
0
0
0
0
0
0
0
0
0
0
0
0
0
85
255
255
85
255
255
0
0
0
0
0
0
0
0
0
170
85
0
0
0
0
170
85
0
170
85
0
255
190
130
255
190
130
255
255
186
255
255
186
255
190
130
170
85
0
0
0
0
170
85
0
0
0
0
113
85
0
0
0
0
0
0
0
0
0
0
0
0
0
85
255
255
85
255
255
85
255
255
0
0
0
0
0
0
65
49
32
65
49
32
170
85
0
170
85
0
255
190
130
255
223
130
255
223
130
255
255
186
255
255
186
255
255
186
255
223
130
170
85
0
0
0
0
170
85
0
0
0
0
113
85
0
0
0
0
0
0
0
0
0
0
85
255
255
85
255
255
85
255
255
0
0
0
0
0
0
65
49
32
170
85
0
170
85
0
170
85
0
170
85
0
255
223
130
255
223
130
255
255
186
255
255
186
255
255
186
255
223
130
170
85
0
170
85
0
170
85
0
170
85
0
113
85
0
0
0
0
0
0
0
0
0
0
85
255
255
85
255
255
85
255
255
85
255
255
0
0
0
65
49
32
170
85
0
170
85
0
255
190
130
255
190
130
170
85
0
255
190
130
255
223
130
255
223
130
255
223
130
170
85
0
255
190
130
255
223
130
255
190
130
170
85
0
113
85
0
170
85
0
0
0
0
0
0
0
85
255
255
85
255
255
85
255
255
85
255
255
0
0
0
65
49
32
255
190
130
255
223
130
255
255
186
255
255
186
255
223
130
255
223
130
255
223
130
255
223
130
255
223
130
255
223
130
255
255
186
255
255
186
255
223
130
255
190
130
170
85
0
170
85
0
65
49
32
0
0
0
85
255
255
85
255
255
85
255
255
113
85
0
0
0
0
65
49
32
170
85
0
65
49
32
65
49
0
65
49
0
170
85
0
255
190
130
255
255
186
255
255
186
255
255
186
255
223
130
170
85
0
65
49
0
65
49
0
65
49
32
113
85
0
170
85
0
0
0
0
0
0
0
0
0
0
85
255
255
85
255
255
255
223
130
0
0
0
113
85
0
170
85
0
0
0
0
0
0
0
0
0
0
113
85
0
170
85
0
255
255
186
255
255
186
255
223
130
170
85
0
0
0
0
0
0
0
170
85
0
113
85
0
65
49
0
170
85
0
0
0
0
0
0
0
0
0
0
85
255
255
85
255
255
255
223
130
65
49
0
170
85
0
170
85
0
154
154
154
255
255
255
0
0
0
154
154
154
170
85
0
255
223
130
255
255
186
255
190
130
154
154
154
255
255
255
0
0
0
154
154
154
255
190
130
170
85
0
170
85
0
65
49
32
0
0
0
170
85
0
85
255
255
85
255
255
255
190
130
65
49
0
170
85
0
170
85
0
170
85
0
255
130
130
239
239
239
255
223
130
170
85
0
255
190
130
255
223
130
170
85
0
170
85
0
255
223
130
239
239
239
255
130
130
170
85
0
170
85
0
170
85
0
65
49
0
170
85
0
255
223
130
85
255
255
85
255
255
170
85
0
65
49
0
170
85
0
170
85
0
255
223
130
255
255
186
255
255
186
255
223
130
170
85
0
255
190
130
255
223
130
170
85
0
170
85
0
255
223
130
255
255
186
255
255
186
255
223
130
255
190
130
170
85
0
113
85
0
255
223
130
170
85
0
85
255
255
85
255
255
113
85
0
65
49
0
170
85
0
170
85
0
255
255
186
255
255
186
255
223
130
170
85
0
255
190
130
255
223
130
255
255
186
255
190
130
255
190
130
170
85
0
255
223
130
255
255
186
255
255
186
255
190
130
170
85
0
113
85
0
255
190
130
85
255
255
85
255
255
85
255
255
85
255
255
0
0
0
113
85
0
170
85
0
255
255
186
255
255
186
255
223
130
170
85
0
113
85
0
255
223
130
255
190
130
170
85
0
113
85
0
170
85
0
255
223
130
255
255
186
255
255
186
255
190
130
170
85
0
113
85
0
85
255
255
85
255
255
85
255
255
85
255
255
85
255
255
0
0
0
113
85
0
170
85
0
255
223
130
255
255
186
255
223
130
255
190
130
170
0
0
170
85
0
170
85
0
113
85
0
170
0
0
255
190
130
255
255
186
255
255
186
255
223
130
170
85
0
170
85
0
113
85
0
85
255
255
85
255
255
85
255
255
85
255
255
85
255
255
85
255
255
113
85
0
170
85
0
255
190
130
255
223
130
255
190
130
170
85
0
255
190
130
255
223
130
255
255
186
255
223
130
255
85
85
170
85
0
255
190
130
255
255
186
170
85
0
255
190
130
170
85
0
65
49
0
85
255
255
85
255
255
85
255
255
85
255
255
85
255
255
85
255
255
65
49
0
170
85
0
170
85
0
255
190
130
170
85
0
170
85
0
170
85
0
170
85
0
113
85
0
113
85
0
113
0
0
113
85
0
170
85
0
170
85
0
255
190
130
170
85
0
113
85
0
0
0
0
85
255
255
85
255
255
85
255
255
85
255
255
85
255
255
85
255
255
0
0
0
113
85
0
170
85
0
170
85
0
113
85
0
170
85
0
255
223
130
239
239
239
239
239
239
239
239
239
255
223
130
255
190
130
113
85
0
255
190
130
170
85
0
170
85
0
65
49
0
85
255
255
85
255
255
85
255
255
85
255
255
85
255
255
85
255
255
85
255
255
85
255
255
65
49
0
113
85
0
170
85
0
170
85
0
255
190
130
255
190
130
170
85
0
170
85
0
170
85
0
255
190
130
255
190
130
170
85
0
170
85
0
170
85
0
113
85
0
0
0
0
85
255
255
85
255
255
85
255
255
85
255
255
85
255
255
85
255
255
85
255
255
85
255
255
0
0
0
65
49
0
113
85
0
113
85
0
170
85
0
255
223
130
255
255
186
255
255
186
255
255
186
255
223
130
170
85
0
113
85
0
170
85
0
113
85
0
0
0
0
85
255
255
85
255
255
85
255
255
85
255
255
85
255
255
85
255
255
85
255
255
85
255
255
85
255
255
85
255
255
0
0
0
65
49
0
113
85
0
113
85
0
255
190
130
170
85
0
170
85
0
170
85
0
255
223
130
170
85
0
113
85
0
65
49
0
0
0
0
85
255
255
85
255
255
85
255
255
85
255
255
85
255
255
85
255
255
85
255
255
85
255
255
85
255
255
85
255
255
85
255
255
85
255
255
0
0
0
65
49
0
113
85
0
170
85
0
170
85
0
170
85
0
170
85
0
170
85
0
113
85
0
65
49
0
0
0
0
85
255
255
85
255
255
85
255
255
85
255
255
85
255
255
85
255
255
85
255
255
85
255
255
85
255
255
85
255
255
85
255
255
85
255
255
85
255
255
85
255
255
0
0
0
65
49
0
65
49
0
113
85
0
170
85
0
113
85
0
113
85
0
65
49
0
0
0
0
85
255
255
85
255
255
85
255
255
85
255
255
85
255
255
85
255
255
85
255
255
85
255
255
85
255
255
85
255
255
85
255
255
85
255
255
85
255
255
85
255
255
85
255
255
85
255
255
85
255
255
0
0
0
0
0
0
0
0
0
0
0
0
0
0
0
85
255
255
85
255
255
85
255
255
85
255
255
85
255
255
85
255
255
85
255
255
85
255
255
85
255
255
85
255
255
85
255
255
85
255
255
85
255
255
85
255
255
85
255
255
85
255
255
85
255
255
85
255
255
85
255
255
85
255
255
85
255
255
85
255
255
85
255
255
85
255
255
85
255
255
85
255
255
85
255
255
85
255
255
85
255
255
85
255
255
85
255
255
85
255
255
85
255
255
85
255
255
85
255
255
85
255
255
85
255
255
85
255
255
0
0
0
0
0
0
0
0
0
0
0
0
65
49
0
0
0
0
65
49
0
65
49
32
0
0
0
0
0
0
0
0
0
0
0
0
0
0
0
0
0
0
85
255
255
85
255
255
85
255
255
85
255
255
85
255
255
85
255
255
85
255
255
85
255
255
85
255
255
0
0
0
0
0
0
113
85
0
113
85
0
170
85
0
170
85
0
113
85
0
0
0
0
65
49
32
0
0
0
0
0
0
0
0
0
0
0
0
0
0
0
0
0
0
0
0
0
0
0
0
85
255
255
85
255
255
85
255
255
85
255
255
85
255
255
85
255
255
0
0
0
65
49
32
65
49
0
170
85
0
255
190
130
170
85
0
113
85
0
113
85
0
113
85
0
113
85
0
65
49
0
113
85
0
0
0
0
0
0
0
0
0
0
0
0
0
0
0
0
0
0
0
0
0
0
85
255
255
85
255
255
85
255
255
85
255
255
0
0
0
0
0
0
170
85
0
170
85
0
113
85
0
113
85
0
65
49
0
113
85
0
113
85
0
113
85
0
65
49
0
0
0
0
113
85
0
65
49
0
65
49
0
65
49
32
65
49
32
0
0
0
0
0
0
0
0
0
0
0
0
85
255
255
85
255
255
85
255
255
85
255
255
0
0
0
113
85
0
65
49
32
113
85
0
113
85
0
65
49
32
0
0
0
65
49
32
0
0
0
0
0
0
0
0
0
0
0
0
0
0
0
0
0
0
0
0
0
0
0
0
0
0
0
0
0
0
0
0
0
0
0
0
0
0
0
85
255
255
85
255
255
0
0
0
65
49
32
0
0
0
0
0
0
0
0
0
0
0
0
0
0
0
0
0
0
0
0
0
0
0
0
0
0
0
0
0
0
0
0
0
0
0
0
0
0
0
0
0
0
0
0
0
0
0
0
0
0
0
0
0
0
0
0
0
85
255
255
85
255
255
0
0
0
0
0
0
0
0
0
0
0
0
65
49
32
65
49
32
0
0
0
113
85
0
170
85
0
170
85
0
255
190
130
255
190
130
113
85
0
0
0
0
0
0
0
0
0
0
0
0
0
0
0
0
0
0
0
0
0
0
0
0
0
0
0
0
0
0
0
85
255
255
85
255
255
0
0
0
0
0
0
0
0
0
170
85
0
0
0
0
170
85
0
170
85
0
255
190
130
255
190
130
255
255
186
255
255
186
255
190
130
170
85
0
0
0
0
170
85
0
0
0
0
113
85
0
0
0
0
0
0
0
0
0
0
0
0
0
85
255
255
85
255
255
85
255
255
0
0
0
0
0
0
65
49
32
65
49
32
170
85
0
170
85
0
255
190
130
255
223
130
255
223
130
255
255
186
255
255
186
255
255
186
255
223
130
170
85
0
0
0
0
170
85
0
0
0
0
113
85
0
0
0
0
0
0
0
0
0
0
85
255
255
85
255
255
85
255
255
0
0
0
0
0
0
65
49
32
170
85
0
170
85
0
170
85
0
170
85
0
255
223
130
255
223
130
255
255
186
255
255
186
255
255
186
255
223
130
170
85
0
170
85
0
170
85
0
170
85
0
113
85
0
0
0
0
0
0
0
0
0
0
85
255
255
85
255
255
85
255
255
85
255
255
0
0
0
65
49
32
170
85
0
170
85
0
255
190
130
255
190
130
170
85
0
255
190
130
255
223
130
255
223
130
255
223
130
170
85
0
255
190
130
255
223
130
255
190
130
170
85
0
113
85
0
170
85
0
0
0
0
0
0
0
85
255
255
85
255
255
85
255
255
85
255
255
0
0
0
65
49
32
255
190
130
255
223
130
255
255
186
255
223
130
255
223
130
255
223
130
255
223
130
255
223
130
255
223
130
255
223
130
255
255
186
255
255
186
255
223
130
255
190
130
170
85
0
170
85
0
65
49
32
0
0
0
85
255
255
85
255
255
85
255
255
113
85
0
0
0
0
65
49
32
170
85
0
65
49
32
65
49
0
65
49
0
170
85
0
255
190
130
255
255
186
255
255
186
255
255
186
255
223
130
170
85
0
65
49
0
65
49
0
65
49
32
113
85
0
170
85
0
0
0
0
0
0
0
0
0
0
85
255
255
85
255
255
255
223
130
0
0
0
113
85
0
170
85
0
0
0
0
0
0
0
0
0
0
113
85
0
170
85
0
255
255
186
255
255
186
255
223
130
170
85
0
0
0
0
0
0
0
170
85
0
113
85
0
65
49
0
170
85
0
0
0
0
0
0
0
0
0
0
85
255
255
85
255
255
255
223
130
65
49
0
170
85
0
170
85
0
154
154
154
255
255
255
0
0
0
154
154
154
170
85
0
255
223
130
255
255
186
255
190
130
154
154
154
255
255
255
0
0
0
154
154
154
255
190
130
170
85
0
170
85
0
65
49
32
0
0
0
170
85
0
85
255
255
85
255
255
255
190
130
65
49
0
170
85
0
170
85
0
170
85
0
255
130
130
255
223
130
255
190
130
170
85
0
255
190
130
255
223
130
170
85
0
170
85
0
255
223
130
239
239
239
255
130
130
170
85
0
170
85
0
170
85
0
65
49
0
170
85
0
255
223
130
85
255
255
85
255
255
170
85
0
65
49
0
170
85
0
170
85
0
255
223
130
255
255
186
255
255
186
255
223
130
170
85
0
255
190
130
255
223
130
170
85
0
170
85
0
255
223
130
255
255
186
255
255
186
255
223
130
255
190
130
170
85
0
113
85
0
255
223
130
170
85
0
85
255
255
85
255
255
113
85
0
65
49
0
170
85
0
170
85
0
255
255
186
255
255
186
255
223
130
170
85
0
255
190
130
255
223
130
255
255
186
255
190
130
255
190
130
170
85
0
255
223
130
255
255
186
255
255
186
255
190
130
170
85
0
113
85
0
255
190
130
85
255
255
85
255
255
85
255
255
85
255
255
0
0
0
113
85
0
255
85
85
255
255
186
255
255
186
255
223
130
170
85
0
113
85
0
255
223
130
255
190
130
170
85
0
113
85
0
170
85
0
255
223
130
255
255
186
255
255
186
255
190
130
170
85
0
113
85
0
85
255
255
85
255
255
85
255
255
85
255
255
85
255
255
0
0
0
113
85
0
170
0
0
255
186
186
255
255
186
255
223
130
255
190
130
170
0
0
170
85
0
170
85
0
113
0
0
170
0
0
255
190
130
255
255
186
255
255
186
255
223
130
170
85
0
170
85
0
113
85
0
85
255
255
85
255
255
85
255
255
85
255
255
85
255
255
85
255
255
113
85
0
170
85
0
255
85
85
255
186
186
255
190
130
170
85
0
255
85
85
255
223
130
255
255
186
255
158
130
255
85
85
170
0
0
255
190
130
255
255
186
170
85
0
255
190
130
170
85
0
65
49
0
85
255
255
85
255
255
85
255
255
85
255
255
85
255
255
85
255
255
65
49
0
170
85
0
170
85
0
255
85
85
170
85
0
170
85
0
113
0
0
170
85
0
113
85
0
170
0
0
113
0
0
170
0
0
170
85
0
170
85
0
255
190
130
170
85
0
113
85
0
0
0
0
85
255
255
85
255
255
85
255
255
85
255
255
85
255
255
85
255
255
0
0
0
113
85
0
170
85
0
170
85
0
113
85
0
170
85
0
255
223
130
239
239
239
239
239
239
239
239
239
255
158
130
255
85
85
113
0
0
255
190
130
170
85
0
170
85
0
65
49
0
85
255
255
85
255
255
85
255
255
85
255
255
85
255
255
85
255
255
85
255
255
85
255
255
65
49
0
113
85
0
170
85
0
170
85
0
255
190
130
255
190
130
170
85
0
170
85
0
170
85
0
255
85
85
255
85
85
170
0
0
170
85
0
170
85
0
113
85
0
0
0
0
85
255
255
85
255
255
85
255
255
85
255
255
85
255
255
85
255
255
85
255
255
85
255
255
0
0
0
65
49
0
113
85
0
113
85
0
170
85
0
255
223
130
255
255
186
255
255
186
255
255
186
255
158
130
255
85
85
113
0
0
170
85
0
113
85
0
0
0
0
85
255
255
85
255
255
85
255
255
85
255
255
85
255
255
85
255
255
85
255
255
85
255
255
85
255
255
85
255
255
0
0
0
65
49
0
113
85
0
113
85
0
255
190
130
170
85
0
170
85
0
170
85
0
255
85
85
170
0
0
113
0
0
65
49
0
0
0
0
85
255
255
85
255
255
85
255
255
85
255
255
85
255
255
85
255
255
85
255
255
85
255
255
85
255
255
85
255
255
85
255
255
85
255
255
0
0
0
65
49
0
113
85
0
170
85
0
170
85
0
170
85
0
170
85
0
255
85
85
113
0
0
113
0
0
0
0
0
85
255
255
85
255
255
85
255
255
85
255
255
85
255
255
85
255
255
85
255
255
85
255
255
85
255
255
85
255
255
85
255
255
85
255
255
85
255
255
85
255
255
0
0
0
65
49
0
65
49
0
113
85
0
170
85
0
113
85
0
170
0
0
113
0
0
113
0
0
85
255
255
85
255
255
85
255
255
85
255
255
85
255
255
85
255
255
85
255
255
85
255
255
85
255
255
85
255
255
85
255
255
85
255
255
85
255
255
85
255
255
85
255
255
85
255
255
85
255
255
0
0
0
0
0
0
0
0
0
0
0
0
113
0
0
85
255
255
85
255
255
85
255
255
85
255
255
85
255
255
85
255
255
85
255
255
85
255
255
85
255
255
85
255
255
85
255
255
85
255
255
85
255
255
85
255
255
85
255
255
85
255
255
85
255
255
85
255
255
85
255
255
85
255
255
85
255
255
85
255
255
85
255
255
85
255
255
85
255
255
85
255
255
85
255
255
85
255
255
85
255
255
85
255
255
85
255
255
85
255
255
85
255
255
85
255
255
85
255
255
85
255
255
85
255
255
85
255
255
85
255
255
85
255
255
85
255
255
85
255
255
85
255
255
85
255
255
85
255
255
85
255
255
85
255
255
85
255
255
85
255
255
85
255
255
85
255
255
85
255
255
85
255
255
85
255
255
85
255
255
85
255
255
85
255
255
85
255
255
85
255
255
85
255
255
85
255
255
85
255
255
85
255
255
85
255
255
85
255
255
85
255
255
85
255
255
85
255
255
85
255
255
85
255
255
85
255
255
85
255
255
85
255
255
85
255
255
85
255
255
85
255
255
85
255
255
85
255
255
85
255
255
85
255
255
85
255
255
85
255
255
85
255
255
85
255
255
85
255
255
85
255
255
85
255
255
0
0
0
0
0
0
0
0
0
0
0
0
0
0
0
0
0
0
0
0
0
0
0
0
0
0
0
0
0
0
0
0
0
0
0
0
0
0
0
85
255
255
85
255
255
85
255
255
85
255
255
85
255
255
85
255
255
85
255
255
85
255
255
85
255
255
85
255
255
0
0
0
0
0
0
0
0
0
0
0
0
65
49
0
0
0
0
65
49
0
65
49
32
0
0
0
0
0
0
0
0
0
0
0
0
0
0
0
0
0
0
0
0
0
0
0
0
85
255
255
85
255
255
85
255
255
85
255
255
85
255
255
85
255
255
0
0
0
0
0
0
0
0
0
113
85
0
113
85
0
170
85
0
170
85
0
113
85
0
0
0
0
65
49
32
0
0
0
0
0
0
0
0
0
0
0
0
0
0
0
0
0
0
0
0
0
0
0
0
0
0
0
85
255
255
85
255
255
85
255
255
85
255
255
0
0
0
0
0
0
65
49
32
65
49
0
170
85
0
255
190
130
170
85
0
113
85
0
113
85
0
113
85
0
113
85
0
65
49
0
113
85
0
0
0
0
0
0
0
0
0
0
65
49
32
0
0
0
0
0
0
0
0
0
0
0
0
85
255
255
85
255
255
85
255
255
85
255
255
0
0
0
170
85
0
170
85
0
113
85
0
113
85
0
65
49
0
113
85
0
113
85
0
113
85
0
65
49
0
0
0
0
113
85
0
65
49
0
65
49
0
65
49
32
0
0
0
0
0
0
0
0
0
0
0
0
0
0
0
85
255
255
85
255
255
85
255
255
85
255
255
0
0
0
113
85
0
65
49
32
113
85
0
113
85
0
65
49
32
0
0
0
65
49
32
0
0
0
0
0
0
0
0
0
0
0
0
0
0
0
0
0
0
0
0
0
0
0
0
0
0
0
0
0
0
0
0
0
85
255
255
0
0
0
85
255
255
85
255
255
0
0
0
65
49
32
0
0
0
0
0
0
0
0
0
0
0
0
0
0
0
0
0
0
0
0
0
0
0
0
0
0
0
0
0
0
0
0
0
0
0
0
0
0
0
0
0
0
0
0
0
0
0
0
0
0
0
0
0
0
85
255
255
85
255
255
85
255
255
85
255
255
0
0
0
0
0
0
0
0
0
0
0
0
0
0
0
0
0
0
0
0
0
0
0
0
0
0
0
0
0
0
0
0
0
0
0
0
0
0
0
0
0
0
0
0
0
0
0
0
0
0
0
0
0
0
0
0
0
0
0
0
0
0
0
85
255
255
85
255
255
0
0
0
0
0
0
0
0
0
0
0
0
0
0
0
0
0
0
0
0
0
0
0
0
0
0
0
0
0
0
65
49
32
0
0
0
0
0
0
0
0
0
0
0
0
0
0
0
0
0
0
65
49
32
0
0
0
0
0
0
0
0
0
0
0
0
0
0
0
85
255
255
255
255
255
0
0
0
0
0
0
0
0
0
0
0
0
0
0
0
0
0
0
0
0
0
0
0
0
65
49
32
113
85
0
65
49
32
65
49
32
0
0
0
65
49
32
0
0
0
0
0
0
0
0
0
65
49
32
0
0
0
0
0
0
0
0
0
0
0
0
85
255
255
0
0
0
0
0
0
0
0
0
0
0
0
0
0
0
0
0
0
0
0
0
65
49
32
0
0
0
170
85
0
255
190
130
255
190
130
113
85
0
65
49
32
170
85
0
170
85
0
0
0
0
170
85
0
113
85
0
0
0
0
0
0
0
0
0
0
85
255
255
85
255
255
85
255
255
0
0
0
0
0
0
0
0
0
0
0
0
0
0
0
65
49
32
113
85
0
170
85
0
170
85
0
255
223
130
255
223
130
255
190
130
113
85
0
170
85
0
255
190
130
170
85
0
255
190
130
170
85
0
65
49
32
65
49
32
0
0
0
85
255
255
85
255
255
85
255
255
113
85
0
0
0
0
65
49
32
0
0
0
0
0
0
113
85
0
170
85
0
255
190
130
255
190
130
255
255
186
255
255
186
255
255
186
255
190
130
170
85
0
255
223
130
255
223
130
255
223
130
170
85
0
65
49
32
0
0
0
0
0
0
0
0
0
85
255
255
85
255
255
255
223
130
0
0
0
113
85
0
0
0
0
0
0
0
170
85
0
170
85
0
170
85
0
255
190
130
255
255
186
255
255
186
255
255
186
255
223
130
170
85
0
170
85
0
170
85
0
113
85
0
113
85
0
113
85
0
0
0
0
0
0
0
0
0
0
85
255
255
85
255
255
255
223
130
65
49
0
170
85
0
0
0
0
65
49
0
65
49
0
65
49
0
170
85
0
170
85
0
255
255
186
255
255
186
255
223
130
170
85
0
170
85
0
65
49
0
65
49
0
65
49
32
113
85
0
170
85
0
65
49
32
0
0
0
170
85
0
85
255
255
85
255
255
255
190
130
65
49
0
170
85
0
170
85
0
0
0
0
0
0
0
0
0
0
113
85
0
170
85
0
255
223
130
255
255
186
255
190
130
255
85
85
0
0
0
0
0
0
170
85
0
113
85
0
65
49
0
255
85
85
65
49
0
170
85
0
255
223
130
85
255
255
85
255
255
170
85
0
65
49
0
170
85
0
170
85
0
113
0
0
255
186
186
0
0
0
255
85
85
170
85
0
255
190
130
255
223
130
170
85
0
170
85
0
255
186
186
0
0
0
170
0
0
255
190
130
170
85
0
170
85
0
113
85
0
255
223
130
170
85
0
85
255
255
85
255
255
113
85
0
65
49
0
170
85
0
170
85
0
170
85
0
255
130
130
255
223
130
255
190
130
170
85
0
255
190
130
255
223
130
170
85
0
170
85
0
255
223
130
239
239
239
255
130
130
170
85
0
170
85
0
170
85
0
113
85
0
255
190
130
85
255
255
85
255
255
85
255
255
85
255
255
0
0
0
113
85
0
255
85
85
255
223
130
255
255
186
255
223
130
170
85
0
170
85
0
255
190
130
255
223
130
170
85
0
170
85
0
255
223
130
255
223
130
255
255
186
255
223
130
255
190
130
170
85
0
113
85
0
85
255
255
85
255
255
85
255
255
85
255
255
85
255
255
0
0
0
113
85
0
113
0
0
255
186
186
255
255
186
255
223
130
170
85
0
255
190
130
255
223
130
255
255
186
255
190
130
255
190
130
170
85
0
255
223
130
255
255
186
255
255
186
255
190
130
170
85
0
113
85
0
85
255
255
85
255
255
85
255
255
85
255
255
85
255
255
85
255
255
113
85
0
170
0
0
255
85
85
255
186
186
255
223
130
255
190
130
113
85
0
255
223
130
255
190
130
170
85
0
113
85
0
170
85
0
255
255
186
255
255
186
170
85
0
255
190
130
170
85
0
65
49
0
85
255
255
85
255
255
85
255
255
85
255
255
85
255
255
85
255
255
65
49
0
170
0
0
170
85
0
255
85
85
255
190
130
170
85
0
170
0
0
170
85
0
170
85
0
113
0
0
170
0
0
255
190
130
255
190
130
170
85
0
255
190
130
170
85
0
113
85
0
0
0
0
85
255
255
85
255
255
85
255
255
85
255
255
85
255
255
85
255
255
0
0
0
170
0
0
170
85
0
170
85
0
170
85
0
170
85
0
255
85
85
255
158
130
255
255
186
255
158
130
255
85
85
170
0
0
170
85
0
255
190
130
170
85
0
170
85
0
65
49
0
85
255
255
85
255
255
85
255
255
85
255
255
85
255
255
85
255
255
85
255
255
85
255
255
113
0
0
113
85
0
170
85
0
113
85
0
170
85
0
113
0
0
255
85
85
113
85
0
170
0
0
113
0
0
170
0
0
113
0
0
170
85
0
170
85
0
113
85
0
0
0
0
85
255
255
85
255
255
85
255
255
85
255
255
85
255
255
85
255
255
85
255
255
85
255
255
113
0
0
65
49
0
113
85
0
170
85
0
255
190
130
255
158
130
255
158
130
239
239
239
239
239
239
255
158
130
255
85
85
170
0
0
170
85
0
113
85
0
0
0
0
85
255
255
85
255
255
85
255
255
85
255
255
85
255
255
85
255
255
85
255
255
85
255
255
85
255
255
85
255
255
0
0
0
65
49
0
113
85
0
170
85
0
255
85
85
255
85
85
170
85
0
170
85
0
255
85
85
255
85
85
113
0
0
65
49
0
0
0
0
85
255
255
85
255
255
85
255
255
85
255
255
85
255
255
85
255
255
85
255
255
85
255
255
85
255
255
85
255
255
85
255
255
85
255
255
0
0
0
65
49
0
113
85
0
255
85
85
255
158
130
255
223
130
255
223
130
255
158
130
255
85
85
113
0
0
0
0
0
85
255
255
85
255
255
85
255
255
85
255
255
85
255
255
85
255
255
85
255
255
85
255
255
85
255
255
85
255
255
85
255
255
85
255
255
85
255
255
85
255
255
0
0
0
65
49
0
170
0
0
255
85
85
170
85
0
113
85
0
170
0
0
113
0
0
113
0
0
85
255
255
85
255
255
85
255
255
85
255
255
85
255
255
85
255
255
85
255
255
85
255
255
85
255
255
85
255
255
85
255
255
85
255
255
85
255
255
85
255
255
85
255
255
85
255
255
85
255
255
113
0
0
170
0
0
0
0
0
0
0
0
113
0
0
85
255
255
85
255
255
85
255
255
85
255
255
85
255
255
85
255
255
85
255
255
85
255
255
85
255
255
85
255
255
85
255
255
85
255
255
85
255
255
85
255
255
85
255
255
85
255
255
85
255
255
85
255
255
85
255
255
85
255
255
85
255
255
85
255
255
85
255
255
85
255
255
85
255
255
85
255
255
85
255
255
85
255
255
85
255
255
85
255
255
85
255
255
85
255
255
85
255
255
85
255
255
85
255
255
85
255
255
85
255
255
85
255
255
85
255
255
85
255
255
85
255
255
85
255
255
85
255
255
85
255
255
85
255
255
85
255
255
85
255
255
85
255
255
85
255
255
85
255
255
85
255
255
85
255
255
85
255
255
85
255
255
85
255
255
85
255
255
85
255
255
85
255
255
85
255
255
85
255
255
85
255
255
85
255
255
85
255
255
0
0
0
0
0
0
0
0
0
0
0
0
0
0
0
0
0
0
0
0
0
0
0
0
0
0
0
0
0
0
0
0
0
0
0
0
0
0
0
85
255
255
85
255
255
85
255
255
85
255
255
85
255
255
85
255
255
85
255
255
85
255
255
85
255
255
85
255
255
0
0
0
0
0
0
0
0
0
0
0
0
65
49
0
0
0
0
65
49
0
65
49
32
0
0
0
0
0
0
0
0
0
0
0
0
0
0
0
0
0
0
0
0
0
0
0
0
85
255
255
85
255
255
85
255
255
85
255
255
85
255
255
85
255
255
0
0
0
0
0
0
0
0
0
113
85
0
113
85
0
170
85
0
170
85
0
113
85
0
0
0
0
65
49
32
0
0
0
0
0
0
0
0
0
0
0
0
0
0
0
0
0
0
0
0
0
0
0
0
0
0
0
85
255
255
85
255
255
85
255
255
85
255
255
0
0
0
0
0
0
65
49
32
65
49
0
170
85
0
255
190
130
170
85
0
113
85
0
113
85
0
113
85
0
113
85
0
65
49
0
113
85
0
0
0
0
0
0
0
0
0
0
65
49
32
0
0
0
0
0
0
0
0
0
0
0
0
85
255
255
85
255
255
85
255
255
85
255
255
0
0
0
170
85
0
170
85
0
113
85
0
113
85
0
65
49
0
113
85
0
113
85
0
113
85
0
65
49
0
0
0
0
113
85
0
65
49
0
65
49
0
65
49
32
0
0
0
0
0
0
0
0
0
0
0
0
0
0
0
85
255
255
85
255
255
85
255
255
85
255
255
0
0
0
113
85
0
65
49
32
113
85
0
113
85
0
65
49
32
0
0
0
65
49
32
0
0
0
0
0
0
0
0
0
0
0
0
0
0
0
0
0
0
0
0
0
0
0
0
0
0
0
0
0
0
0
0
0
85
255
255
0
0
0
85
255
255
85
255
255
0
0
0
65
49
32
0
0
0
0
0
0
0
0
0
0
0
0
0
0
0
0
0
0
0
0
0
0
0
0
0
0
0
0
0
0
0
0
0
0
0
0
0
0
0
0
0
0
0
0
0
0
0
0
0
0
0
0
0
0
85
255
255
85
255
255
85
255
255
85
255
255
0
0
0
0
0
0
0
0
0
0
0
0
0
0
0
0
0
0
0
0
0
0
0
0
0
0
0
113
0
0
0
0
0
0
0
0
0
0
0
0
0
0
0
0
0
0
0
0
0
0
0
0
0
0
0
0
0
0
0
0
0
0
0
85
255
255
85
255
255
0
0
0
0
0
0
0
0
0
0
0
0
0
0
0
0
0
0
0
0
0
0
0
0
0
0
0
0
0
0
170
0
0
0
0
0
0
0
0
0
0
0
0
0
0
0
0
0
0
0
0
113
0
0
0
0
0
0
0
0
0
0
0
0
0
0
0
0
0
85
255
255
255
255
255
0
0
0
0
0
0
0
0
0
0
0
0
0
0
0
0
0
0
0
0
0
0
0
0
65
49
32
255
85
85
65
49
32
113
0
0
0
0
0
65
49
32
0
0
0
0
0
0
0
0
0
113
0
0
0
0
0
0
0
0
0
0
0
0
0
0
85
255
255
0
0
0
0
0
0
0
0
0
0
0
0
0
0
0
0
0
0
0
0
0
113
0
0
0
0
0
170
85
0
255
190
130
255
190
130
170
0
0
113
0
0
170
85
0
170
85
0
0
0
0
113
0
0
170
0
0
0
0
0
0
0
0
0
0
0
85
255
255
85
255
255
85
255
255
0
0
0
0
0
0
0
0
0
0
0
0
0
0
0
113
0
0
255
85
85
170
0
0
170
85
0
255
223
130
255
223
130
255
190
130
170
0
0
170
85
0
255
190
130
170
0
0
170
0
0
255
85
85
113
0
0
0
0
0
0
0
0
85
255
255
85
255
255
85
255
255
113
85
0
0
0
0
65
49
32
0
0
0
0
0
0
170
0
0
170
85
0
255
85
85
255
190
130
255
255
186
255
255
186
255
255
186
255
85
85
170
85
0
255
223
130
255
85
85
255
85
85
170
85
0
170
0
0
113
0
0
0
0
0
0
0
0
85
255
255
85
255
255
255
223
130
0
0
0
113
85
0
0
0
0
0
0
0
113
0
0
170
85
0
255
85
85
255
190
130
255
255
186
255
255
186
255
255
186
255
223
130
170
85
0
170
85
0
170
0
0
170
0
0
113
85
0
170
0
0
0
0
0
0
0
0
0
0
0
85
255
255
85
255
255
255
223
130
65
49
0
170
85
0
0
0
0
113
0
0
113
0
0
113
0
0
170
0
0
170
85
0
255
255
186
255
255
186
255
223
130
170
85
0
170
85
0
65
49
0
113
0
0
113
0
0
113
85
0
255
85
85
65
49
32
0
0
0
170
85
0
85
255
255
85
255
255
255
190
130
65
49
0
170
85
0
113
0
0
0
0
0
0
0
0
0
0
0
113
0
0
170
85
0
255
223
130
255
255
186
255
190
130
255
85
85
0
0
0
0
0
0
255
85
85
170
0
0
65
49
0
255
85
85
65
49
0
170
85
0
255
223
130
85
255
255
85
255
255
170
85
0
65
49
0
170
85
0
170
0
0
113
0
0
255
186
186
0
0
0
255
85
85
170
85
0
255
190
130
255
223
130
170
85
0
170
85
0
255
186
186
0
0
0
170
0
0
170
0
0
170
85
0
170
0
0
113
85
0
255
223
130
170
85
0
85
255
255
85
255
255
113
85
0
65
49
0
170
85
0
170
0
0
170
85
0
255
130
130
255
223
130
255
190
130
170
85
0
255
190
130
255
223
130
170
85
0
170
85
0
255
223
130
239
239
239
255
130
130
255
85
85
170
85
0
170
0
0
113
85
0
255
190
130
85
255
255
85
255
255
85
255
255
85
255
255
0
0
0
113
85
0
170
0
0
255
223
130
255
255
186
255
223
130
170
85
0
170
85
0
255
190
130
255
223
130
170
85
0
170
85
0
255
223
130
255
223
130
239
239
239
255
130
130
255
190
130
170
0
0
113
85
0
85
255
255
85
255
255
85
255
255
85
255
255
85
255
255
0
0
0
113
85
0
113
0
0
255
186
186
255
255
186
255
223
130
170
85
0
255
190
130
255
223
130
255
255
186
255
190
130
255
190
130
170
85
0
255
223
130
239
239
239
255
130
130
255
190
130
170
0
0
113
85
0
85
255
255
85
255
255
85
255
255
85
255
255
85
255
255
85
255
255
113
85
0
170
0
0
255
85
85
255
186
186
255
223
130
255
190
130
113
85
0
255
223
130
255
190
130
170
85
0
113
85
0
170
85
0
255
255
186
239
239
239
255
85
85
255
190
130
170
0
0
65
49
0
85
255
255
85
255
255
85
255
255
85
255
255
85
255
255
85
255
255
65
49
0
170
0
0
170
85
0
255
85
85
255
190
130
170
85
0
170
0
0
170
85
0
170
85
0
113
0
0
170
0
0
255
190
130
255
190
130
255
85
85
255
130
130
170
85
0
170
0
0
0
0
0
85
255
255
85
255
255
85
255
255
85
255
255
85
255
255
85
255
255
0
0
0
170
0
0
170
85
0
113
0
0
170
85
0
170
85
0
255
85
85
255
85
85
255
158
130
255
158
130
255
85
85
170
0
0
170
85
0
255
130
130
255
85
85
170
85
0
113
0
0
85
255
255
85
255
255
85
255
255
85
255
255
85
255
255
85
255
255
85
255
255
85
255
255
113
0
0
113
85
0
170
0
0
113
85
0
170
85
0
113
0
0
255
85
85
170
0
0
170
0
0
113
0
0
170
0
0
113
0
0
255
85
85
255
130
130
113
85
0
113
0
0
85
255
255
85
255
255
85
255
255
85
255
255
85
255
255
85
255
255
85
255
255
85
255
255
113
0
0
65
49
0
170
0
0
170
85
0
255
190
130
255
158
130
255
158
130
239
239
239
239
239
239
255
158
130
255
85
85
170
0
0
255
130
130
170
0
0
0
0
0
85
255
255
85
255
255
85
255
255
85
255
255
85
255
255
85
255
255
85
255
255
85
255
255
85
255
255
85
255
255
0
0
0
113
0
0
113
85
0
170
85
0
255
85
85
170
0
0
170
0
0
170
0
0
255
85
85
255
85
85
113
0
0
170
0
0
113
0
0
85
255
255
85
255
255
85
255
255
85
255
255
85
255
255
85
255
255
85
255
255
85
255
255
85
255
255
85
255
255
85
255
255
85
255
255
113
0
0
65
49
0
113
85
0
255
85
85
255
158
130
239
239
239
239
239
239
255
158
130
255
85
85
113
0
0
113
0
0
85
255
255
85
255
255
85
255
255
85
255
255
85
255
255
85
255
255
85
255
255
85
255
255
85
255
255
85
255
255
85
255
255
85
255
255
85
255
255
85
255
255
0
0
0
65
49
0
170
0
0
255
85
85
170
0
0
170
0
0
170
0
0
113
0
0
113
0
0
85
255
255
85
255
255
85
255
255
85
255
255
85
255
255
85
255
255
85
255
255
85
255
255
85
255
255
85
255
255
85
255
255
85
255
255
85
255
255
85
255
255
85
255
255
85
255
255
85
255
255
113
0
0
170
0
0
170
0
0
170
0
0
113
0
0
85
255
255
85
255
255
85
255
255
85
255
255
85
255
255
85
255
255
85
255
255
85
255
255
85
255
255
85
255
255
85
255
255
85
255
255
85
255
255
85
255
255
85
255
255
85
255
255
85
255
255
85
255
255
85
255
255
85
255
255
85
255
255
85
255
255
85
255
255
85
255
255
85
255
255
85
255
255
85
255
255
85
255
255
85
255
255
85
255
255
85
255
255
85
255
255
85
255
255
85
255
255
85
255
255
85
255
255
85
255
255
85
255
255
85
255
255
85
255
255
85
255
255
85
255
255
85
255
255
85
255
255
85
255
255
85
255
255
85
255
255
85
255
255
85
255
255
85
255
255
85
255
255
85
255
255
85
255
255
85
255
255
85
255
255
85
255
255
85
255
255
85
255
255
85
255
255
85
255
255
85
255
255
85
255
255
0
0
0
0
0
0
0
0
0
0
0
0
0
0
0
0
0
0
0
0
0
0
0
0
0
0
0
0
0
0
0
0
0
0
0
0
0
0
0
0
0
0
0
0
0
85
255
255
85
255
255
85
255
255
85
255
255
85
255
255
85
255
255
85
255
255
85
255
255
0
0
0
0
0
0
0
0
0
0
0
0
0
0
0
0
0
0
0
0
0
0
0
0
0
0
0
0
0
0
0
0
0
0
0
0
0
0
0
0
0
0
0
0
0
0
0
0
0
0
0
85
255
255
85
255
255
85
255
255
85
255
255
85
255
255
85
255
255
0
0
0
0
0
0
0
0
0
0
0
0
0
0
0
0
0
0
65
49
0
0
0
0
65
49
0
65
49
32
0
0
0
0
0
0
0
0
0
0
0
0
0
0
0
0
0
0
0
0
0
0
0
0
0
0
0
85
255
255
85
255
255
85
255
255
85
255
255
0
0
0
0
0
0
0
0
0
0
0
0
113
85
0
113
85
0
170
85
0
170
85
0
113
85
0
0
0
0
65
49
32
0
0
0
0
0
0
0
0
0
0
0
0
0
0
0
0
0
0
0
0
0
0
0
0
0
0
0
0
0
0
85
255
255
85
255
255
85
255
255
0
0
0
0
0
0
65
49
32
65
49
0
170
85
0
255
190
130
170
85
0
113
85
0
113
85
0
113
85
0
113
85
0
65
49
0
113
85
0
0
0
0
0
0
0
0
0
0
65
49
32
0
0
0
0
0
0
0
0
0
0
0
0
85
255
255
85
255
255
85
255
255
0
0
0
0
0
0
170
85
0
170
85
0
113
85
0
113
85
0
65
49
0
113
85
0
113
85
0
113
85
0
65
49
0
0
0
0
113
85
0
65
49
0
65
49
0
65
49
32
0
0
0
0
0
0
0
0
0
0
0
0
0
0
0
85
255
255
85
255
255
85
255
255
0
0
0
65
49
32
113
85
0
65
49
32
113
85
0
113
85
0
65
49
32
65
49
0
65
49
32
0
0
0
0
0
0
0
0
0
0
0
0
0
0
0
0
0
0
0
0
0
0
0
0
0
0
0
0
0
0
0
0
0
0
0
0
85
255
255
85
255
255
85
255
255
0
0
0
65
49
32
65
49
0
0
0
0
65
49
0
65
49
0
0
0
0
65
49
0
0
0
0
0
0
0
0
0
0
0
0
0
0
0
0
0
0
0
0
0
0
0
0
0
0
0
0
0
0
0
0
0
0
0
0
0
0
0
0
85
255
255
85
255
255
85
255
255
0
0
0
65
49
0
0
0
0
0
0
0
65
49
0
65
49
32
0
0
0
65
49
32
0
0
0
113
0
0
0
0
0
0
0
0
0
0
0
0
0
0
0
0
0
0
0
0
0
0
0
0
0
0
0
0
0
0
0
0
0
0
0
0
0
0
85
255
255
0
0
0
0
0
0
0
0
0
0
0
0
65
49
32
65
49
32
0
0
0
0
0
0
65
49
32
0
0
0
170
0
0
0
0
0
0
0
0
0
0
0
0
0
0
0
0
0
0
0
0
113
0
0
0
0
0
0
0
0
0
0
0
0
0
0
0
0
0
85
255
255
255
255
255
0
0
0
0
0
0
0
0
0
65
49
0
0
0
0
0
0
0
0
0
0
0
0
0
113
0
0
255
85
85
65
49
32
113
0
0
0
0
0
113
0
0
0
0
0
0
0
0
0
0
0
113
0
0
0
0
0
0
0
0
0
0
0
85
255
255
85
255
255
0
0
0
0
0
0
0
0
0
0
0
0
65
49
32
0
0
0
0
0
0
113
0
0
0
0
0
170
0
0
255
190
130
255
190
130
170
0
0
113
0
0
170
0
0
255
85
85
0
0
0
113
0
0
170
0
0
0
0
0
0
0
0
0
0
0
85
255
255
85
255
255
85
255
255
113
85
0
0
0
0
0
0
0
0
0
0
0
0
0
113
0
0
255
85
85
170
0
0
255
85
85
255
223
130
255
223
130
255
190
130
170
0
0
170
0
0
255
190
130
170
0
0
170
0
0
255
85
85
113
0
0
0
0
0
0
0
0
0
0
0
85
255
255
85
255
255
255
223
130
0
0
0
65
49
32
0
0
0
0
0
0
170
0
0
170
85
0
255
85
85
255
85
85
255
255
186
255
255
186
255
255
186
255
85
85
170
0
0
255
223
130
255
85
85
255
85
85
170
85
0
170
0
0
113
0
0
0
0
0
0
0
0
85
255
255
85
255
255
255
223
130
0
0
0
113
85
0
0
0
0
0
0
0
113
0
0
255
223
130
255
85
85
255
158
130
255
255
186
255
255
186
255
255
186
255
85
85
255
158
130
255
223
130
170
0
0
170
0
0
113
85
0
170
0
0
0
0
0
0
0
0
170
85
0
85
255
255
85
255
255
255
190
130
65
49
0
170
85
0
0
0
0
113
0
0
113
0
0
113
0
0
113
0
0
170
0
0
255
190
130
255
255
186
255
190
130
170
0
0
113
0
0
113
0
0
113
0
0
170
0
0
113
85
0
255
85
85
65
49
32
170
85
0
255
223
130
85
255
255
85
255
255
170
85
0
65
49
0
170
85
0
113
0
0
0
0
0
113
0
0
170
0
0
170
0
0
255
85
85
255
158
130
255
255
186
255
190
130
255
85
85
170
0
0
170
0
0
113
0
0
113
0
0
65
49
0
255
85
85
65
49
0
255
223
130
170
85
0
85
255
255
85
255
255
113
85
0
65
49
0
170
85
0
170
0
0
113
0
0
255
85
85
255
85
85
170
0
0
170
0
0
255
158
130
255
223
130
170
85
0
170
0
0
170
0
0
255
85
85
255
85
85
170
0
0
170
85
0
170
0
0
113
85
0
255
190
130
85
255
255
85
255
255
85
255
255
85
255
255
65
49
0
170
85
0
170
0
0
170
85
0
255
130
130
170
85
0
65
49
0
170
0
0
255
190
130
255
223
130
170
85
0
170
0
0
65
49
0
170
85
0
255
130
130
255
85
85
170
85
0
170
0
0
113
85
0
85
255
255
85
255
255
85
255
255
85
255
255
85
255
255
0
0
0
113
85
0
170
0
0
255
223
130
239
239
239
255
223
130
170
85
0
170
0
0
255
190
130
255
223
130
170
85
0
170
0
0
255
223
130
255
223
130
239
239
239
255
130
130
255
190
130
170
0
0
113
85
0
85
255
255
85
255
255
85
255
255
85
255
255
85
255
255
85
255
255
113
85
0
113
0
0
255
186
186
239
239
239
255
223
130
170
85
0
255
85
85
255
223
130
255
255
186
255
190
130
255
85
85
170
85
0
255
223
130
239
239
239
255
130
130
255
190
130
170
0
0
113
85
0
85
255
255
85
255
255
85
255
255
85
255
255
85
255
255
85
255
255
113
85
0
170
0
0
255
85
85
255
186
186
255
223
130
255
190
130
170
0
0
255
223
130
255
190
130
170
85
0
170
0
0
170
85
0
255
255
186
239
239
239
255
85
85
255
190
130
170
0
0
65
49
0
85
255
255
85
255
255
85
255
255
85
255
255
85
255
255
85
255
255
65
49
0
170
0
0
170
85
0
255
85
85
255
190
130
170
85
0
170
0
0
170
85
0
170
85
0
113
0
0
170
0
0
255
190
130
255
190
130
255
85
85
255
130
130
170
85
0
170
0
0
85
255
255
85
255
255
85
255
255
85
255
255
85
255
255
85
255
255
85
255
255
85
255
255
170
0
0
170
85
0
113
0
0
170
85
0
170
85
0
255
85
85
255
85
85
255
158
130
255
158
130
255
85
85
170
0
0
170
85
0
255
130
130
255
85
85
170
85
0
113
0
0
85
255
255
85
255
255
85
255
255
85
255
255
85
255
255
85
255
255
85
255
255
85
255
255
113
0
0
113
85
0
170
0
0
113
85
0
170
85
0
113
0
0
255
85
85
170
0
0
170
0
0
113
0
0
170
0
0
113
0
0
255
85
85
255
130
130
113
85
0
85
255
255
85
255
255
85
255
255
85
255
255
85
255
255
85
255
255
85
255
255
85
255
255
85
255
255
85
255
255
0
0
0
113
0
0
170
85
0
255
190
130
255
158
130
255
158
130
239
239
239
239
239
239
255
158
130
255
85
85
170
0
0
170
0
0
113
0
0
85
255
255
85
255
255
85
255
255
85
255
255
85
255
255
85
255
255
85
255
255
85
255
255
85
255
255
85
255
255
85
255
255
85
255
255
113
0
0
113
85
0
170
85
0
255
85
85
170
0
0
170
0
0
170
0
0
255
85
85
255
85
85
113
0
0
113
0
0
85
255
255
85
255
255
85
255
255
85
255
255
85
255
255
85
255
255
85
255
255
85
255
255
85
255
255
85
255
255
85
255
255
85
255
255
85
255
255
85
255
255
65
49
0
113
85
0
255
85
85
255
158
130
239
239
239
239
239
239
255
158
130
255
85
85
113
0
0
85
255
255
85
255
255
85
255
255
85
255
255
85
255
255
85
255
255
85
255
255
85
255
255
85
255
255
85
255
255
85
255
255
85
255
255
85
255
255
85
255
255
85
255
255
85
255
255
85
255
255
113
0
0
170
0
0
170
0
0
170
0
0
113
0
0
85
255
255
85
255
255
85
255
255
85
255
255
85
255
255
85
255
255
85
255
255
85
255
255
85
255
255
85
255
255
85
255
255
85
255
255
85
255
255
85
255
255
85
255
255
85
255
255
85
255
255
85
255
255
85
255
255
85
255
255
85
255
255
85
255
255
85
255
255
85
255
255
85
255
255
85
255
255
85
255
255
85
255
255
85
255
255
85
255
255
85
255
255
85
255
255
85
255
255
85
255
255
